<svg xmlns="http://www.w3.org/2000/svg" width="1024" height="512">
  <defs>
    <clipPath id="a">
      <path d="M0 0h1024v512H0z"/>
    </clipPath>
  </defs>
  <g clip-path="url(#a)">
    <path fill="#fff" d="M0 0h1024v512H0z"/>
    <path fill="#232829" d="M0 0h1024v512H0z"/>
    <path fill="#0ac18e" d="M564.33 228.2v11.58h-18.18v48.72h-13.57v-48.72h-18.19v-11.57Zm39.32 37.33a29.76 29.76 0 0 1-1.56 9.88 21.45 21.45 0 0 1-4.53 7.65 20.36 20.36 0 0 1-7.09 4.92 23.66 23.66 0 0 1-9.26 1.74 23.43 23.43 0 0 1-9.18-1.74 20.36 20.36 0 0 1-7.09-4.92 22.5 22.5 0 0 1-4.61-7.65 28.33 28.33 0 0 1-1.65-9.88 27.33 27.33 0 0 1 1.7-9.83 22.3 22.3 0 0 1 4.7-7.57 21.1 21.1 0 0 1 7.13-4.87 22.97 22.97 0 0 1 9-1.74 23.2 23.2 0 0 1 9.1 1.74 20.64 20.64 0 0 1 7.08 4.87 22.11 22.11 0 0 1 4.61 7.57 27.97 27.97 0 0 1 1.65 9.83Zm-13.22 0q0-6-2.4-9.44a7.82 7.82 0 0 0-6.82-3.43 7.93 7.93 0 0 0-6.88 3.43q-2.43 3.44-2.43 9.44t2.43 9.53a7.87 7.87 0 0 0 6.88 3.52 7.76 7.76 0 0 0 6.83-3.52q2.39-3.52 2.39-9.53Zm31.4-6.26 3.97-4.35q2.05-2.26 3.95-4.48 1.92-2.22 3.61-4.22t2.92-3.48h15.4q-4.61 5.3-9 10.13t-9.61 9.97a59.59 59.59 0 0 1 5.39 5.6q2.78 3.27 5.4 6.75t4.78 6.96q2.17 3.48 3.65 6.35h-14.87q-1.4-2.26-3.18-5t-3.78-5.48q-2-2.74-4.22-5.26a35.23 35.23 0 0 0-4.4-4.27v20.01h-12.96v-65.42l12.96-2.1Zm27.32 6.7a27.99 27.99 0 0 1 1.88-10.66 22.85 22.85 0 0 1 4.91-7.61 20.45 20.45 0 0 1 7-4.61 21.93 21.93 0 0 1 8.13-1.57q9.75 0 15.4 5.96t5.66 17.53q0 1.13-.09 2.48t-.17 2.4h-29.4a8.61 8.61 0 0 0 3.74 6.34q3.3 2.35 8.87 2.35a37.46 37.46 0 0 0 7-.65 26.44 26.44 0 0 0 5.62-1.61l1.74 10.53a17.9 17.9 0 0 1-2.79 1.04 36.43 36.43 0 0 1-3.87.91q-2.13.4-4.56.66a45.7 45.7 0 0 1-4.88.26 28.84 28.84 0 0 1-10.74-1.83 20.93 20.93 0 0 1-7.57-5 19.86 19.86 0 0 1-4.44-7.52 29.81 29.81 0 0 1-1.43-9.4ZM679.6 261a13.38 13.38 0 0 0-.56-3.22 8.04 8.04 0 0 0-1.48-2.78 7.87 7.87 0 0 0-2.52-2 8.22 8.22 0 0 0-3.79-.79 8.7 8.7 0 0 0-3.74.74 7.73 7.73 0 0 0-2.6 1.96 8.76 8.76 0 0 0-1.62 2.83 18.55 18.55 0 0 0-.83 3.26Zm17.75-16.7a72.25 72.25 0 0 1 8.53-1.79 70.06 70.06 0 0 1 10.96-.82 26.7 26.7 0 0 1 9.7 1.52 14.57 14.57 0 0 1 6.14 4.3 16.78 16.78 0 0 1 3.21 6.62 35.18 35.18 0 0 1 .96 8.53v25.83H723.9v-24.27q0-6.27-1.65-8.88t-6.18-2.6q-1.4 0-2.96.12t-2.78.3v35.33h-12.97Zm59.6 34.88a12.94 12.94 0 0 0 5.04-.7 2.69 2.69 0 0 0 1.48-2.7 3.3 3.3 0 0 0-1.91-2.74 36.37 36.37 0 0 0-5.83-2.65 59.74 59.74 0 0 1-5.52-2.35 16.24 16.24 0 0 1-4.22-2.91 11.79 11.79 0 0 1-2.7-4.05 14.98 14.98 0 0 1-.96-5.65 12.23 12.23 0 0 1 4.79-10.18q4.78-3.74 13.13-3.74a42.13 42.13 0 0 1 8 .74 37.24 37.24 0 0 1 6.1 1.6l-2.26 10.1a47.6 47.6 0 0 0-4.92-1.4 26.71 26.71 0 0 0-5.96-.6q-6.09 0-6.09 3.4a3.5 3.5 0 0 0 .26 1.38 2.97 2.97 0 0 0 1.05 1.18 14.55 14.55 0 0 0 2.13 1.22q1.35.65 3.44 1.43a53.09 53.09 0 0 1 7.04 3.1 16.56 16.56 0 0 1 4.4 3.3 10.26 10.26 0 0 1 2.26 3.96 17.6 17.6 0 0 1 .65 5.04q0 6.79-5.1 10.27t-14.4 3.48a41.38 41.38 0 0 1-10.13-1.05 41.1 41.1 0 0 1-5.6-1.74l2.17-10.52a42.52 42.52 0 0 0 6.79 2.04 33 33 0 0 0 6.87.74Z"/>
    <g transform="translate(244.08 216.78)">
      <circle cx="40.75" cy="40.75" r="40.75" fill="#0ac18e"/>
      <path fill="#fff" d="M53.48 27.11c-2.05-4.64-6.74-5.6-12.5-4.66l-1.85-7.16-4.36 1.13 1.81 7.14c-1.14.3-2.32.54-3.48.87l-1.83-7.1-4.37 1.13 1.85 7.16c-.93.26-8.78 2.3-8.78 2.3l1.2 4.65s3.21-.9 3.18-.82a2.34 2.34 0 0 1 3 1.26l5.08 19.63a1.59 1.59 0 0 1-1.26 1.86c.06.03-3.17.82-3.17.82l.47 5.43s7.77-2 8.8-2.24l1.88 7.24 4.35-1.13-1.86-7.29c1.2-.28 2.35-.57 3.5-.87L47 63.72l4.37-1.12-1.87-7.23c6.7-1.64 11.45-5.86 10.47-12.33-.62-3.9-4.87-7.1-8.42-7.46a7.31 7.31 0 0 0 1.93-8.47ZM51.37 44.2c.86 6.41-8.03 7.2-11 7.96l-2.56-9.58c2.98-.79 12.1-4.04 13.56 1.62ZM46 31.14c.92 5.7-6.69 6.36-9.15 7l-2.33-8.7c2.47-.64 9.62-3.57 11.48 1.7Z"/>
    </g>
    <path fill="#fff" d="M367.37 289.72q-14.7 0-22.4-8.18t-7.7-23.23a35.72 35.72 0 0 1 2.35-13.35 28.77 28.77 0 0 1 6.43-9.92 26.92 26.92 0 0 1 9.75-6.14 35.15 35.15 0 0 1 12.26-2.09 39.32 39.32 0 0 1 6.96.57 45.13 45.13 0 0 1 5.49 1.3 27.05 27.05 0 0 1 3.9 1.53q1.57.78 2.27 1.22l-3.91 10.96a32.84 32.84 0 0 0-6.48-2.52 30.93 30.93 0 0 0-8.4-1.05 18.55 18.55 0 0 0-6.14 1.05 13.87 13.87 0 0 0-5.3 3.35 16.69 16.69 0 0 0-3.7 5.96 25 25 0 0 0-1.4 8.87 31.68 31.68 0 0 0 .92 7.79 16.52 16.52 0 0 0 2.95 6.22 14.2 14.2 0 0 0 5.35 4.13 19.04 19.04 0 0 0 8 1.52 36.47 36.47 0 0 0 5.31-.35 39.4 39.4 0 0 0 4.18-.82 21.93 21.93 0 0 0 3.22-1.09q1.39-.6 2.52-1.13l3.75 10.87a31.8 31.8 0 0 1-8.09 3.14 47.16 47.16 0 0 1-12.1 1.39Zm41.58-10.27q1.92 0 3.66-.08a25.42 25.42 0 0 0 2.78-.27v-9.83q-.78-.17-2.35-.35a26.16 26.16 0 0 0-2.87-.17 25.7 25.7 0 0 0-3.43.22 8.98 8.98 0 0 0-2.83.82 4.85 4.85 0 0 0-1.92 1.65 4.6 4.6 0 0 0-.7 2.61q0 3.05 2.05 4.22a11.3 11.3 0 0 0 5.61 1.18Zm-1.04-37.93a30.02 30.02 0 0 1 9.57 1.3 14.86 14.86 0 0 1 6.14 3.75 13.75 13.75 0 0 1 3.26 5.91 29.18 29.18 0 0 1 .96 7.75v26.97q-2.8.6-7.75 1.43a74.4 74.4 0 0 1-12 .83 38.06 38.06 0 0 1-8.05-.79 17.46 17.46 0 0 1-6.22-2.56 11.74 11.74 0 0 1-4-4.66 16.07 16.07 0 0 1-1.4-7.04 13.35 13.35 0 0 1 1.61-6.79 12.39 12.39 0 0 1 4.31-4.44 19.46 19.46 0 0 1 6.18-2.39 34.65 34.65 0 0 1 7.22-.74 41 41 0 0 1 4.48.22 19.94 19.94 0 0 1 3.17.57v-1.22a7.17 7.17 0 0 0-2-5.31q-2-2-6.96-2a44.32 44.32 0 0 0-6.52.48 28 28 0 0 0-5.57 1.35l-1.65-10.44q1.13-.35 2.82-.74t3.7-.7q2-.3 4.22-.52t4.48-.22Zm40.02 37.67a12.94 12.94 0 0 0 5.05-.7 2.69 2.69 0 0 0 1.47-2.7 3.3 3.3 0 0 0-1.9-2.74 36.37 36.37 0 0 0-5.83-2.65 59.74 59.74 0 0 1-5.53-2.35 16.24 16.24 0 0 1-4.22-2.91 11.79 11.79 0 0 1-2.7-4.05 14.98 14.98 0 0 1-.95-5.65 12.23 12.23 0 0 1 4.78-10.18q4.79-3.74 13.14-3.74a42.13 42.13 0 0 1 8 .74 37.24 37.24 0 0 1 6.09 1.6l-2.26 10.1a47.6 47.6 0 0 0-4.92-1.4 26.71 26.71 0 0 0-5.96-.6q-6.09 0-6.09 3.39a3.5 3.5 0 0 0 .26 1.4 2.97 2.97 0 0 0 1.05 1.17 14.55 14.55 0 0 0 2.13 1.21q1.35.66 3.43 1.44a53.09 53.09 0 0 1 7.05 3.09 16.56 16.56 0 0 1 4.4 3.3 10.26 10.26 0 0 1 2.26 3.96 17.6 17.6 0 0 1 .65 5.05q0 6.78-5.1 10.26t-14.4 3.48a41.38 41.38 0 0 1-10.12-1.04 41.1 41.1 0 0 1-5.61-1.74l2.17-10.52a42.52 42.52 0 0 0 6.79 2.04 33 33 0 0 0 6.87.74Zm24.27 9.31v-65.42l12.97-2.1v21.93a26.87 26.87 0 0 1 3.35-.82 21.04 21.04 0 0 1 3.96-.4 24.47 24.47 0 0 1 9.26 1.53 14.39 14.39 0 0 1 5.92 4.3 16.65 16.65 0 0 1 3.13 6.61 36.78 36.78 0 0 1 .91 8.53v25.84h-12.96v-24.27q0-6.27-1.61-8.88t-5.96-2.6a16.63 16.63 0 0 0-3.26.3q-1.52.3-2.74.65v34.8Z"/>
  </g>
</svg>
