<svg xmlns="http://www.w3.org/2000/svg" xml:space="preserve" style="fill-rule:evenodd;clip-rule:evenodd;stroke-linejoin:round;stroke-miterlimit:2" viewBox="0 0 588 118">
  <path d="M177.96 410.86h702.75v248.4H177.96z" style="fill:none" transform="matrix(.83591 0 0 .4717 -148.76 -193.8)"/>
  <path d="M564.33 228.2v11.58h-18.18v48.72h-13.57v-48.72h-18.19v-11.57l49.94-.01Zm39.32 37.33c.04 3.36-.49 6.7-1.56 9.88a21.45 21.45 0 0 1-4.53 7.65 20.36 20.36 0 0 1-7.09 4.92 23.65 23.65 0 0 1-9.26 1.74c-3.15.04-6.27-.55-9.18-1.74a20.36 20.36 0 0 1-7.09-4.92 22.5 22.5 0 0 1-4.61-7.65 28.35 28.35 0 0 1-1.65-9.88c-.04-3.35.54-6.68 1.7-9.83a21.1 21.1 0 0 1 11.83-12.44 22.96 22.96 0 0 1 9-1.74 23.2 23.2 0 0 1 9.1 1.74 20.65 20.65 0 0 1 7.08 4.87 22.1 22.1 0 0 1 4.61 7.57 27.97 27.97 0 0 1 1.65 9.83Zm-13.22 0c0-4-.8-7.15-2.4-9.44a7.83 7.83 0 0 0-6.82-3.43 7.94 7.94 0 0 0-6.88 3.43c-1.62 2.3-2.43 5.44-2.43 9.44 0 4 .81 7.18 2.43 9.53a7.88 7.88 0 0 0 6.88 3.52 7.77 7.77 0 0 0 6.83-3.52c1.6-2.35 2.39-5.52 2.39-9.53Zm31.4-6.26 3.97-4.35a496.08 496.08 0 0 0 10.48-12.18h15.4a619.66 619.66 0 0 1-9 10.13 251 251 0 0 1-9.61 9.97 59.5 59.5 0 0 1 5.39 5.6c1.85 2.18 3.65 4.43 5.4 6.75a93.93 93.93 0 0 1 4.78 6.96 90.95 90.95 0 0 1 3.65 6.35h-14.87c-.93-1.5-2-3.17-3.18-5a122.93 122.93 0 0 0-3.78-5.48 73.4 73.4 0 0 0-4.22-5.26 35.3 35.3 0 0 0-4.4-4.27v20.01h-12.96v-65.42l12.96-2.1-.01 38.29Zm27.32 6.7a28 28 0 0 1 1.88-10.66 22.86 22.86 0 0 1 4.91-7.61c1.99-2 4.37-3.57 7-4.61a21.92 21.92 0 0 1 8.13-1.57c6.5 0 11.63 1.99 15.4 5.96 3.77 3.97 5.65 9.82 5.66 17.53 0 .75-.03 1.58-.09 2.48l-.17 2.4h-29.4a8.62 8.62 0 0 0 3.74 6.34c2.2 1.57 5.16 2.35 8.87 2.35 2.35 0 4.7-.21 7-.65 1.93-.33 3.81-.87 5.62-1.61l1.74 10.53c-.9.42-1.83.77-2.79 1.04-1.27.37-2.56.68-3.87.91-1.42.27-2.94.49-4.56.66-1.62.17-3.25.26-4.88.26-3.66.08-7.3-.54-10.74-1.83a20.93 20.93 0 0 1-7.57-5 19.86 19.86 0 0 1-4.44-7.52 29.8 29.8 0 0 1-1.43-9.4h-.01ZM679.6 261c-.05-1.1-.24-2.17-.56-3.22a7.86 7.86 0 0 0-4-4.78 8.23 8.23 0 0 0-3.79-.79 8.7 8.7 0 0 0-3.74.74 7.74 7.74 0 0 0-2.6 1.96 8.77 8.77 0 0 0-1.62 2.83 18.49 18.49 0 0 0-.83 3.26h17.14Zm17.75-16.7c2.8-.77 5.65-1.37 8.53-1.79 3.63-.56 7.3-.83 10.96-.82 3.3-.1 6.59.42 9.7 1.52 2.39.87 4.5 2.36 6.14 4.3a16.79 16.79 0 0 1 3.21 6.62c.67 2.8.99 5.66.96 8.53v25.83H723.9v-24.27c0-4.18-.55-7.14-1.65-8.88-1.1-1.74-3.16-2.6-6.18-2.6a38.68 38.68 0 0 0-5.74.42v35.33h-12.97l-.01-44.19Zm59.6 34.88c1.71.1 3.42-.13 5.04-.7 1-.5 1.6-1.58 1.48-2.7a3.3 3.3 0 0 0-1.91-2.74 36.39 36.39 0 0 0-5.83-2.65 59.68 59.68 0 0 1-5.52-2.35 16.24 16.24 0 0 1-4.22-2.91 11.78 11.78 0 0 1-2.7-4.05c-.68-1.8-1-3.72-.96-5.65a12.24 12.24 0 0 1 4.79-10.18c3.19-2.5 7.56-3.74 13.13-3.74 2.68 0 5.36.24 8 .74 2.08.36 4.12.9 6.1 1.6l-2.26 10.1a47.46 47.46 0 0 0-4.92-1.4 26.7 26.7 0 0 0-5.96-.6c-4.06 0-6.09 1.13-6.09 3.4 0 .47.08.94.26 1.38.24.48.6.89 1.05 1.18.67.47 1.39.87 2.13 1.22.9.43 2.05.91 3.44 1.43 2.42.86 4.77 1.9 7.04 3.1 1.64.85 3.13 1.96 4.4 3.3a10.26 10.26 0 0 1 2.26 3.96c.46 1.64.68 3.34.65 5.04 0 4.53-1.7 7.95-5.1 10.27-3.4 2.32-8.2 3.48-14.4 3.48a41.4 41.4 0 0 1-15.73-2.79l2.17-10.52c2.2.87 4.47 1.55 6.79 2.04 2.26.49 4.56.73 6.87.74Z" style="fill:#0ac18e;fill-rule:nonzero" transform="matrix(1.02578 0 0 1.02578 -229.65 -205.58)"/>
  <g transform="matrix(1.02578 0 0 1.02578 20.72 16.79)">
    <circle cx="40.75" cy="40.75" r="40.75" style="fill:#0ac18e"/>
    <path d="M53.48 27.11c-2.05-4.64-6.74-5.6-12.5-4.66l-1.85-7.16-4.36 1.13 1.81 7.14c-1.14.3-2.32.54-3.48.87l-1.83-7.1-4.37 1.13 1.85 7.16c-.93.26-8.78 2.3-8.78 2.3l1.2 4.65s3.21-.9 3.18-.82c1.17-.45 2.5.1 3 1.26l5.08 19.63c.16.86-.4 1.7-1.26 1.86.06.03-3.17.82-3.17.82l.47 5.43s7.77-2 8.8-2.24l1.88 7.24 4.35-1.13-1.86-7.29c1.2-.28 2.35-.57 3.5-.87L47 63.72l4.37-1.12-1.87-7.23c6.7-1.64 11.45-5.86 10.47-12.33-.62-3.9-4.87-7.1-8.42-7.46a7.33 7.33 0 0 0 1.93-8.47ZM51.37 44.2c.86 6.41-8.03 7.2-11 7.96l-2.56-9.58c2.98-.79 12.1-4.04 13.56 1.62ZM46 31.14c.92 5.7-6.69 6.36-9.15 7l-2.33-8.7c2.47-.64 9.62-3.57 11.48 1.7Z" style="fill:#fff;fill-rule:nonzero"/>
  </g>
  <path d="M367.37 289.72c-9.8 0-17.27-2.73-22.4-8.18-5.13-5.45-7.7-13.2-7.7-23.23-.08-4.56.72-9.1 2.35-13.35a28.78 28.78 0 0 1 6.43-9.92 26.93 26.93 0 0 1 9.75-6.14 35.14 35.14 0 0 1 12.26-2.09c2.33-.02 4.66.17 6.96.57 1.86.32 3.69.75 5.49 1.3a26.97 26.97 0 0 1 6.17 2.75l-3.91 10.96a30.93 30.93 0 0 0-14.88-3.57c-2.1 0-4.17.36-6.14 1.05-2 .7-3.81 1.84-5.3 3.35a16.68 16.68 0 0 0-3.7 5.96 25 25 0 0 0-1.4 8.87c-.02 2.63.3 5.24.92 7.79a16.53 16.53 0 0 0 2.95 6.22 14.2 14.2 0 0 0 5.35 4.13 19.04 19.04 0 0 0 8 1.52 36.42 36.42 0 0 0 9.49-1.17 21.9 21.9 0 0 0 3.22-1.09c.93-.4 1.77-.78 2.52-1.13l3.75 10.87a31.81 31.81 0 0 1-8.09 3.14 47.16 47.16 0 0 1-12.1 1.39h.01Zm41.58-10.27c1.28 0 2.5-.03 3.66-.08a25.4 25.4 0 0 0 2.78-.27v-9.83a25.9 25.9 0 0 0-2.35-.35 26.22 26.22 0 0 0-6.3.05 9 9 0 0 0-2.83.82c-.78.37-1.44.94-1.92 1.65a4.6 4.6 0 0 0-.7 2.61c0 2.03.68 3.44 2.05 4.22a11.3 11.3 0 0 0 5.61 1.18Zm-1.04-37.93c3.24-.09 6.47.35 9.57 1.3 2.32.73 4.43 2.02 6.14 3.75a13.75 13.75 0 0 1 3.26 5.91c.67 2.53.99 5.14.96 7.75v26.97c-1.87.4-4.45.88-7.75 1.43-3.97.6-7.98.88-12 .83-2.7.02-5.4-.24-8.05-.79a17.46 17.46 0 0 1-6.22-2.56 11.74 11.74 0 0 1-4-4.66c-1-2.21-1.47-4.62-1.4-7.04-.07-2.37.48-4.71 1.61-6.79a12.4 12.4 0 0 1 4.31-4.44c1.9-1.14 4-1.95 6.18-2.39 2.37-.5 4.8-.75 7.22-.74 1.5 0 3 .06 4.48.22 1.07.1 2.13.3 3.17.57v-1.22c.1-1.97-.63-3.9-2-5.31-1.33-1.33-3.65-2-6.96-2-2.18 0-4.36.16-6.52.48a28 28 0 0 0-5.57 1.35l-1.65-10.44a51.5 51.5 0 0 1 6.52-1.44c1.33-.2 2.74-.37 4.22-.52a45.3 45.3 0 0 1 4.48-.22Zm40.02 37.67c1.71.1 3.43-.13 5.05-.7 1-.5 1.6-1.58 1.47-2.7a3.3 3.3 0 0 0-1.9-2.74 36.39 36.39 0 0 0-5.83-2.65 59.59 59.59 0 0 1-5.53-2.35 16.24 16.24 0 0 1-4.22-2.91 11.78 11.78 0 0 1-2.7-4.05c-.68-1.8-1-3.72-.95-5.65a12.24 12.24 0 0 1 4.78-10.18c3.2-2.5 7.57-3.74 13.14-3.74 2.68 0 5.36.24 8 .74 2.07.36 4.1.9 6.09 1.6l-2.26 10.1a47.46 47.46 0 0 0-4.92-1.4 26.7 26.7 0 0 0-5.96-.6c-4.06 0-6.09 1.13-6.09 3.39-.01.48.08.96.26 1.4.24.48.6.88 1.05 1.17.67.46 1.39.87 2.13 1.21.9.44 2.04.92 3.43 1.44 2.42.86 4.78 1.9 7.05 3.09 1.64.85 3.13 1.96 4.4 3.3a10.26 10.26 0 0 1 2.26 3.96c.46 1.64.68 3.34.65 5.05 0 4.52-1.7 7.94-5.1 10.26-3.4 2.32-8.2 3.48-14.4 3.48a41.36 41.36 0 0 1-15.73-2.78l2.17-10.52c2.2.87 4.47 1.55 6.79 2.04 2.26.49 4.56.73 6.87.74Zm24.27 9.31v-65.42l12.97-2.1v21.93a26.78 26.78 0 0 1 7.31-1.22c3.16-.1 6.3.43 9.26 1.53a14.4 14.4 0 0 1 5.92 4.3 16.66 16.66 0 0 1 3.13 6.61c.63 2.8.94 5.66.91 8.53v25.84h-12.96v-24.27c0-4.18-.54-7.14-1.61-8.88-1.07-1.74-3.06-2.6-5.96-2.6-1.1 0-2.19.1-3.26.3-1.01.2-1.93.42-2.74.65v34.8H472.2Z" style="fill:#fff;fill-rule:nonzero" transform="matrix(1.02578 0 0 1.02578 -229.65 -205.58)"/>
</svg>
