<svg xmlns="http://www.w3.org/2000/svg" xml:space="preserve" style="fill-rule:evenodd;clip-rule:evenodd;stroke-linecap:round;stroke-miterlimit:3" viewBox="0 0 6000 2427">
  <path d="M0 0h6000v2426.19H0z" style="fill:none"/>
  <path d="M0 0h6000v2426.19H0z" style="fill:#fff"/>
  <path d="m1072.25 717.05-2.63-10.87h-14.73l-2.55 10.87h-12.4l15.24-50.55h14.52l15.24 50.55h-12.69Zm-15.32-19.55h10.65l-5.32-22.32-5.33 22.32ZM1121.85 717.05h-10l-.5-4.89a13.49 13.49 0 0 1-11.75 6.13c-3.55 0-6.23-1.07-8.06-3.21-1.82-2.14-2.73-5.13-2.73-8.97v-27.8h11.52v26.34c0 1.9.3 3.22.91 3.98.61.75 1.55 1.13 2.81 1.13 2.43 0 4.53-1.51 6.28-4.53v-26.91h11.52v38.73ZM1155.18 715.23a16.67 16.67 0 0 1-4.92 2.26c-1.88.53-3.74.8-5.58.8-8.46-.05-12.7-4.72-12.7-14v-17.95h-5.47v-8.02h5.48v-8.39l11.52-1.31v9.7h8.9l-1.24 8.02h-7.66v17.8c0 1.8.3 3.09.87 3.87.59.77 1.51 1.16 2.78 1.16 1.3 0 2.7-.41 4.15-1.24l3.87 7.3ZM1181.73 677.08c3.36 0 5.98 1.02 7.88 3.06 1.9 2.04 2.84 4.91 2.84 8.6v28.3h-11.52v-26.32c0-1.95-.32-3.3-.95-4.05a3.33 3.33 0 0 0-2.7-1.13c-2.33 0-4.57 1.65-6.71 4.96v26.55h-11.52v-54.12l11.52-1.17v20.71c1.6-1.8 3.3-3.14 5.1-4.04 1.8-.9 3.82-1.35 6.06-1.35ZM1223.09 677.08c4.62 0 8.17 1.8 10.65 5.43 2.48 3.62 3.72 8.7 3.72 15.21 0 3.99-.62 7.54-1.86 10.65a16.6 16.6 0 0 1-5.33 7.3 13.2 13.2 0 0 1-8.2 2.62 12.47 12.47 0 0 1-10.14-4.96l-.58 3.72h-10.22v-54.12l11.53-1.24v20.57a12.36 12.36 0 0 1 4.48-3.8c1.83-.92 3.81-1.38 5.95-1.38Zm-4.38 32.82c4.53 0 6.79-4.06 6.79-12.18 0-4.62-.54-7.8-1.6-9.56a5.15 5.15 0 0 0-4.68-2.62c-2.57 0-4.76 1.5-6.56 4.52v16.12a8.44 8.44 0 0 0 2.66 2.74c1.05.65 2.18.98 3.4.98ZM1274.73 705.82c0 1.45.2 2.52.62 3.2.41.69 1.08 1.2 2 1.54l-2.4 7.51a14.2 14.2 0 0 1-5.84-1.57 8.39 8.39 0 0 1-3.5-4.05c-2.53 3.9-6.42 5.84-11.67 5.84-3.84 0-6.9-1.12-9.19-3.36-2.28-2.23-3.43-5.15-3.43-8.75 0-4.23 1.56-7.46 4.67-9.7 3.11-2.24 7.61-3.35 13.5-3.35h3.93v-1.68c0-2.29-.48-3.86-1.46-4.7-.97-.86-2.67-1.28-5.1-1.28-1.27 0-2.8.18-4.6.54-1.8.37-3.64.87-5.54 1.5l-2.63-7.59a44.34 44.34 0 0 1 7.48-2.11 38.2 38.2 0 0 1 7.11-.73c5.55 0 9.6 1.14 12.18 3.43 2.58 2.28 3.87 5.71 3.87 10.28v15.03Zm-17.43 4.23c2.62 0 4.67-1.24 6.12-3.72v-6.86h-2.84c-2.63 0-4.58.46-5.87 1.39-1.3.92-1.94 2.35-1.94 4.3 0 1.56.4 2.76 1.2 3.61.81.85 1.92 1.28 3.33 1.28ZM1296.83 677.08c2.77 0 5.37.41 7.8 1.24 2.44.82 4.57 2 6.42 3.5l-4.23 6.5c-3.16-2-6.34-3-9.55-3-1.51 0-2.66.25-3.47.77-.8.5-1.2 1.22-1.2 2.15 0 .73.18 1.32.55 1.78.36.47 1.1.94 2.22 1.43 1.12.48 2.85 1.07 5.18 1.75 4.04 1.16 7.04 2.68 9 4.56 1.98 1.87 2.96 4.46 2.96 7.76 0 2.63-.75 4.9-2.26 6.82a14.22 14.22 0 0 1-6.2 4.42 23.95 23.95 0 0 1-8.75 1.53c-3.26 0-6.29-.51-9.08-1.53a20.87 20.87 0 0 1-7.11-4.23l5.61-6.28c3.26 2.53 6.69 3.8 10.29 3.8 1.75 0 3.12-.32 4.12-.95 1-.63 1.5-1.53 1.5-2.7 0-.92-.2-1.65-.6-2.19a5.25 5.25 0 0 0-2.25-1.5 52.1 52.1 0 0 0-5.33-1.7c-3.84-1.13-6.7-2.68-8.6-4.68-1.9-1.99-2.85-4.47-2.85-7.44 0-2.23.65-4.24 1.94-6.01a13.09 13.09 0 0 1 5.54-4.23 20.8 20.8 0 0 1 8.35-1.57ZM1352.2 696.92c0 1.6-.07 2.99-.22 4.16h-24c.4 3.25 1.32 5.54 2.77 6.85 1.46 1.32 3.48 1.97 6.06 1.97 1.56 0 3.06-.28 4.52-.84a23.3 23.3 0 0 0 4.74-2.59l4.74 6.42a23.66 23.66 0 0 1-15.1 5.4c-6.27 0-11.08-1.85-14.44-5.54-3.35-3.7-5.03-8.66-5.03-14.88 0-3.94.7-7.48 2.12-10.62a17.25 17.25 0 0 1 6.2-7.44c2.72-1.82 5.98-2.73 9.77-2.73 5.6 0 9.97 1.75 13.13 5.25s4.74 8.36 4.74 14.59Zm-11.3-3.28c-.1-5.94-2.2-8.9-6.28-8.9-2 0-3.54.73-4.63 2.18-1.1 1.46-1.76 3.87-2 7.23h12.9v-.52ZM1410.77 666.5l-1.17 9.2h-12.47v41.35h-11.96v-41.36h-13.06v-9.19h38.66ZM1434.18 677.22c1.41 0 2.7.17 3.87.51l-1.83 11.16a16.3 16.3 0 0 0-3.5-.5c-2.28 0-4.02.78-5.21 2.36-1.2 1.58-2.13 3.96-2.81 7.12v19.18h-11.53v-38.73h10.07l.95 7.51c.87-2.67 2.2-4.78 3.97-6.3a8.96 8.96 0 0 1 6.02-2.3ZM1470.65 705.82c0 1.45.2 2.52.62 3.2.41.69 1.08 1.2 2 1.54l-2.4 7.51a14.2 14.2 0 0 1-5.84-1.57 8.39 8.39 0 0 1-3.5-4.05c-2.53 3.9-6.42 5.84-11.67 5.84-3.84 0-6.9-1.12-9.19-3.36-2.29-2.23-3.43-5.15-3.43-8.75 0-4.23 1.56-7.46 4.67-9.7 3.11-2.24 7.61-3.35 13.5-3.35h3.93v-1.68c0-2.29-.48-3.86-1.46-4.7-.97-.86-2.67-1.28-5.1-1.28-1.27 0-2.8.18-4.6.54-1.8.37-3.64.87-5.54 1.5l-2.63-7.59a44.38 44.38 0 0 1 7.48-2.11c2.55-.49 4.92-.73 7.11-.73 5.55 0 9.6 1.14 12.18 3.43 2.58 2.28 3.87 5.71 3.87 10.28v15.03Zm-17.43 4.23c2.62 0 4.67-1.24 6.12-3.72v-6.86h-2.84c-2.63 0-4.58.46-5.87 1.39-1.3.92-1.94 2.35-1.94 4.3 0 1.56.4 2.76 1.2 3.61.81.85 1.92 1.28 3.33 1.28ZM1502.53 677.08c3.35 0 5.98 1.02 7.88 3.06 1.9 2.04 2.84 4.91 2.84 8.6v28.3h-11.52v-26.32c0-1.95-.3-3.3-.91-4.05-.61-.75-1.52-1.13-2.74-1.13-2.33 0-4.57 1.68-6.71 5.03v26.48h-11.53v-38.73h10.07l.8 4.6a17.45 17.45 0 0 1 5.36-4.38 14.08 14.08 0 0 1 6.46-1.46ZM1535.57 677.08c2.77 0 5.37.41 7.8 1.24 2.44.82 4.58 2 6.42 3.5l-4.23 6.5c-3.16-2-6.34-3-9.55-3-1.51 0-2.66.25-3.47.77-.8.5-1.2 1.22-1.2 2.15 0 .73.18 1.32.55 1.78.36.47 1.1.94 2.22 1.43 1.12.48 2.85 1.07 5.18 1.75 4.04 1.16 7.04 2.68 9 4.56 1.98 1.87 2.96 4.46 2.96 7.76 0 2.63-.75 4.9-2.26 6.82a14.22 14.22 0 0 1-6.2 4.42 23.95 23.95 0 0 1-8.75 1.53c-3.26 0-6.29-.51-9.08-1.53a20.87 20.87 0 0 1-7.11-4.23l5.61-6.28c3.26 2.53 6.69 3.8 10.29 3.8 1.75 0 3.12-.32 4.12-.95 1-.63 1.5-1.53 1.5-2.7 0-.92-.2-1.65-.6-2.19a5.25 5.25 0 0 0-2.25-1.5 52.1 52.1 0 0 0-5.33-1.7c-3.84-1.13-6.7-2.68-8.6-4.68-1.9-1.99-2.85-4.47-2.85-7.44 0-2.23.65-4.24 1.94-6.01a13.09 13.09 0 0 1 5.54-4.23 20.8 20.8 0 0 1 8.35-1.57ZM1587.21 705.82c0 1.45.2 2.52.62 3.2.41.69 1.08 1.2 2 1.54l-2.4 7.51a14.2 14.2 0 0 1-5.84-1.57 8.39 8.39 0 0 1-3.5-4.05c-2.53 3.9-6.42 5.84-11.67 5.84-3.84 0-6.9-1.12-9.19-3.36-2.28-2.23-3.43-5.15-3.43-8.75 0-4.23 1.56-7.46 4.67-9.7 3.11-2.24 7.61-3.35 13.5-3.35h3.93v-1.68c0-2.29-.48-3.86-1.46-4.7-.97-.86-2.67-1.28-5.1-1.28-1.27 0-2.8.18-4.6.54-1.8.37-3.64.87-5.54 1.5l-2.63-7.59a44.34 44.34 0 0 1 7.48-2.11 38.2 38.2 0 0 1 7.11-.73c5.55 0 9.6 1.14 12.18 3.43 2.58 2.28 3.87 5.71 3.87 10.28v15.03Zm-17.43 4.23c2.62 0 4.67-1.24 6.12-3.72v-6.86h-2.84c-2.63 0-4.58.46-5.87 1.39-1.3.92-1.94 2.35-1.94 4.3 0 1.56.4 2.76 1.2 3.61.81.85 1.92 1.28 3.33 1.28ZM1613.18 677.08c2.67 0 5.08.39 7.22 1.16 2.14.78 4.16 1.97 6.05 3.58l-4.95 6.85c-2.44-1.84-4.9-2.77-7.37-2.77-2.58 0-4.52.95-5.84 2.85-1.31 1.9-1.97 4.96-1.97 9.19 0 4.08.66 6.98 1.97 8.68 1.32 1.7 3.21 2.55 5.7 2.55 1.3 0 2.5-.2 3.57-.62a24.91 24.91 0 0 0 3.86-2l5.04 7.14a20.39 20.39 0 0 1-13.06 4.6c-3.94 0-7.34-.84-10.21-2.52a16.96 16.96 0 0 1-6.64-7.07 23.16 23.16 0 0 1-2.33-10.69c0-4.08.77-7.7 2.33-10.87a17.68 17.68 0 0 1 6.64-7.4 18.6 18.6 0 0 1 9.99-2.66ZM1655.63 715.23a16.68 16.68 0 0 1-4.92 2.26c-1.87.53-3.73.8-5.58.8-8.46-.05-12.7-4.72-12.7-14v-17.95h-5.46v-8.02h5.47v-8.39l11.52-1.31v9.7h8.9l-1.24 8.02h-7.66v17.8c0 1.8.3 3.09.88 3.87.58.77 1.5 1.16 2.77 1.16 1.31 0 2.7-.41 4.15-1.24l3.87 7.3ZM1671.02 678.32v38.73h-11.53v-38.73h11.53Zm-5.84-20.43c2 0 3.64.62 4.93 1.86a6.25 6.25 0 0 1 1.93 4.7c0 1.9-.64 3.47-1.93 4.71a6.81 6.81 0 0 1-4.93 1.86c-1.99 0-3.62-.62-4.88-1.86a6.31 6.31 0 0 1-1.9-4.7c0-1.9.63-3.47 1.9-4.7a6.69 6.69 0 0 1 4.88-1.87ZM1696.84 677.08c5.93 0 10.58 1.8 13.93 5.43 3.36 3.62 5.03 8.7 5.03 15.21 0 4.13-.76 7.74-2.3 10.83a16.94 16.94 0 0 1-6.56 7.19c-2.84 1.7-6.21 2.55-10.1 2.55-5.88 0-10.52-1.81-13.9-5.44-3.38-3.62-5.07-8.69-5.07-15.2 0-4.14.77-7.75 2.3-10.84a16.94 16.94 0 0 1 6.57-7.18c2.84-1.7 6.21-2.55 10.1-2.55Zm0 8.46c-2.33 0-4.08.98-5.25 2.95-1.17 1.97-1.75 5.02-1.75 9.16 0 4.23.57 7.31 1.71 9.26a5.7 5.7 0 0 0 5.29 2.92c2.33 0 4.08-.99 5.25-2.96 1.17-1.96 1.75-5.02 1.75-9.15 0-4.23-.57-7.32-1.71-9.26a5.71 5.71 0 0 0-5.29-2.92ZM1745.35 677.08c3.36 0 5.98 1.02 7.88 3.06 1.9 2.04 2.84 4.91 2.84 8.6v28.3h-11.52v-26.32c0-1.95-.3-3.3-.91-4.05-.61-.75-1.52-1.13-2.74-1.13-2.33 0-4.57 1.68-6.71 5.03v26.48h-11.52v-38.73h10.06l.8 4.6a17.43 17.43 0 0 1 5.36-4.38 14.08 14.08 0 0 1 6.46-1.46Z" style="fill:#073b4c;fill-rule:nonzero"/>
  <path d="m364.73 1047.03-3.6-14.9h-20.2l-3.5 14.9h-17l20.9-69.3h19.9l20.9 69.3h-17.4Zm-21-26.8h14.6l-7.3-30.6-7.3 30.6ZM432.73 1047.03h-13.7l-.7-6.7c-3.87 5.6-9.23 8.4-16.1 8.4-4.87 0-8.55-1.47-11.05-4.4-2.5-2.93-3.75-7.03-3.75-12.3v-38.1h15.8v36.1c0 2.6.41 4.42 1.25 5.45.83 1.03 2.11 1.55 3.85 1.55 3.33 0 6.2-2.07 8.6-6.2v-36.9h15.8v53.1ZM478.43 1044.53a22.83 22.83 0 0 1-6.75 3.1c-2.57.73-5.12 1.1-7.65 1.1-11.6-.07-17.4-6.47-17.4-19.2v-24.6h-7.5v-11h7.5v-11.5l15.8-1.8v13.3h12.2l-1.7 11h-10.5v24.4c0 2.47.4 4.23 1.2 5.3.8 1.07 2.07 1.6 3.8 1.6 1.8 0 3.7-.57 5.7-1.7l5.3 10ZM514.83 992.23c4.6 0 8.2 1.4 10.8 4.2 2.6 2.8 3.9 6.74 3.9 11.8v38.8h-15.8v-36.1c0-2.67-.44-4.52-1.3-5.55a4.56 4.56 0 0 0-3.7-1.55c-3.2 0-6.27 2.27-9.2 6.8v36.4h-15.8v-74.2l15.8-1.6v28.4a23.68 23.68 0 0 1 7-5.55 18.3 18.3 0 0 1 8.3-1.85ZM564.43 992.23c3.67 0 6.97.53 9.9 1.6 2.93 1.07 5.7 2.7 8.3 4.9l-6.8 9.4c-3.34-2.53-6.7-3.8-10.1-3.8-3.54 0-6.2 1.3-8 3.9-1.8 2.6-2.7 6.8-2.7 12.6 0 5.6.9 9.57 2.7 11.9 1.8 2.33 4.4 3.5 7.8 3.5 1.8 0 3.43-.28 4.9-.85a34.07 34.07 0 0 0 5.3-2.75l6.9 9.8a27.95 27.95 0 0 1-17.9 6.3c-5.4 0-10.07-1.15-14-3.45a23.24 23.24 0 0 1-9.1-9.7c-2.14-4.17-3.2-9.05-3.2-14.65s1.06-10.57 3.2-14.9a24.23 24.23 0 0 1 9.1-10.15c3.93-2.43 8.5-3.65 13.7-3.65ZM620.43 992.23c4.6 0 8.2 1.4 10.8 4.2 2.6 2.8 3.9 6.74 3.9 11.8v38.8h-15.8v-36.1c0-2.67-.44-4.52-1.3-5.55a4.56 4.56 0 0 0-3.7-1.55c-3.2 0-6.27 2.27-9.2 6.8v36.4h-15.8v-74.2l15.8-1.6v28.4a23.68 23.68 0 0 1 7-5.55 18.3 18.3 0 0 1 8.3-1.85ZM689.23 1031.63c0 2 .28 3.47.85 4.4a5.14 5.14 0 0 0 2.75 2.1l-3.3 10.3c-3.27-.27-5.93-.98-8-2.15a11.49 11.49 0 0 1-4.8-5.55c-3.47 5.33-8.8 8-16 8-5.27 0-9.47-1.53-12.6-4.6-3.13-3.07-4.7-7.07-4.7-12 0-5.8 2.13-10.23 6.4-13.3 4.27-3.07 10.43-4.6 18.5-4.6h5.4v-2.3c0-3.13-.67-5.28-2-6.45s-3.67-1.75-7-1.75c-1.73 0-3.83.25-6.3.75-2.47.5-5 1.18-7.6 2.05l-3.6-10.4a60.94 60.94 0 0 1 10.25-2.9c3.5-.67 6.75-1 9.75-1 7.6 0 13.17 1.57 16.7 4.7 3.53 3.13 5.3 7.83 5.3 14.1v20.6Zm-23.9 5.8c3.6 0 6.4-1.7 8.4-5.1v-9.4h-3.9c-3.6 0-6.28.63-8.05 1.9-1.77 1.27-2.65 3.23-2.65 5.9 0 2.13.55 3.78 1.65 4.95 1.1 1.17 2.62 1.75 4.55 1.75ZM717.63 993.93v53.1h-15.8v-53.1h15.8Zm-8-28c2.73 0 4.98.85 6.75 2.55a8.57 8.57 0 0 1 2.65 6.45c0 2.6-.88 4.75-2.65 6.45a9.34 9.34 0 0 1-6.75 2.55 9.16 9.16 0 0 1-6.7-2.55 8.65 8.65 0 0 1-2.6-6.45c0-2.6.86-4.75 2.6-6.45a9.16 9.16 0 0 1 6.7-2.55ZM761.13 992.23c4.6 0 8.2 1.4 10.8 4.2 2.6 2.8 3.9 6.74 3.9 11.8v38.8h-15.8v-36.1c0-2.67-.42-4.52-1.25-5.55-.83-1.03-2.08-1.55-3.75-1.55-3.2 0-6.27 2.3-9.2 6.9v36.3h-15.8v-53.1h13.8l1.1 6.3a23.92 23.92 0 0 1 7.35-6c2.63-1.33 5.58-2 8.85-2Z" style="fill:#3ab211;fill-rule:nonzero"/>
  <path d="m4859.16 717.05-2.53-10.47h-14.19l-2.46 10.47h-11.94l14.68-48.68h13.98l14.68 48.68h-12.22Zm-14.75-18.82h10.25l-5.12-21.5-5.13 21.5ZM4906.92 717.05h-9.62l-.5-4.7a12.99 12.99 0 0 1-11.3 5.9c-3.42 0-6-1.04-7.76-3.1-1.76-2.06-2.64-4.94-2.64-8.64v-26.76h11.1v25.36c0 1.82.3 3.1.88 3.83.58.72 1.48 1.08 2.7 1.08 2.34 0 4.36-1.45 6.04-4.35v-25.92h11.1v37.3ZM4939.02 715.3a16.04 16.04 0 0 1-4.74 2.17c-1.8.52-3.6.77-5.37.77-8.15-.04-12.23-4.54-12.23-13.48v-17.28h-5.26v-7.73h5.26v-8.08l11.1-1.26v9.34h8.57l-1.2 7.73h-7.37v17.14c0 1.73.28 2.97.84 3.72.57.75 1.46 1.12 2.67 1.12 1.27 0 2.6-.4 4-1.2l3.73 7.03ZM4964.59 678.56c3.23 0 5.76.98 7.59 2.95 1.82 1.97 2.74 4.73 2.74 8.29v27.25h-11.1v-25.36c0-1.87-.3-3.17-.92-3.9a3.2 3.2 0 0 0-2.6-1.08c-2.24 0-4.4 1.59-6.46 4.77v25.57h-11.1v-52.12l11.1-1.12v19.95a16.6 16.6 0 0 1 4.92-3.9c1.73-.87 3.68-1.3 5.83-1.3ZM5005.11 678.56c3.23 0 5.76.98 7.59 2.95 1.82 1.97 2.74 4.73 2.74 8.29v27.25h-11.1v-25.36c0-1.87-.3-3.17-.92-3.9a3.2 3.2 0 0 0-2.6-1.08c-2.24 0-4.4 1.59-6.46 4.77v25.57h-11.1v-52.12l11.1-1.12v19.95a16.61 16.61 0 0 1 4.92-3.9c1.73-.87 3.68-1.3 5.83-1.3ZM5056.32 697.66c0 1.55-.07 2.88-.21 4h-23.1c.36 3.14 1.25 5.35 2.66 6.6 1.4 1.27 3.35 1.9 5.83 1.9 1.5 0 2.95-.26 4.35-.8 1.4-.54 2.93-1.37 4.57-2.5l4.57 6.19a22.79 22.79 0 0 1-14.54 5.2c-6.05 0-10.68-1.79-13.91-5.34-3.23-3.56-4.85-8.34-4.85-14.33 0-3.8.68-7.2 2.04-10.22a16.61 16.61 0 0 1 5.97-7.17 16.52 16.52 0 0 1 9.41-2.63c5.39 0 9.6 1.68 12.64 5.06 3.05 3.37 4.57 8.05 4.57 14.04Zm-10.89-3.16c-.1-5.71-2.1-8.57-6.04-8.57-1.92 0-3.4.7-4.46 2.11-1.05 1.4-1.7 3.72-1.93 6.95h12.43v-.49ZM5091.51 706.23c0 1.4.2 2.44.6 3.1.4.65 1.04 1.14 1.93 1.47l-2.32 7.23c-2.3-.18-4.17-.69-5.62-1.5a8.07 8.07 0 0 1-3.37-3.9c-2.43 3.74-6.18 5.61-11.24 5.61-3.7 0-6.65-1.07-8.85-3.23-2.2-2.15-3.3-4.96-3.3-8.43 0-4.07 1.5-7.18 4.5-9.34 3-2.15 7.32-3.23 12.99-3.23h3.8v-1.61c0-2.2-.48-3.72-1.41-4.53-.94-.82-2.58-1.23-4.92-1.23-1.22 0-2.7.17-4.42.52a45.4 45.4 0 0 0-5.34 1.44l-2.53-7.3a42.69 42.69 0 0 1 7.2-2.04c2.46-.47 4.74-.7 6.85-.7 5.34 0 9.25 1.1 11.73 3.3 2.48 2.2 3.72 5.5 3.72 9.9v14.47Zm-16.79 4.08c2.53 0 4.5-1.2 5.9-3.59v-6.6h-2.74c-2.53 0-4.4.45-5.65 1.34-1.24.89-1.86 2.27-1.86 4.14 0 1.5.38 2.66 1.16 3.48a4.18 4.18 0 0 0 3.2 1.23ZM5133.8 664.93v52.12h-9.83l-.57-4.36a12.35 12.35 0 0 1-10.6 5.55c-4.64 0-8.16-1.78-10.57-5.33-2.41-3.56-3.62-8.43-3.62-14.61 0-3.8.63-7.2 1.9-10.19 1.26-3 3.05-5.34 5.37-7.02a13.2 13.2 0 0 1 7.97-2.53 12 12 0 0 1 8.85 3.51v-18.33l11.1 1.2Zm-17.56 45.17c2.58 0 4.73-1.4 6.46-4.22V689.8a9.97 9.97 0 0 0-2.7-2.4 6.25 6.25 0 0 0-3.13-.77c-2.06 0-3.7.96-4.91 2.88-1.22 1.92-1.83 4.87-1.83 8.85 0 4.36.53 7.4 1.58 9.14a5.01 5.01 0 0 0 4.53 2.6ZM5192.66 668.37l-1.12 8.85h-12.01v39.83H5168v-39.83h-12.58v-8.85h37.23ZM5215.2 678.7c1.36 0 2.6.16 3.72.49l-1.75 10.75c-1.4-.33-2.53-.5-3.38-.5-2.2 0-3.87.77-5.02 2.29-1.14 1.52-2.05 3.8-2.7 6.85v18.47h-11.1v-37.3h9.7l.9 7.24c.85-2.58 2.13-4.6 3.83-6.08a8.63 8.63 0 0 1 5.8-2.21ZM5250.32 706.23c0 1.4.2 2.44.6 3.1.4.65 1.04 1.14 1.93 1.47l-2.32 7.23c-2.3-.18-4.17-.69-5.62-1.5a8.07 8.07 0 0 1-3.37-3.9c-2.44 3.74-6.18 5.61-11.24 5.61-3.7 0-6.65-1.07-8.85-3.23-2.2-2.15-3.3-4.96-3.3-8.43 0-4.07 1.5-7.18 4.5-9.34 3-2.15 7.32-3.23 12.99-3.23h3.8v-1.61c0-2.2-.48-3.72-1.41-4.53-.94-.82-2.58-1.23-4.92-1.23-1.22 0-2.7.17-4.42.52-1.74.35-3.52.83-5.34 1.44l-2.53-7.3a42.7 42.7 0 0 1 7.2-2.04c2.46-.47 4.74-.7 6.85-.7 5.33 0 9.24 1.1 11.73 3.3 2.48 2.2 3.72 5.5 3.72 9.9v14.47Zm-16.79 4.08c2.53 0 4.5-1.2 5.9-3.59v-6.6h-2.74c-2.53 0-4.41.45-5.65 1.34-1.24.89-1.86 2.27-1.86 4.14 0 1.5.38 2.66 1.16 3.48a4.18 4.18 0 0 0 3.2 1.23ZM5281.02 678.56c3.23 0 5.76.98 7.59 2.95 1.82 1.97 2.74 4.73 2.74 8.29v27.25h-11.1v-25.36c0-1.87-.3-3.17-.88-3.9-.59-.72-1.46-1.08-2.63-1.08-2.25 0-4.4 1.61-6.47 4.84v25.5h-11.1v-37.3h9.7l.77 4.43a16.79 16.79 0 0 1 5.16-4.22c1.85-.93 3.92-1.4 6.22-1.4ZM5312.84 678.56c2.67 0 5.17.4 7.52 1.2 2.34.79 4.4 1.91 6.18 3.36l-4.08 6.25a17.1 17.1 0 0 0-9.2-2.88c-1.45 0-2.56.25-3.33.74a2.33 2.33 0 0 0-1.16 2.07c0 .7.17 1.28.52 1.72.35.45 1.07.9 2.15 1.37 1.07.47 2.74 1.03 4.98 1.7 3.89 1.11 6.78 2.58 8.68 4.38 1.9 1.8 2.84 4.3 2.84 7.48 0 2.53-.72 4.72-2.17 6.57a13.69 13.69 0 0 1-5.98 4.25 23.06 23.06 0 0 1-8.42 1.47c-3.14 0-6.06-.49-8.75-1.47a20.08 20.08 0 0 1-6.85-4.08l5.41-6.04c3.14 2.44 6.44 3.66 9.9 3.66 1.69 0 3.01-.3 3.97-.92a2.9 2.9 0 0 0 1.44-2.6c0-.89-.18-1.59-.56-2.1-.37-.52-1.1-1-2.18-1.44-1.07-.45-2.78-1-5.12-1.65-3.7-1.08-6.47-2.58-8.3-4.5a10 10 0 0 1-2.73-7.16c0-2.16.62-4.09 1.86-5.8a12.6 12.6 0 0 1 5.34-4.07c2.32-1 5-1.51 8.04-1.51ZM5362.57 706.23c0 1.4.2 2.44.6 3.1.4.65 1.04 1.14 1.93 1.47l-2.32 7.23c-2.3-.18-4.17-.69-5.62-1.5a8.07 8.07 0 0 1-3.37-3.9c-2.44 3.74-6.18 5.61-11.24 5.61-3.7 0-6.65-1.07-8.85-3.23-2.2-2.15-3.3-4.96-3.3-8.43 0-4.07 1.5-7.18 4.5-9.34 3-2.15 7.32-3.23 12.99-3.23h3.8v-1.61c0-2.2-.48-3.72-1.41-4.53-.94-.82-2.58-1.23-4.92-1.23-1.22 0-2.7.17-4.42.52-1.74.35-3.52.83-5.34 1.44l-2.53-7.3a42.69 42.69 0 0 1 7.2-2.04c2.46-.47 4.74-.7 6.85-.7 5.34 0 9.25 1.1 11.73 3.3 2.48 2.2 3.72 5.5 3.72 9.9v14.47Zm-16.79 4.08c2.53 0 4.5-1.2 5.9-3.59v-6.6h-2.74c-2.53 0-4.41.45-5.65 1.34-1.24.89-1.86 2.27-1.86 4.14 0 1.5.38 2.66 1.16 3.48a4.18 4.18 0 0 0 3.2 1.23ZM5387.57 678.56c2.58 0 4.9.37 6.95 1.12 2.06.75 4 1.9 5.83 3.44l-4.77 6.6c-2.34-1.77-4.7-2.66-7.1-2.66-2.48 0-4.35.91-5.62 2.74-1.26 1.82-1.9 4.77-1.9 8.85 0 3.93.64 6.72 1.9 8.36 1.27 1.63 3.1 2.45 5.48 2.45 1.27 0 2.41-.2 3.44-.6 1.03-.4 2.27-1.04 3.73-1.92l4.84 6.88a19.63 19.63 0 0 1-12.57 4.42c-3.8 0-7.07-.8-9.83-2.42a16.33 16.33 0 0 1-6.4-6.81 22.3 22.3 0 0 1-2.24-10.3c0-3.93.75-7.41 2.24-10.46a17.02 17.02 0 0 1 6.4-7.13 17.9 17.9 0 0 1 9.62-2.56ZM5428.45 715.3a16.03 16.03 0 0 1-4.74 2.17c-1.8.52-3.6.77-5.37.77-8.15-.04-12.23-4.54-12.23-13.48v-17.28h-5.26v-7.73h5.26v-8.08l11.1-1.26v9.34h8.57l-1.2 7.73h-7.37v17.14c0 1.73.28 2.97.85 3.72.56.75 1.45 1.12 2.66 1.12 1.27 0 2.6-.4 4-1.2l3.73 7.03ZM5443.27 679.75v37.3h-11.1v-37.3h11.1Zm-5.62-19.67c1.92 0 3.5.6 4.74 1.8a6.02 6.02 0 0 1 1.86 4.53c0 1.82-.62 3.33-1.86 4.53a6.56 6.56 0 0 1-4.74 1.79c-1.92 0-3.49-.6-4.7-1.8a6.08 6.08 0 0 1-1.83-4.52c0-1.83.6-3.34 1.83-4.53a6.44 6.44 0 0 1 4.7-1.8ZM5468.14 678.56c5.71 0 10.19 1.74 13.42 5.23 3.23 3.49 4.84 8.37 4.84 14.65 0 3.98-.73 7.45-2.21 10.43a16.3 16.3 0 0 1-6.32 6.91 18.6 18.6 0 0 1-9.73 2.46c-5.67 0-10.13-1.74-13.38-5.23-3.26-3.49-4.88-8.37-4.88-14.65 0-3.98.73-7.45 2.21-10.43a16.3 16.3 0 0 1 6.32-6.91 18.6 18.6 0 0 1 9.73-2.46Zm0 8.15a5.5 5.5 0 0 0-5.06 2.84c-1.12 1.9-1.68 4.84-1.68 8.82 0 4.07.55 7.04 1.65 8.92a5.5 5.5 0 0 0 5.09 2.8 5.5 5.5 0 0 0 5.06-2.84c1.12-1.9 1.68-4.83 1.68-8.81 0-4.08-.55-7.05-1.65-8.93a5.5 5.5 0 0 0-5.09-2.8ZM5514.85 678.56c3.23 0 5.76.98 7.58 2.95 1.83 1.97 2.75 4.73 2.75 8.29v27.25h-11.1v-25.36c0-1.87-.3-3.17-.88-3.9-.59-.72-1.46-1.08-2.63-1.08-2.25 0-4.4 1.61-6.47 4.84v25.5H5493v-37.3h9.7l.77 4.43a16.8 16.8 0 0 1 5.16-4.22c1.85-.93 3.93-1.4 6.22-1.4Z" style="fill:#073b4c;fill-rule:nonzero"/>
  <path d="M1879.16 1046.21h-443.87c-17.94 0-32.52 14.8-32.52 33.03v66.08c0 18.23 14.58 33.03 32.52 33.03h443.87M880.64 994.36h443.86c17.95 0 32.52-14.8 32.52-33.03v-66.07c0-18.23-14.57-33.04-32.52-33.04H880.64" style="fill:none;stroke:#b4c4c9;stroke-width:8.33px;stroke-dasharray:8.33,16.67,0,0"/>
  <path d="M1877.41 862.22h-442.96c-17.9 0-32.45 14.8-32.45 33.04v66.07c0 18.23 14.54 33.03 32.45 33.03h442.96" style="fill:none;stroke:#3ab211;stroke-width:12.5px;stroke-linecap:butt;stroke-miterlimit:1"/>
  <path d="M1879.16 822.07c0-6.97-5.66-12.62-12.62-12.62H892.48a12.63 12.63 0 0 0-12.62 12.62v395.52c0 6.97 5.65 12.63 12.62 12.63h974.06c6.96 0 12.62-5.66 12.62-12.63V822.07Z" style="fill:none;stroke:#3ab211;stroke-width:12.5px;stroke-linejoin:round;stroke-miterlimit:1.5"/>
  <path d="M1501.32 918.15v22.4h-5.42v-22.4h5.42Zm-2.75-11.36c1.01 0 1.84.32 2.47.96.64.63.96 1.41.96 2.35 0 .93-.32 1.7-.96 2.33a3.4 3.4 0 0 1-2.47.93c-1 0-1.8-.31-2.44-.93a3.13 3.13 0 0 1-.95-2.33c0-.94.32-1.72.95-2.35a3.3 3.3 0 0 1 2.44-.96ZM1526.7 909.16v31.4h-4.79l-.38-2.84a7.86 7.86 0 0 1-2.69 2.54 7.34 7.34 0 0 1-3.7.93 7.22 7.22 0 0 1-6.32-3.17c-1.47-2.12-2.2-5-2.2-8.65 0-2.28.37-4.32 1.1-6.12a9.65 9.65 0 0 1 3.16-4.21 7.78 7.78 0 0 1 4.76-1.53c2.15 0 4.03.8 5.64 2.42v-11.36l5.42.6Zm-10.04 27.92c.96 0 1.8-.23 2.54-.7a7.21 7.21 0 0 0 2.08-2.18v-10.25a7.76 7.76 0 0 0-1.97-1.78c-.67-.4-1.44-.6-2.31-.6-1.44 0-2.58.65-3.41 1.94-.84 1.28-1.25 3.22-1.25 5.82 0 2.77.37 4.75 1.1 5.95.73 1.2 1.8 1.8 3.22 1.8ZM1551.61 928.82c0 .28-.04 1.02-.13 2.2h-14.06c.17 2.18.73 3.73 1.7 4.67.95.93 2.22 1.4 3.8 1.4 1 0 1.93-.17 2.8-.5.88-.32 1.8-.82 2.8-1.5l2.24 3.1c-2.48 2-5.25 3-8.3 3-3.42 0-6.05-1.04-7.9-3.13-1.85-2.1-2.78-4.94-2.78-8.56 0-2.29.4-4.34 1.19-6.16a9.77 9.77 0 0 1 3.43-4.28 9.18 9.18 0 0 1 5.34-1.55c3.13 0 5.56 1 7.29 2.99 1.72 1.99 2.58 4.76 2.58 8.32Zm-5.38-1.57c0-3.92-1.46-5.88-4.36-5.88a3.7 3.7 0 0 0-3.12 1.46c-.75.97-1.2 2.53-1.33 4.68h8.81v-.26ZM1568.43 917.51c2 0 3.57.6 4.68 1.8 1.12 1.2 1.68 2.88 1.68 5.02v16.23h-5.43v-15.38c0-1.33-.23-2.26-.7-2.8-.46-.53-1.15-.8-2.05-.8-.93 0-1.77.29-2.52.87a9.9 9.9 0 0 0-2.18 2.52v15.59h-5.43v-22.41h4.7l.43 2.92c1.84-2.37 4.1-3.56 6.82-3.56ZM1593.93 939.5c-.8.56-1.67.99-2.65 1.27-.97.28-1.97.42-2.98.42-2.2-.03-3.88-.65-5.02-1.88-1.15-1.23-1.72-3.04-1.72-5.45v-11.82h-3.52v-3.9h3.52v-4.95l5.42-.64v5.6h5.21l-.55 3.9h-4.66v11.69c0 1.1.2 1.89.57 2.37.39.48.99.72 1.8.72.82 0 1.71-.27 2.67-.8l1.91 3.47ZM1602.41 918.15v22.4h-5.42v-22.4h5.42Zm-2.75-11.36c1.01 0 1.84.32 2.48.96.63.63.95 1.41.95 2.35 0 .93-.32 1.7-.95 2.33a3.4 3.4 0 0 1-2.48.93c-1 0-1.8-.31-2.44-.93a3.13 3.13 0 0 1-.95-2.33c0-.94.32-1.72.95-2.35a3.3 3.3 0 0 1 2.44-.96ZM1621.77 939.5c-.8.56-1.67.99-2.65 1.27-.97.28-1.97.42-2.98.42-2.2-.03-3.88-.65-5.03-1.88-1.14-1.23-1.71-3.04-1.71-5.45v-11.82h-3.52v-3.9h3.52v-4.95l5.42-.64v5.6h5.21l-.55 3.9h-4.66v11.69c0 1.1.2 1.89.57 2.37.38.48.99.72 1.8.72.82 0 1.71-.27 2.67-.8l1.91 3.47ZM1635.45 940.64a13.76 13.76 0 0 1-4.1 6.46c-1.84 1.54-4.36 2.44-7.55 2.7l-.55-3.95c1.47-.22 2.65-.54 3.54-.95.89-.4 1.6-.95 2.14-1.63a10.9 10.9 0 0 0 1.48-2.71h-1.86l-7.12-22.41h5.76l4.87 18.8 5.09-18.8h5.59l-7.29 22.5ZM1665.79 917.51c3.3 0 5.88 1.05 7.73 3.16 1.85 2.1 2.78 4.99 2.78 8.66 0 2.35-.43 4.41-1.27 6.2a9.66 9.66 0 0 1-3.65 4.18 10.42 10.42 0 0 1-5.63 1.48c-3.3 0-5.9-1.05-7.76-3.15-1.86-2.1-2.8-5-2.8-8.7 0-2.35.43-4.42 1.28-6.2a9.64 9.64 0 0 1 3.66-4.15c1.6-.98 3.48-1.48 5.66-1.48Zm0 4.11c-3.25 0-4.87 2.57-4.87 7.71 0 2.66.4 4.61 1.2 5.87a4.01 4.01 0 0 0 3.63 1.88 4 4 0 0 0 3.62-1.9c.8-1.27 1.2-3.22 1.2-5.85 0-2.62-.4-4.57-1.2-5.82-.8-1.26-2-1.89-3.58-1.89ZM1699.3 940.56h-4.7l-.3-3.14a8.29 8.29 0 0 1-2.9 2.84 8.02 8.02 0 0 1-3.96.93c-2 0-3.55-.61-4.64-1.84-1.09-1.23-1.63-2.93-1.63-5.1v-16.1h5.42v15.42c0 1.27.22 2.17.66 2.7.43.55 1.13.81 2.1.81 1.72 0 3.23-1.05 4.53-3.17v-15.76h5.42v22.4ZM1718.66 939.5c-.79.56-1.67.99-2.65 1.27-.97.28-1.97.42-2.98.42-2.2-.03-3.88-.65-5.02-1.88-1.15-1.23-1.72-3.04-1.72-5.45v-11.82h-3.52v-3.9h3.52v-4.95l5.42-.64v5.6h5.21l-.55 3.9h-4.66v11.69c0 1.1.2 1.89.57 2.37.39.48.99.72 1.8.72.82 0 1.71-.27 2.67-.8l1.91 3.47ZM1733.32 917.51c2.82 0 4.91 1.03 6.27 3.1 1.35 2.06 2.03 4.95 2.03 8.68 0 2.31-.34 4.37-1.04 6.16-.69 1.8-1.7 3.2-3.05 4.22a7.66 7.66 0 0 1-4.76 1.52 6.99 6.99 0 0 1-5.64-2.45v10.46l-5.42.6v-31.65h4.75l.3 2.75a8.78 8.78 0 0 1 3-2.54 7.86 7.86 0 0 1 3.56-.85Zm-2.08 19.53c3.14 0 4.7-2.57 4.7-7.7 0-2.75-.35-4.73-1.05-5.94a3.45 3.45 0 0 0-3.18-1.82c-.9 0-1.75.27-2.54.82a7.2 7.2 0 0 0-2.04 2.23v10.08a4.76 4.76 0 0 0 4.11 2.33ZM1764.88 940.56h-4.7l-.3-3.14a8.3 8.3 0 0 1-2.9 2.84 8.02 8.02 0 0 1-3.96.93c-2 0-3.55-.61-4.64-1.84-1.09-1.23-1.63-2.93-1.63-5.1v-16.1h5.42v15.42c0 1.27.22 2.17.66 2.7.44.55 1.13.81 2.1.81 1.72 0 3.23-1.05 4.53-3.17v-15.76h5.42v22.4ZM1784.24 939.5c-.8.56-1.67.99-2.65 1.27-.97.28-1.97.42-2.98.42-2.2-.03-3.88-.65-5.02-1.88-1.15-1.23-1.72-3.04-1.72-5.45v-11.82h-3.52v-3.9h3.52v-4.95l5.42-.64v5.6h5.21l-.55 3.9h-4.66v11.69c0 1.1.2 1.89.57 2.37.39.48.99.72 1.8.72.82 0 1.71-.27 2.67-.8l1.91 3.47Z" style="fill:#073b4c;fill-rule:nonzero"/>
  <path d="M1519.53 1100.56c3.3 0 5.88 1.05 7.73 3.16 1.85 2.1 2.78 4.99 2.78 8.66 0 2.34-.43 4.41-1.27 6.2a9.65 9.65 0 0 1-3.65 4.18 10.42 10.42 0 0 1-5.63 1.48c-3.3 0-5.9-1.05-7.75-3.15-1.87-2.1-2.8-5.01-2.8-8.71 0-2.34.42-4.4 1.27-6.18a9.63 9.63 0 0 1 3.66-4.16c1.6-.99 3.49-1.48 5.66-1.48Zm0 4.11c-3.25 0-4.87 2.57-4.87 7.71 0 2.65.4 4.61 1.2 5.87a4.01 4.01 0 0 0 3.63 1.88 4 4 0 0 0 3.62-1.9c.8-1.27 1.2-3.22 1.2-5.85 0-2.63-.4-4.57-1.2-5.83-.8-1.25-2-1.88-3.58-1.88ZM1547.96 1122.55c-.8.56-1.67.99-2.65 1.27-.97.28-1.97.42-2.98.42-2.2-.02-3.88-.65-5.02-1.88-1.15-1.23-1.72-3.04-1.72-5.44v-11.83h-3.52v-3.9h3.52v-4.95l5.42-.64v5.6h5.21l-.55 3.9h-4.66v11.69c0 1.1.2 1.89.57 2.37.39.48.99.72 1.8.72.82 0 1.71-.27 2.67-.8l1.91 3.47ZM1562.95 1100.56c1.98 0 3.53.6 4.66 1.82 1.13 1.22 1.7 2.88 1.7 5v16.23h-5.43v-15.38c0-1.33-.23-2.26-.7-2.8-.46-.53-1.15-.8-2.05-.8-.9 0-1.74.29-2.5.87a9.9 9.9 0 0 0-2.2 2.47v15.64H1551v-31.35l5.43-.55v12.16c1.8-2.2 3.98-3.31 6.52-3.31ZM1594.01 1111.88c0 .28-.04 1.02-.13 2.2h-14.06c.17 2.18.73 3.73 1.7 4.66.95.94 2.22 1.4 3.8 1.4 1 0 1.93-.16 2.8-.49.88-.32 1.8-.82 2.8-1.5l2.24 3.1c-2.48 2-5.25 3-8.3 3-3.42 0-6.05-1.04-7.9-3.13-1.85-2.1-2.78-4.95-2.78-8.56 0-2.29.4-4.34 1.19-6.17a9.78 9.78 0 0 1 3.43-4.27 9.18 9.18 0 0 1 5.34-1.55c3.13 0 5.56 1 7.29 2.99 1.72 1.99 2.58 4.76 2.58 8.32Zm-5.38-1.57c0-3.92-1.46-5.89-4.36-5.89a3.7 3.7 0 0 0-3.12 1.47c-.75.97-1.2 2.53-1.33 4.68h8.8v-.26ZM1609.94 1100.61c.82 0 1.57.1 2.25.3l-.94 5.25a8.2 8.2 0 0 0-1.99-.26c-1.33 0-2.37.48-3.13 1.42-.77.95-1.37 2.4-1.82 4.35v11.94h-5.43v-22.4h4.7l.51 4.4a8.05 8.05 0 0 1 2.33-3.7 5.28 5.28 0 0 1 3.52-1.3ZM1635.74 1100.56c3.3 0 5.88 1.05 7.73 3.16 1.85 2.1 2.78 4.99 2.78 8.66 0 2.34-.43 4.41-1.27 6.2a9.66 9.66 0 0 1-3.65 4.18 10.42 10.42 0 0 1-5.63 1.48c-3.3 0-5.9-1.05-7.76-3.15-1.86-2.1-2.8-5.01-2.8-8.71 0-2.34.43-4.4 1.28-6.18a9.62 9.62 0 0 1 3.66-4.16c1.6-.99 3.49-1.48 5.66-1.48Zm0 4.11c-3.25 0-4.87 2.57-4.87 7.71 0 2.65.4 4.61 1.2 5.87a4.01 4.01 0 0 0 3.63 1.88 4 4 0 0 0 3.62-1.9c.8-1.27 1.2-3.22 1.2-5.85 0-2.63-.4-4.57-1.2-5.83-.8-1.25-2-1.88-3.58-1.88ZM1669.25 1123.61h-4.7l-.3-3.13a8.28 8.28 0 0 1-2.9 2.83 8 8 0 0 1-3.96.93c-2 0-3.55-.6-4.64-1.84-1.09-1.23-1.63-2.93-1.63-5.1v-16.1h5.42v15.42c0 1.27.22 2.17.66 2.71.43.54 1.13.8 2.1.8 1.72 0 3.23-1.05 4.53-3.17v-15.76h5.42v22.41ZM1688.61 1122.55c-.79.56-1.67.99-2.65 1.27-.97.28-1.97.42-2.98.42-2.2-.02-3.88-.65-5.03-1.88-1.14-1.23-1.71-3.04-1.71-5.44v-11.83h-3.52v-3.9h3.52v-4.95l5.42-.64v5.6h5.21l-.55 3.9h-4.66v11.69c0 1.1.2 1.89.57 2.37.39.48.99.72 1.8.72.82 0 1.71-.27 2.67-.8l1.91 3.47ZM1703.27 1100.56c2.82 0 4.91 1.03 6.27 3.1 1.35 2.05 2.03 4.95 2.03 8.68 0 2.31-.34 4.37-1.04 6.16-.69 1.8-1.7 3.2-3.05 4.22a7.66 7.66 0 0 1-4.76 1.52 7 7 0 0 1-5.64-2.46v10.47l-5.42.6v-31.65h4.75l.3 2.75a8.78 8.78 0 0 1 3-2.54 7.86 7.86 0 0 1 3.56-.85Zm-2.08 19.53c3.14 0 4.7-2.57 4.7-7.71 0-2.74-.35-4.72-1.05-5.93a3.45 3.45 0 0 0-3.18-1.82c-.9 0-1.75.27-2.54.82-.8.55-1.47 1.3-2.04 2.23v10.08a4.76 4.76 0 0 0 4.11 2.33ZM1734.83 1123.61h-4.7l-.3-3.13a8.29 8.29 0 0 1-2.9 2.83 8 8 0 0 1-3.96.93c-2 0-3.55-.6-4.64-1.84-1.09-1.23-1.63-2.93-1.63-5.1v-16.1h5.42v15.42c0 1.27.22 2.17.66 2.71.43.54 1.13.8 2.1.8 1.72 0 3.23-1.05 4.53-3.17v-15.76h5.42v22.41ZM1754.19 1122.55c-.8.56-1.67.99-2.65 1.27-.97.28-1.97.42-2.98.42-2.2-.02-3.88-.65-5.02-1.88-1.15-1.23-1.72-3.04-1.72-5.44v-11.83h-3.52v-3.9h3.52v-4.95l5.42-.64v5.6h5.21l-.55 3.9h-4.66v11.69c0 1.1.2 1.89.57 2.37.39.48.99.72 1.8.72.82 0 1.71-.27 2.67-.8l1.91 3.47ZM1764.32 1100.56c3.02 0 5.68.89 7.96 2.67l-2.11 3.18a10.52 10.52 0 0 0-5.64-1.82c-1.07 0-1.9.2-2.5.6-.6.42-.89.96-.89 1.64 0 .5.13.93.38 1.27.26.34.72.66 1.38.95.66.3 1.65.63 2.94 1 2.43.65 4.24 1.51 5.4 2.58 1.18 1.08 1.77 2.57 1.77 4.5 0 2.23-.9 3.97-2.72 5.23a11.52 11.52 0 0 1-6.73 1.88c-1.84 0-3.51-.28-5.02-.84a12.18 12.18 0 0 1-3.92-2.33l2.71-3.05a10 10 0 0 0 6.1 2.2c1.21 0 2.18-.24 2.9-.72a2.27 2.27 0 0 0 1.08-2c0-.64-.13-1.16-.4-1.54a3.32 3.32 0 0 0-1.44-1.02c-.7-.3-1.77-.65-3.24-1.08-2.29-.62-3.97-1.49-5.04-2.6a5.78 5.78 0 0 1-1.61-4.18c0-1.24.36-2.35 1.08-3.34a7.16 7.16 0 0 1 3.05-2.33c1.31-.57 2.81-.85 4.51-.85ZM1007.92 918.15v22.4h-5.42v-22.4h5.42Zm-2.75-11.36c1.01 0 1.84.32 2.47.96.64.63.96 1.41.96 2.35 0 .93-.32 1.7-.96 2.33a3.4 3.4 0 0 1-2.47.93c-1 0-1.8-.31-2.44-.93a3.12 3.12 0 0 1-.95-2.33c0-.94.31-1.72.95-2.35a3.3 3.3 0 0 1 2.44-.96ZM1026.39 917.51c2 0 3.57.6 4.68 1.8 1.12 1.2 1.68 2.88 1.68 5.02v16.23h-5.43v-15.38c0-1.33-.23-2.26-.7-2.8-.46-.53-1.15-.8-2.05-.8-.93 0-1.77.29-2.52.87a9.9 9.9 0 0 0-2.18 2.52v15.59h-5.43v-22.41h4.7l.43 2.92c1.83-2.37 4.1-3.56 6.82-3.56ZM1050.66 917.51c2.82 0 4.91 1.03 6.27 3.1 1.36 2.06 2.03 4.95 2.03 8.68 0 2.31-.34 4.37-1.03 6.16-.7 1.8-1.71 3.2-3.05 4.22a7.66 7.66 0 0 1-4.77 1.52 6.99 6.99 0 0 1-5.63-2.45v10.46l-5.43.6v-31.65h4.75l.3 2.75a8.78 8.78 0 0 1 3-2.54 7.86 7.86 0 0 1 3.56-.85Zm-2.08 19.53c3.14 0 4.7-2.57 4.7-7.7 0-2.75-.35-4.73-1.05-5.94a3.45 3.45 0 0 0-3.18-1.82c-.9 0-1.75.27-2.54.82a7.21 7.21 0 0 0-2.03 2.23v10.08a4.76 4.76 0 0 0 4.1 2.33ZM1082.22 940.56h-4.7l-.3-3.14a8.29 8.29 0 0 1-2.9 2.84 8.02 8.02 0 0 1-3.96.93c-2 0-3.55-.61-4.64-1.84-1.09-1.23-1.63-2.93-1.63-5.1v-16.1h5.42v15.42c0 1.27.22 2.17.66 2.7.43.55 1.13.81 2.1.81 1.72 0 3.23-1.05 4.53-3.17v-15.76h5.42v22.4ZM1101.59 939.5c-.8.56-1.67.99-2.65 1.27-.97.28-1.97.42-2.98.42-2.2-.03-3.88-.65-5.03-1.88-1.14-1.23-1.71-3.04-1.71-5.45v-11.82h-3.52v-3.9h3.52v-4.95l5.42-.64v5.6h5.21l-.55 3.9h-4.66v11.69c0 1.1.2 1.89.57 2.37.38.48.99.72 1.8.72.82 0 1.71-.27 2.67-.8l1.91 3.47ZM1111.71 917.51c3.02 0 5.68.9 7.96 2.67l-2.11 3.18a10.53 10.53 0 0 0-5.64-1.82c-1.07 0-1.9.2-2.5.61-.59.41-.89.95-.89 1.63 0 .51.13.93.38 1.27.26.34.72.66 1.38.96.66.3 1.65.62 2.95 1 2.42.64 4.22 1.5 5.4 2.57 1.17 1.08 1.75 2.58 1.75 4.5 0 2.23-.9 3.97-2.7 5.23a11.52 11.52 0 0 1-6.74 1.88c-1.84 0-3.51-.28-5.02-.84a12.17 12.17 0 0 1-3.92-2.33l2.71-3.05a10 10 0 0 0 6.1 2.2c1.21 0 2.18-.24 2.9-.72a2.27 2.27 0 0 0 1.08-2c0-.64-.13-1.16-.4-1.54a3.33 3.33 0 0 0-1.44-1.02c-.7-.3-1.77-.65-3.24-1.08-2.29-.62-3.97-1.49-5.04-2.6a5.78 5.78 0 0 1-1.61-4.17c0-1.25.36-2.36 1.08-3.35a7.16 7.16 0 0 1 3.05-2.33c1.31-.57 2.82-.85 4.51-.85Z" style="fill:#b4c4c9;fill-rule:nonzero"/>
  <path d="M4411.3 1750.96h-443.87c-17.94 0-32.52 14.8-32.52 33.03v66.08c0 18.23 14.58 33.03 32.52 33.03h443.87M3412.78 1699.11h443.87c17.95 0 32.52-14.8 32.52-33.03V1600c0-18.23-14.57-33.03-32.52-33.03h-443.87" style="fill:none;stroke:#b4c4c9;stroke-width:8.33px;stroke-dasharray:8.33,16.67,0,0"/>
  <path d="M4409.55 1566.97h-442.96c-17.9 0-32.45 14.8-32.45 33.03v66.08c0 18.23 14.54 33.03 32.45 33.03h442.96" style="fill:none;stroke:#3ab211;stroke-width:12.5px;stroke-linecap:butt;stroke-miterlimit:1"/>
  <path d="M4411.3 1526.82c0-6.97-5.66-12.62-12.62-12.62h-974.06a12.63 12.63 0 0 0-12.62 12.62v395.52c0 6.97 5.65 12.62 12.62 12.62h974.06c6.96 0 12.62-5.65 12.62-12.62v-395.52Z" style="fill:none;stroke:#3ab211;stroke-width:12.5px;stroke-linejoin:round;stroke-miterlimit:1.5"/>
  <path d="M4033.46 1622.9v22.41h-5.42v-22.41h5.42Zm-2.75-11.35c1.01 0 1.84.31 2.48.95.63.64.95 1.42.95 2.35 0 .93-.32 1.7-.95 2.33a3.4 3.4 0 0 1-2.48.93c-1 0-1.8-.3-2.44-.93a3.13 3.13 0 0 1-.95-2.33c0-.93.31-1.71.95-2.35a3.3 3.3 0 0 1 2.44-.95ZM4058.84 1613.91v31.4h-4.79l-.38-2.84a7.86 7.86 0 0 1-2.69 2.54 7.34 7.34 0 0 1-3.7.93 7.22 7.22 0 0 1-6.32-3.18c-1.47-2.12-2.2-5-2.2-8.64 0-2.29.37-4.33 1.1-6.12a9.65 9.65 0 0 1 3.16-4.22 7.78 7.78 0 0 1 4.76-1.52c2.15 0 4.03.8 5.64 2.41v-11.35l5.42.59Zm-10.04 27.92c.96 0 1.8-.23 2.54-.7a7.21 7.21 0 0 0 2.08-2.18v-10.25a7.76 7.76 0 0 0-1.97-1.78c-.67-.4-1.44-.6-2.31-.6-1.44 0-2.58.65-3.41 1.93-.83 1.29-1.25 3.23-1.25 5.83 0 2.76.37 4.75 1.1 5.95.73 1.2 1.8 1.8 3.22 1.8ZM4083.75 1633.57c0 .28-.04 1.02-.13 2.2h-14.06c.17 2.18.73 3.73 1.7 4.66.95.93 2.22 1.4 3.8 1.4 1 0 1.93-.16 2.8-.49.88-.32 1.8-.82 2.8-1.5l2.24 3.1c-2.48 2-5.25 3-8.3 3-3.42 0-6.05-1.04-7.9-3.13-1.85-2.1-2.78-4.95-2.78-8.56 0-2.29.4-4.34 1.19-6.17a9.78 9.78 0 0 1 3.43-4.27 9.18 9.18 0 0 1 5.34-1.55c3.13 0 5.56 1 7.29 2.99 1.72 1.99 2.58 4.76 2.58 8.32Zm-5.38-1.57c0-3.92-1.45-5.89-4.36-5.89a3.7 3.7 0 0 0-3.12 1.47c-.75.97-1.2 2.53-1.33 4.68h8.81v-.26ZM4100.57 1622.26c2 0 3.57.6 4.68 1.8 1.12 1.2 1.67 2.87 1.67 5.02v16.23h-5.42v-15.38c0-1.33-.23-2.26-.7-2.8-.46-.53-1.15-.8-2.05-.8-.93 0-1.77.29-2.52.87a9.91 9.91 0 0 0-2.18 2.52v15.59h-5.43v-22.41h4.7l.43 2.92c1.84-2.37 4.1-3.56 6.82-3.56ZM4126.07 1644.25c-.79.56-1.67.99-2.65 1.27-.97.28-1.97.42-2.98.42-2.2-.02-3.88-.65-5.02-1.88-1.15-1.23-1.72-3.04-1.72-5.44v-11.82h-3.52v-3.9h3.52v-4.96l5.42-.63v5.59h5.21l-.55 3.9h-4.66v11.69c0 1.1.2 1.9.57 2.37.39.48.99.72 1.8.72.82 0 1.71-.27 2.67-.8l1.91 3.47ZM4134.55 1622.9v22.41h-5.42v-22.41h5.42Zm-2.75-11.35c1.01 0 1.84.31 2.48.95.63.64.95 1.42.95 2.35 0 .93-.32 1.7-.95 2.33a3.4 3.4 0 0 1-2.48.93c-1 0-1.8-.3-2.44-.93a3.13 3.13 0 0 1-.95-2.33c0-.93.32-1.71.95-2.35a3.3 3.3 0 0 1 2.44-.95ZM4153.91 1644.25c-.8.56-1.67.99-2.65 1.27-.97.28-1.97.42-2.98.42-2.2-.02-3.88-.65-5.02-1.88-1.15-1.23-1.72-3.04-1.72-5.44v-11.82h-3.52v-3.9h3.52v-4.96l5.42-.63v5.59h5.21l-.55 3.9h-4.66v11.69c0 1.1.2 1.9.57 2.37.39.48.99.72 1.8.72.82 0 1.71-.27 2.67-.8l1.91 3.47ZM4167.59 1645.39a13.76 13.76 0 0 1-4.1 6.46c-1.85 1.54-4.36 2.44-7.55 2.7l-.55-3.95c1.47-.22 2.65-.54 3.54-.95.89-.41 1.6-.96 2.14-1.63.53-.68 1.03-1.58 1.48-2.71h-1.87l-7.11-22.42h5.76l4.87 18.81 5.08-18.8h5.6l-7.29 22.49ZM4197.93 1622.26c3.3 0 5.88 1.05 7.73 3.16 1.85 2.1 2.78 4.99 2.78 8.66 0 2.34-.43 4.41-1.27 6.2a9.65 9.65 0 0 1-3.65 4.18 10.42 10.42 0 0 1-5.63 1.48c-3.3 0-5.9-1.05-7.76-3.15-1.86-2.1-2.8-5.01-2.8-8.71 0-2.34.43-4.4 1.28-6.18a9.64 9.64 0 0 1 3.66-4.16c1.6-.98 3.48-1.48 5.66-1.48Zm0 4.11c-3.25 0-4.87 2.57-4.87 7.71 0 2.65.4 4.61 1.2 5.87a4.02 4.02 0 0 0 3.63 1.88 4 4 0 0 0 3.62-1.9c.8-1.27 1.2-3.22 1.2-5.85 0-2.63-.4-4.57-1.2-5.83-.8-1.25-2-1.88-3.58-1.88ZM4231.44 1645.31h-4.7l-.3-3.13a8.3 8.3 0 0 1-2.9 2.83 8.02 8.02 0 0 1-3.96.94c-2 0-3.55-.62-4.64-1.85-1.09-1.23-1.63-2.93-1.63-5.1v-16.1h5.42v15.42c0 1.27.22 2.17.66 2.71.43.54 1.13.8 2.1.8 1.72 0 3.23-1.05 4.53-3.17v-15.76h5.42v22.41ZM4250.8 1644.25c-.8.56-1.67.99-2.65 1.27-.97.28-1.97.42-2.98.42-2.2-.02-3.88-.65-5.03-1.88-1.14-1.23-1.71-3.04-1.71-5.44v-11.82h-3.52v-3.9h3.52v-4.96l5.42-.63v5.59h5.21l-.55 3.9h-4.66v11.69c0 1.1.2 1.9.57 2.37.38.48.98.72 1.8.72.82 0 1.71-.27 2.67-.8l1.91 3.47ZM4265.45 1622.26c2.82 0 4.91 1.03 6.27 3.1 1.36 2.06 2.03 4.95 2.03 8.68 0 2.31-.34 4.37-1.03 6.16-.7 1.8-1.71 3.2-3.05 4.22a7.66 7.66 0 0 1-4.77 1.52 7 7 0 0 1-5.63-2.46v10.47l-5.43.6v-31.65h4.75l.3 2.75a8.8 8.8 0 0 1 3-2.54 7.86 7.86 0 0 1 3.56-.85Zm-2.08 19.53c3.14 0 4.7-2.57 4.7-7.71 0-2.74-.35-4.72-1.05-5.93a3.45 3.45 0 0 0-3.18-1.82c-.9 0-1.75.27-2.54.82-.8.55-1.47 1.3-2.04 2.23v10.08a4.76 4.76 0 0 0 4.11 2.33ZM4297.02 1645.31h-4.7l-.3-3.13a8.29 8.29 0 0 1-2.9 2.83 8.02 8.02 0 0 1-3.96.94c-2 0-3.55-.62-4.64-1.85-1.09-1.23-1.63-2.93-1.63-5.1v-16.1h5.42v15.42c0 1.27.22 2.17.66 2.71.43.54 1.13.8 2.1.8 1.72 0 3.23-1.05 4.53-3.17v-15.76h5.42v22.41ZM4316.38 1644.25c-.8.56-1.67.99-2.65 1.27-.97.28-1.97.42-2.98.42-2.2-.02-3.88-.65-5.03-1.88-1.14-1.23-1.71-3.04-1.71-5.44v-11.82h-3.52v-3.9h3.52v-4.96l5.42-.63v5.59h5.21l-.55 3.9h-4.66v11.69c0 1.1.2 1.9.57 2.37.38.48.98.72 1.8.72.82 0 1.71-.27 2.67-.8l1.91 3.47Z" style="fill:#073b4c;fill-rule:nonzero"/>
  <path d="M4051.67 1805.31c3.3 0 5.88 1.05 7.73 3.16 1.85 2.1 2.78 4.99 2.78 8.66 0 2.34-.43 4.41-1.27 6.2a9.66 9.66 0 0 1-3.65 4.18 10.42 10.42 0 0 1-5.63 1.48c-3.3 0-5.9-1.05-7.75-3.15-1.87-2.1-2.8-5.01-2.8-8.71 0-2.34.42-4.4 1.27-6.18a9.62 9.62 0 0 1 3.66-4.16c1.6-.99 3.49-1.48 5.66-1.48Zm0 4.11c-3.25 0-4.87 2.57-4.87 7.71 0 2.65.4 4.61 1.2 5.87a4.02 4.02 0 0 0 3.63 1.88 4 4 0 0 0 3.62-1.9c.8-1.27 1.2-3.22 1.2-5.85 0-2.63-.4-4.57-1.2-5.83-.8-1.25-2-1.88-3.58-1.88ZM4080.1 1827.3c-.8.56-1.67.99-2.65 1.27-.97.28-1.97.42-2.99.42-2.2-.02-3.87-.65-5.02-1.88-1.14-1.23-1.71-3.04-1.71-5.44v-11.83h-3.52v-3.9h3.52V1801l5.42-.64v5.6h5.21l-.55 3.9h-4.66v11.69c0 1.1.2 1.89.57 2.37.38.48.98.72 1.8.72.82 0 1.71-.27 2.67-.8l1.91 3.47ZM4095.09 1805.31c1.98 0 3.53.6 4.66 1.82 1.13 1.22 1.7 2.88 1.7 5v16.23h-5.43v-15.38c0-1.33-.23-2.26-.7-2.8-.46-.53-1.15-.8-2.05-.8-.9 0-1.74.29-2.5.87a9.9 9.9 0 0 0-2.2 2.47v15.64h-5.43V1797l5.43-.55v12.16c1.8-2.2 3.98-3.31 6.52-3.31ZM4126.15 1816.62c0 .28-.04 1.02-.13 2.2h-14.06c.17 2.18.73 3.73 1.7 4.66.95.93 2.22 1.4 3.8 1.4 1 0 1.93-.16 2.8-.49.88-.32 1.8-.82 2.8-1.5l2.24 3.1c-2.48 2-5.25 3-8.3 3-3.42 0-6.05-1.04-7.9-3.13-1.85-2.1-2.78-4.95-2.78-8.56 0-2.29.4-4.34 1.19-6.17a9.78 9.78 0 0 1 3.43-4.28 9.18 9.18 0 0 1 5.34-1.54c3.13 0 5.56 1 7.29 2.99 1.72 1.99 2.58 4.76 2.58 8.32Zm-5.38-1.57c0-3.92-1.46-5.89-4.36-5.89a3.7 3.7 0 0 0-3.12 1.46c-.75.98-1.2 2.54-1.33 4.69h8.81v-.26ZM4142.07 1805.36a8 8 0 0 1 2.25.3l-.94 5.25a8.22 8.22 0 0 0-1.99-.26c-1.33 0-2.37.48-3.13 1.42-.77.95-1.37 2.4-1.82 4.35v11.94H4131v-22.4h4.7l.51 4.4a8.06 8.06 0 0 1 2.33-3.7 5.28 5.28 0 0 1 3.52-1.3ZM4167.88 1805.31c3.3 0 5.88 1.05 7.73 3.16 1.85 2.1 2.78 4.99 2.78 8.66 0 2.34-.43 4.41-1.28 6.2a9.65 9.65 0 0 1-3.64 4.18 10.42 10.42 0 0 1-5.63 1.48c-3.3 0-5.9-1.05-7.76-3.15-1.86-2.1-2.8-5.01-2.8-8.71 0-2.34.43-4.4 1.28-6.18a9.63 9.63 0 0 1 3.66-4.16c1.6-.99 3.48-1.48 5.66-1.48Zm0 4.11c-3.25 0-4.87 2.57-4.87 7.71 0 2.65.4 4.61 1.2 5.87a4.01 4.01 0 0 0 3.63 1.88 4 4 0 0 0 3.62-1.9c.8-1.27 1.2-3.22 1.2-5.85 0-2.63-.4-4.57-1.2-5.83-.8-1.25-2-1.88-3.58-1.88ZM4201.39 1828.36h-4.7l-.3-3.13a8.3 8.3 0 0 1-2.9 2.83 8.01 8.01 0 0 1-3.96.93c-2 0-3.55-.6-4.64-1.84-1.09-1.23-1.63-2.93-1.63-5.1v-16.1h5.42v15.42c0 1.27.22 2.17.66 2.71.43.54 1.13.8 2.1.8 1.72 0 3.23-1.05 4.53-3.17v-15.76h5.42v22.41ZM4220.75 1827.3c-.8.56-1.67.99-2.65 1.27-.97.28-1.97.42-2.99.42-2.2-.02-3.87-.65-5.01-1.88-1.15-1.23-1.72-3.04-1.72-5.44v-11.83h-3.52v-3.9h3.52V1801l5.42-.64v5.6h5.21l-.55 3.9h-4.66v11.69c0 1.1.2 1.89.57 2.37.38.48.98.72 1.8.72.82 0 1.71-.27 2.67-.8l1.91 3.47ZM4235.41 1805.31c2.82 0 4.91 1.03 6.27 3.1 1.36 2.05 2.03 4.95 2.03 8.68 0 2.31-.34 4.37-1.03 6.16-.7 1.8-1.71 3.2-3.05 4.22a7.66 7.66 0 0 1-4.77 1.52 6.99 6.99 0 0 1-5.63-2.46V1837l-5.43.6v-31.65h4.75l.3 2.75a8.78 8.78 0 0 1 3-2.54 7.86 7.86 0 0 1 3.56-.85Zm-2.08 19.53c3.14 0 4.7-2.57 4.7-7.71 0-2.74-.35-4.72-1.05-5.93a3.45 3.45 0 0 0-3.18-1.82c-.9 0-1.75.27-2.54.82a7.2 7.2 0 0 0-2.04 2.23v10.08a4.76 4.76 0 0 0 4.11 2.33ZM4266.97 1828.36h-4.7l-.3-3.13a8.28 8.28 0 0 1-2.9 2.83 8 8 0 0 1-3.96.93c-2 0-3.55-.6-4.64-1.84-1.09-1.23-1.63-2.93-1.63-5.1v-16.1h5.42v15.42c0 1.27.22 2.17.66 2.71.43.54 1.13.8 2.1.8 1.72 0 3.23-1.05 4.53-3.17v-15.76h5.42v22.41ZM4286.33 1827.3c-.8.56-1.67.99-2.65 1.27-.97.28-1.97.42-2.99.42-2.2-.02-3.87-.65-5.01-1.88-1.15-1.23-1.72-3.04-1.72-5.44v-11.83h-3.52v-3.9h3.52V1801l5.42-.64v5.6h5.21l-.55 3.9h-4.66v11.69c0 1.1.2 1.89.57 2.37.38.48.98.72 1.8.72.82 0 1.71-.27 2.67-.8l1.91 3.47ZM4296.45 1805.31c3.02 0 5.68.89 7.96 2.67l-2.11 3.18a10.53 10.53 0 0 0-5.64-1.82c-1.07 0-1.9.2-2.5.6-.6.42-.89.96-.89 1.64 0 .5.13.93.38 1.27.26.34.72.66 1.38.95.67.3 1.65.63 2.95 1 2.42.65 4.23 1.51 5.4 2.58 1.17 1.08 1.76 2.57 1.76 4.5 0 2.23-.9 3.97-2.72 5.23a11.52 11.52 0 0 1-6.73 1.88c-1.84 0-3.51-.28-5.02-.84a12.19 12.19 0 0 1-3.92-2.33l2.71-3.05a10 10 0 0 0 6.1 2.2c1.22 0 2.18-.24 2.9-.72a2.27 2.27 0 0 0 1.08-2c0-.64-.13-1.16-.4-1.54a3.32 3.32 0 0 0-1.44-1.02c-.7-.3-1.77-.65-3.24-1.08-2.29-.62-3.97-1.49-5.04-2.6a5.78 5.78 0 0 1-1.61-4.18c0-1.24.36-2.35 1.08-3.34a7.16 7.16 0 0 1 3.05-2.33c1.31-.57 2.82-.85 4.51-.85ZM3540.06 1622.9v22.41h-5.42v-22.41h5.42Zm-2.75-11.35c1.01 0 1.84.31 2.47.95.64.64.96 1.42.96 2.35 0 .93-.32 1.7-.96 2.33a3.4 3.4 0 0 1-2.47.93c-1 0-1.8-.3-2.44-.93a3.13 3.13 0 0 1-.95-2.33c0-.93.31-1.71.95-2.35a3.3 3.3 0 0 1 2.44-.95ZM3558.53 1622.26c2 0 3.57.6 4.68 1.8 1.12 1.2 1.68 2.87 1.68 5.02v16.23h-5.43v-15.38c0-1.33-.23-2.26-.7-2.8-.46-.53-1.15-.8-2.05-.8-.93 0-1.77.29-2.52.87a9.9 9.9 0 0 0-2.18 2.52v15.59h-5.43v-22.41h4.7l.43 2.92c1.84-2.37 4.1-3.56 6.82-3.56ZM3582.8 1622.26c2.83 0 4.92 1.03 6.27 3.1 1.36 2.06 2.03 4.95 2.03 8.68 0 2.31-.34 4.37-1.03 6.16-.7 1.8-1.71 3.2-3.05 4.22a7.67 7.67 0 0 1-4.77 1.52 7 7 0 0 1-5.63-2.46v10.47l-5.43.6v-31.65h4.75l.3 2.75a8.78 8.78 0 0 1 3-2.54 7.85 7.85 0 0 1 3.56-.85Zm-2.08 19.53c3.14 0 4.7-2.57 4.7-7.71 0-2.74-.35-4.72-1.05-5.93a3.45 3.45 0 0 0-3.18-1.82c-.9 0-1.75.27-2.54.82a7.2 7.2 0 0 0-2.04 2.23v10.08a4.76 4.76 0 0 0 4.11 2.33ZM3614.36 1645.31h-4.7l-.3-3.13a8.29 8.29 0 0 1-2.9 2.83 8.02 8.02 0 0 1-3.96.94c-2 0-3.55-.62-4.64-1.85-1.09-1.23-1.63-2.93-1.63-5.1v-16.1h5.42v15.42c0 1.27.22 2.17.66 2.71.44.54 1.13.8 2.1.8 1.72 0 3.23-1.05 4.53-3.17v-15.76h5.42v22.41ZM3633.72 1644.25c-.79.56-1.67.99-2.65 1.27-.97.28-1.97.42-2.98.42-2.2-.02-3.88-.65-5.03-1.88-1.14-1.23-1.71-3.04-1.71-5.44v-11.82h-3.52v-3.9h3.52v-4.96l5.42-.63v5.59h5.21l-.55 3.9h-4.66v11.69c0 1.1.2 1.9.57 2.37.39.48.99.72 1.8.72.82 0 1.71-.27 2.67-.8l1.91 3.47ZM3643.85 1622.26c3.02 0 5.68.89 7.96 2.67l-2.11 3.18a10.53 10.53 0 0 0-5.64-1.82c-1.07 0-1.9.2-2.5.6-.6.42-.89.96-.89 1.64 0 .5.13.93.38 1.27.26.34.72.66 1.38.96.66.3 1.65.62 2.95.99 2.42.65 4.22 1.51 5.4 2.58 1.17 1.08 1.75 2.58 1.75 4.5 0 2.23-.9 3.97-2.7 5.23a11.51 11.51 0 0 1-6.74 1.88c-1.84 0-3.51-.28-5.02-.84a12.17 12.17 0 0 1-3.92-2.33l2.7-3.05a10 10 0 0 0 6.11 2.2c1.21 0 2.18-.24 2.9-.72a2.27 2.27 0 0 0 1.08-2c0-.64-.13-1.16-.4-1.54a3.33 3.33 0 0 0-1.44-1.02c-.7-.3-1.77-.65-3.24-1.08-2.29-.62-3.97-1.49-5.04-2.6a5.78 5.78 0 0 1-1.61-4.17c0-1.25.36-2.36 1.08-3.35a7.17 7.17 0 0 1 3.05-2.33c1.31-.57 2.82-.85 4.51-.85Z" style="fill:#b4c4c9;fill-rule:nonzero"/>
  <path d="M3145.81 1234h-443.87c-17.95 0-32.52 14.8-32.52 33.03v66.08c0 18.23 14.57 33.03 32.52 33.03h443.87M2147.28 1182.15h443.87c17.95 0 32.52-14.8 32.52-33.03v-66.08c0-18.23-14.57-33.03-32.52-33.03h-443.87" style="fill:none;stroke:#b4c4c9;stroke-width:8.33px;stroke-dasharray:8.33,16.67,0,0"/>
  <path d="M3144.06 1050.01H2701.1c-17.9 0-32.45 14.8-32.45 33.03v66.08c0 18.23 14.54 33.03 32.45 33.03h442.96" style="fill:none;stroke:#b4c4c9;stroke-width:12.5px;stroke-linecap:butt;stroke-miterlimit:1"/>
  <path d="M3145.81 1009.86c0-6.97-5.66-12.62-12.62-12.62h-974.06a12.63 12.63 0 0 0-12.62 12.62v395.52c0 6.97 5.65 12.62 12.62 12.62h974.06c6.96 0 12.62-5.65 12.62-12.62v-395.52Z" style="fill:none;stroke:#b4c4c9;stroke-width:12.5px;stroke-linejoin:round;stroke-miterlimit:1.5"/>
  <path d="M2767.97 1105.94v22.41h-5.42v-22.41h5.42Zm-2.75-11.35c1.01 0 1.84.31 2.47.95.64.64.96 1.42.96 2.35 0 .93-.32 1.71-.96 2.33a3.4 3.4 0 0 1-2.47.93c-1 0-1.8-.3-2.44-.93a3.12 3.12 0 0 1-.95-2.33c0-.93.31-1.72.95-2.35a3.3 3.3 0 0 1 2.44-.95ZM2793.35 1096.95v31.4h-4.79l-.38-2.85a7.85 7.85 0 0 1-2.69 2.55 7.34 7.34 0 0 1-3.7.93 7.22 7.22 0 0 1-6.32-3.18c-1.47-2.12-2.2-5-2.2-8.64 0-2.29.37-4.33 1.1-6.12a9.67 9.67 0 0 1 3.16-4.22 7.78 7.78 0 0 1 4.76-1.52c2.15 0 4.03.8 5.64 2.41v-11.35l5.42.59Zm-10.04 27.92c.96 0 1.8-.23 2.54-.7a7.2 7.2 0 0 0 2.08-2.18v-10.25a7.74 7.74 0 0 0-1.97-1.78c-.67-.4-1.44-.6-2.31-.6-1.44 0-2.58.65-3.41 1.93-.83 1.29-1.25 3.23-1.25 5.83 0 2.76.37 4.75 1.1 5.95.73 1.2 1.8 1.8 3.22 1.8ZM2818.26 1116.61c0 .28-.04 1.02-.13 2.2h-14.06c.17 2.18.73 3.73 1.7 4.66.95.93 2.22 1.4 3.8 1.4 1 0 1.93-.16 2.8-.49.88-.32 1.8-.82 2.8-1.5l2.24 3.1c-2.48 2-5.25 3-8.3 3-3.42 0-6.05-1.04-7.9-3.13-1.85-2.1-2.78-4.95-2.78-8.56 0-2.29.4-4.34 1.19-6.17a9.78 9.78 0 0 1 3.43-4.27 9.18 9.18 0 0 1 5.34-1.55c3.13 0 5.56 1 7.29 2.99 1.72 1.99 2.58 4.76 2.58 8.32Zm-5.38-1.57c0-3.92-1.45-5.89-4.36-5.89a3.7 3.7 0 0 0-3.12 1.47c-.75.97-1.2 2.53-1.33 4.68h8.8v-.26ZM2835.08 1105.3c2 0 3.57.6 4.68 1.8 1.12 1.2 1.67 2.87 1.67 5.02v16.23h-5.42v-15.38c0-1.33-.23-2.26-.7-2.8-.46-.54-1.15-.8-2.05-.8-.93 0-1.77.29-2.52.86a9.93 9.93 0 0 0-2.18 2.53v15.59h-5.43v-22.42h4.7l.43 2.93c1.84-2.37 4.1-3.56 6.82-3.56ZM2860.58 1127.29c-.8.56-1.67.99-2.65 1.27-.97.28-1.97.42-2.99.42-2.2-.02-3.87-.65-5.02-1.88-1.14-1.23-1.71-3.04-1.71-5.44v-11.82h-3.52v-3.9h3.52v-4.96l5.42-.63v5.59h5.21l-.55 3.9h-4.66v11.69c0 1.1.2 1.9.57 2.37.38.48.98.72 1.8.72.82 0 1.71-.27 2.67-.8l1.91 3.47ZM2869.06 1105.94v22.41h-5.42v-22.41h5.42Zm-2.75-11.35c1.01 0 1.84.31 2.47.95.64.64.96 1.42.96 2.35 0 .93-.32 1.71-.96 2.33a3.4 3.4 0 0 1-2.47.93c-1 0-1.8-.3-2.44-.93a3.13 3.13 0 0 1-.95-2.33c0-.93.31-1.72.95-2.35a3.3 3.3 0 0 1 2.44-.95ZM2888.42 1127.29c-.8.56-1.67.99-2.65 1.27-.97.28-1.97.42-2.99.42-2.2-.02-3.87-.65-5.02-1.88-1.14-1.23-1.71-3.04-1.71-5.44v-11.82h-3.52v-3.9h3.52v-4.96l5.42-.63v5.59h5.21l-.55 3.9h-4.66v11.69c0 1.1.2 1.9.57 2.37.38.48.98.72 1.8.72.82 0 1.71-.27 2.67-.8l1.91 3.47ZM2902.1 1128.43a13.75 13.75 0 0 1-4.11 6.46c-1.84 1.54-4.35 2.44-7.54 2.7l-.55-3.95c1.47-.23 2.65-.54 3.54-.95.89-.41 1.6-.95 2.13-1.63a10.9 10.9 0 0 0 1.49-2.71h-1.87l-7.11-22.42h5.76l4.87 18.81 5.08-18.8h5.6l-7.29 22.49ZM2932.43 1105.3c3.3 0 5.88 1.05 7.73 3.16 1.85 2.1 2.78 4.99 2.78 8.66 0 2.34-.43 4.41-1.27 6.2a9.65 9.65 0 0 1-3.65 4.18 10.4 10.4 0 0 1-5.63 1.48c-3.3 0-5.9-1.05-7.75-3.15-1.87-2.1-2.8-5.01-2.8-8.71 0-2.35.42-4.4 1.27-6.19a9.63 9.63 0 0 1 3.66-4.15c1.6-.99 3.49-1.48 5.66-1.48Zm0 4.1c-3.25 0-4.87 2.58-4.87 7.72 0 2.65.4 4.61 1.2 5.87a4.01 4.01 0 0 0 3.63 1.88 4 4 0 0 0 3.62-1.9c.8-1.28 1.2-3.22 1.2-5.85 0-2.63-.4-4.57-1.2-5.83-.8-1.25-2-1.88-3.58-1.88ZM2965.95 1128.35h-4.7l-.3-3.13a8.28 8.28 0 0 1-2.9 2.83 8.02 8.02 0 0 1-3.96.94c-2 0-3.55-.62-4.64-1.85-1.09-1.23-1.63-2.93-1.63-5.1v-16.1h5.42v15.42c0 1.27.22 2.17.66 2.71.44.54 1.13.8 2.1.8 1.72 0 3.23-1.05 4.53-3.17v-15.76h5.42v22.41ZM2985.31 1127.29c-.8.56-1.67.99-2.65 1.27-.97.28-1.97.42-2.99.42-2.2-.02-3.87-.65-5.02-1.88-1.14-1.23-1.71-3.04-1.71-5.44v-11.82h-3.52v-3.9h3.52v-4.96l5.42-.63v5.59h5.21l-.55 3.9h-4.66v11.69c0 1.1.2 1.9.57 2.37.38.48.98.72 1.8.72.82 0 1.71-.27 2.67-.8l1.91 3.47ZM2999.96 1105.3c2.83 0 4.92 1.03 6.27 3.1 1.36 2.05 2.03 4.95 2.03 8.68 0 2.31-.34 4.37-1.03 6.16-.7 1.8-1.71 3.2-3.05 4.22a7.67 7.67 0 0 1-4.77 1.52 7 7 0 0 1-5.63-2.46V1137l-5.43.6v-31.66h4.75l.3 2.76a8.78 8.78 0 0 1 3-2.54 7.85 7.85 0 0 1 3.56-.85Zm-2.08 19.53c3.14 0 4.7-2.57 4.7-7.71 0-2.74-.35-4.72-1.05-5.93a3.45 3.45 0 0 0-3.18-1.82c-.9 0-1.75.27-2.54.82a7.22 7.22 0 0 0-2.03 2.23v10.08a4.76 4.76 0 0 0 4.1 2.33ZM3031.53 1128.35h-4.7l-.3-3.13a8.28 8.28 0 0 1-2.9 2.83 8.02 8.02 0 0 1-3.96.94c-2 0-3.55-.62-4.64-1.85-1.09-1.23-1.63-2.93-1.63-5.1v-16.1h5.42v15.42c0 1.27.22 2.17.66 2.71.43.54 1.13.8 2.1.8 1.72 0 3.23-1.05 4.53-3.17v-15.76h5.42v22.41ZM3050.89 1127.29c-.8.56-1.67.99-2.65 1.27-.97.28-1.97.42-2.98.42-2.2-.02-3.88-.65-5.03-1.88-1.14-1.23-1.71-3.04-1.71-5.44v-11.82H3035v-3.9h3.52v-4.96l5.42-.63v5.59h5.21l-.55 3.9h-4.66v11.69c0 1.1.2 1.9.57 2.37.39.48.99.72 1.8.72.82 0 1.71-.27 2.67-.8l1.91 3.47ZM2786.18 1288.35c3.3 0 5.88 1.05 7.73 3.16 1.85 2.1 2.78 4.99 2.78 8.66 0 2.34-.43 4.41-1.27 6.2a9.65 9.65 0 0 1-3.65 4.18 10.41 10.41 0 0 1-5.63 1.48c-3.3 0-5.9-1.05-7.75-3.15-1.87-2.1-2.8-5.01-2.8-8.71 0-2.35.42-4.4 1.27-6.19a9.63 9.63 0 0 1 3.66-4.15c1.6-.99 3.49-1.48 5.66-1.48Zm0 4.1c-3.25 0-4.87 2.58-4.87 7.72 0 2.65.4 4.61 1.2 5.87a4.01 4.01 0 0 0 3.63 1.88 4 4 0 0 0 3.62-1.9c.8-1.28 1.2-3.22 1.2-5.85 0-2.63-.4-4.57-1.2-5.83-.8-1.25-2-1.88-3.58-1.88ZM2814.6 1310.34c-.79.56-1.67.99-2.65 1.27-.97.28-1.97.42-2.98.42-2.2-.02-3.88-.65-5.02-1.88-1.15-1.23-1.72-3.04-1.72-5.44v-11.82h-3.52v-3.9h3.52v-4.96l5.42-.63v5.59h5.21l-.55 3.9h-4.66v11.69c0 1.1.2 1.9.57 2.37.39.48.99.72 1.8.72.82 0 1.71-.27 2.67-.8l1.91 3.47ZM2829.6 1288.35c1.98 0 3.53.6 4.66 1.82 1.13 1.22 1.7 2.88 1.7 5v16.23h-5.43v-15.38c0-1.33-.23-2.26-.7-2.8-.46-.54-1.15-.8-2.05-.8-.9 0-1.74.29-2.5.86a9.9 9.9 0 0 0-2.2 2.48v15.64h-5.43v-31.35l5.42-.56v12.16c1.81-2.2 3.99-3.3 6.53-3.3ZM2860.66 1299.66c0 .28-.04 1.02-.13 2.2h-14.06c.17 2.18.73 3.73 1.7 4.66.95.94 2.22 1.4 3.8 1.4 1 0 1.93-.16 2.8-.49.88-.32 1.8-.82 2.8-1.5l2.24 3.1c-2.48 2-5.25 3-8.3 3-3.42 0-6.05-1.04-7.9-3.13-1.85-2.1-2.78-4.95-2.78-8.56 0-2.29.4-4.34 1.19-6.17a9.77 9.77 0 0 1 3.43-4.27 9.18 9.18 0 0 1 5.34-1.55c3.13 0 5.56 1 7.29 2.99 1.72 1.99 2.58 4.76 2.58 8.32Zm-5.38-1.57c0-3.92-1.46-5.89-4.36-5.89a3.7 3.7 0 0 0-3.12 1.47c-.75.97-1.2 2.53-1.33 4.68h8.81v-.26ZM2876.59 1288.39c.82 0 1.57.1 2.25.3l-.94 5.25a8.17 8.17 0 0 0-1.99-.25 3.8 3.8 0 0 0-3.13 1.42c-.77.94-1.37 2.39-1.83 4.34v11.94h-5.42V1289h4.7l.51 4.4a8.07 8.07 0 0 1 2.33-3.7 5.28 5.28 0 0 1 3.52-1.3ZM2902.39 1288.35c3.3 0 5.88 1.05 7.73 3.16 1.85 2.1 2.78 4.99 2.78 8.66 0 2.34-.43 4.41-1.27 6.2a9.66 9.66 0 0 1-3.65 4.18 10.42 10.42 0 0 1-5.63 1.48c-3.3 0-5.9-1.05-7.75-3.15-1.87-2.1-2.8-5.01-2.8-8.71 0-2.35.42-4.4 1.27-6.19a9.63 9.63 0 0 1 3.66-4.15c1.6-.99 3.49-1.48 5.66-1.48Zm0 4.1c-3.25 0-4.87 2.58-4.87 7.72 0 2.65.4 4.61 1.2 5.87a4.02 4.02 0 0 0 3.63 1.88 4 4 0 0 0 3.62-1.9c.8-1.28 1.2-3.22 1.2-5.85 0-2.63-.4-4.57-1.2-5.83-.8-1.25-2-1.88-3.58-1.88ZM2935.9 1311.4h-4.7l-.3-3.13a8.3 8.3 0 0 1-2.9 2.83 8.02 8.02 0 0 1-3.96.94c-2 0-3.55-.62-4.64-1.85-1.09-1.23-1.63-2.93-1.63-5.1v-16.1h5.42v15.42c0 1.27.22 2.17.66 2.71.44.54 1.13.8 2.1.8 1.72 0 3.23-1.05 4.53-3.17v-15.76h5.42v22.41ZM2955.26 1310.34c-.8.56-1.67.99-2.65 1.27-.97.28-1.97.42-2.99.42-2.2-.02-3.87-.65-5.01-1.88-1.15-1.23-1.72-3.04-1.72-5.44v-11.82h-3.52v-3.9h3.52v-4.96l5.42-.63v5.59h5.21l-.55 3.9h-4.66v11.69c0 1.1.2 1.9.57 2.37.38.48.98.72 1.8.72.82 0 1.71-.27 2.67-.8l1.91 3.47ZM2969.91 1288.35c2.83 0 4.92 1.03 6.27 3.1 1.36 2.05 2.03 4.95 2.03 8.68 0 2.31-.34 4.37-1.03 6.16-.7 1.8-1.71 3.2-3.05 4.22a7.67 7.67 0 0 1-4.77 1.52 7 7 0 0 1-5.64-2.46v10.47l-5.42.6v-31.66h4.75l.3 2.76a8.78 8.78 0 0 1 3-2.54 7.85 7.85 0 0 1 3.56-.85Zm-2.08 19.53c3.14 0 4.7-2.57 4.7-7.71 0-2.74-.35-4.72-1.05-5.93a3.45 3.45 0 0 0-3.18-1.82c-.9 0-1.75.27-2.54.82a7.22 7.22 0 0 0-2.04 2.23v10.08a4.76 4.76 0 0 0 4.11 2.33ZM3001.48 1311.4h-4.7l-.3-3.13a8.29 8.29 0 0 1-2.9 2.83 8.02 8.02 0 0 1-3.96.94c-2 0-3.55-.62-4.64-1.85-1.09-1.23-1.63-2.93-1.63-5.1v-16.1h5.42v15.42c0 1.27.22 2.17.66 2.71.43.54 1.13.8 2.1.8 1.72 0 3.23-1.05 4.53-3.17v-15.76h5.42v22.41ZM3020.84 1310.34c-.8.56-1.67.99-2.65 1.27-.97.28-1.97.42-2.98.42-2.2-.02-3.88-.65-5.02-1.88-1.15-1.23-1.72-3.04-1.72-5.44v-11.82h-3.52v-3.9h3.52v-4.96l5.42-.63v5.59h5.21l-.55 3.9h-4.66v11.69c0 1.1.2 1.9.57 2.37.39.48.99.72 1.8.72.82 0 1.71-.27 2.67-.8l1.91 3.47ZM3030.96 1288.35c3.02 0 5.68.89 7.96 2.67l-2.11 3.18a10.53 10.53 0 0 0-5.64-1.83c-1.07 0-1.9.2-2.5.62-.6.4-.89.95-.89 1.63 0 .5.13.93.38 1.27.26.34.72.66 1.38.95.66.3 1.65.63 2.94 1 2.43.65 4.23 1.51 5.4 2.58 1.18 1.08 1.76 2.57 1.76 4.5 0 2.23-.9 3.97-2.7 5.23a11.52 11.52 0 0 1-6.74 1.88c-1.84 0-3.51-.28-5.02-.85a12.16 12.16 0 0 1-3.92-2.33l2.7-3.05a10 10 0 0 0 6.11 2.2c1.21 0 2.18-.23 2.9-.71a2.27 2.27 0 0 0 1.08-2c0-.64-.13-1.16-.4-1.54a3.32 3.32 0 0 0-1.44-1.02c-.7-.3-1.77-.65-3.24-1.08-2.29-.62-3.97-1.49-5.04-2.6a5.78 5.78 0 0 1-1.61-4.18c0-1.24.36-2.35 1.08-3.34a7.17 7.17 0 0 1 3.05-2.33c1.31-.57 2.82-.85 4.51-.85ZM2274.57 1105.94v22.41h-5.42v-22.41h5.42Zm-2.75-11.35c1.01 0 1.84.31 2.48.95.63.64.95 1.42.95 2.35 0 .93-.32 1.71-.95 2.33a3.4 3.4 0 0 1-2.48.93c-1 0-1.8-.3-2.44-.93a3.13 3.13 0 0 1-.95-2.33c0-.93.32-1.72.95-2.35a3.3 3.3 0 0 1 2.44-.95ZM2293.04 1105.3c2 0 3.57.6 4.68 1.8 1.12 1.2 1.67 2.87 1.67 5.02v16.23h-5.42v-15.38c0-1.33-.23-2.26-.7-2.8-.46-.54-1.15-.8-2.05-.8-.93 0-1.77.29-2.52.86a9.9 9.9 0 0 0-2.18 2.53v15.59h-5.43v-22.42h4.7l.43 2.93c1.83-2.37 4.1-3.56 6.82-3.56ZM2317.31 1105.3c2.82 0 4.91 1.03 6.27 3.1 1.35 2.05 2.03 4.95 2.03 8.68 0 2.31-.34 4.37-1.04 6.16-.69 1.8-1.7 3.2-3.05 4.22a7.66 7.66 0 0 1-4.76 1.52 7 7 0 0 1-5.64-2.46V1137l-5.42.6v-31.66h4.75l.3 2.76a8.78 8.78 0 0 1 3-2.54 7.86 7.86 0 0 1 3.56-.85Zm-2.08 19.53c3.14 0 4.7-2.57 4.7-7.71 0-2.74-.35-4.72-1.05-5.93a3.45 3.45 0 0 0-3.18-1.82c-.9 0-1.75.27-2.54.82-.8.55-1.47 1.3-2.04 2.23v10.08a4.76 4.76 0 0 0 4.11 2.33ZM2348.87 1128.35h-4.7l-.3-3.13a8.29 8.29 0 0 1-2.9 2.83 8.02 8.02 0 0 1-3.96.94c-2 0-3.55-.62-4.64-1.85-1.09-1.23-1.63-2.93-1.63-5.1v-16.1h5.42v15.42c0 1.27.22 2.17.66 2.71.43.54 1.13.8 2.1.8 1.72 0 3.23-1.05 4.53-3.17v-15.76h5.42v22.41ZM2368.24 1127.29c-.8.56-1.67.99-2.65 1.27-.97.28-1.97.42-2.99.42-2.2-.02-3.87-.65-5.02-1.88-1.14-1.23-1.71-3.04-1.71-5.44v-11.82h-3.52v-3.9h3.52v-4.96l5.42-.63v5.59h5.21l-.55 3.9h-4.66v11.69c0 1.1.2 1.9.57 2.37.38.48.98.72 1.8.72.82 0 1.71-.27 2.67-.8l1.91 3.47ZM2378.36 1105.3c3.02 0 5.68.89 7.96 2.67l-2.11 3.18a10.53 10.53 0 0 0-5.64-1.83c-1.07 0-1.9.2-2.5.62-.6.4-.89.95-.89 1.63 0 .5.13.93.38 1.27.26.34.72.66 1.38.95.66.3 1.65.63 2.94 1 2.43.65 4.23 1.51 5.4 2.58 1.18 1.08 1.76 2.57 1.76 4.5 0 2.23-.9 3.97-2.7 5.23a11.51 11.51 0 0 1-6.74 1.88c-1.84 0-3.51-.28-5.02-.84a12.2 12.2 0 0 1-3.92-2.33l2.71-3.06a10 10 0 0 0 6.1 2.2c1.22 0 2.18-.23 2.9-.71a2.27 2.27 0 0 0 1.08-2c0-.64-.13-1.16-.4-1.54a3.3 3.3 0 0 0-1.44-1.02c-.7-.3-1.77-.65-3.24-1.08-2.29-.62-3.97-1.49-5.04-2.6a5.78 5.78 0 0 1-1.61-4.18c0-1.24.36-2.35 1.08-3.34a7.17 7.17 0 0 1 3.05-2.33c1.31-.57 2.82-.85 4.51-.85Z" style="fill:#b4c4c9;fill-rule:nonzero"/>
  <path d="M5679.57 1042.36H5235.7c-17.95 0-32.52 14.8-32.52 33.03v66.08c0 18.23 14.57 33.03 32.52 33.03h443.87M4681.05 990.52h443.87c17.95 0 32.52-14.8 32.52-33.04v-66.07c0-18.23-14.57-33.03-32.52-33.03h-443.87" style="fill:none;stroke:#b4c4c9;stroke-width:8.33px;stroke-dasharray:8.33,16.67,0,0"/>
  <path d="M5677.82 858.38h-442.96c-17.9 0-32.45 14.8-32.45 33.03v66.07c0 18.24 14.54 33.04 32.45 33.04h442.96" style="fill:none;stroke:#3ab211;stroke-width:12.5px;stroke-linecap:butt;stroke-miterlimit:1"/>
  <path d="M5679.57 818.23c0-6.97-5.66-12.63-12.62-12.63h-974.06a12.63 12.63 0 0 0-12.62 12.62v395.53c0 6.96 5.65 12.62 12.62 12.62h974.06c6.96 0 12.62-5.66 12.62-12.62V818.23Z" style="fill:none;stroke:#3ab211;stroke-width:12.5px;stroke-linejoin:round;stroke-miterlimit:1.5"/>
  <path d="M5301.73 914.3v22.41h-5.42v-22.4h5.42Zm-2.75-11.35c1.01 0 1.84.31 2.48.95.63.64.95 1.42.95 2.35 0 .93-.32 1.71-.95 2.33a3.4 3.4 0 0 1-2.48.93c-1 0-1.8-.3-2.44-.93a3.12 3.12 0 0 1-.95-2.33c0-.93.32-1.71.95-2.35a3.3 3.3 0 0 1 2.44-.95ZM5327.11 905.32v31.4h-4.79l-.38-2.85a7.85 7.85 0 0 1-2.69 2.55 7.34 7.34 0 0 1-3.7.93 7.22 7.22 0 0 1-6.32-3.18c-1.47-2.12-2.2-5-2.2-8.64 0-2.29.37-4.33 1.1-6.12a9.66 9.66 0 0 1 3.16-4.22 7.78 7.78 0 0 1 4.76-1.52c2.15 0 4.03.8 5.64 2.41v-11.35l5.42.59Zm-10.04 27.92c.96 0 1.8-.23 2.54-.7a7.2 7.2 0 0 0 2.08-2.18V920.1a7.74 7.74 0 0 0-1.97-1.78c-.67-.4-1.44-.6-2.31-.6-1.44 0-2.58.65-3.41 1.93-.84 1.29-1.25 3.23-1.25 5.83 0 2.76.37 4.75 1.1 5.95.73 1.2 1.8 1.8 3.22 1.8ZM5352.02 924.98c0 .28-.04 1.01-.13 2.2h-14.06c.17 2.17.73 3.73 1.7 4.66.95.93 2.22 1.4 3.8 1.4 1 0 1.93-.16 2.8-.49.88-.32 1.8-.83 2.8-1.5l2.24 3.09c-2.48 2-5.25 3-8.3 3-3.42 0-6.05-1.04-7.9-3.13-1.85-2.09-2.78-4.94-2.78-8.56 0-2.28.4-4.34 1.19-6.16a9.78 9.78 0 0 1 3.43-4.28 9.18 9.18 0 0 1 5.34-1.54c3.13 0 5.56 1 7.29 2.98 1.72 2 2.58 4.77 2.58 8.33Zm-5.38-1.57c0-3.93-1.46-5.89-4.36-5.89a3.7 3.7 0 0 0-3.12 1.46c-.75.98-1.2 2.54-1.33 4.68h8.81v-.25ZM5368.84 913.67c2 0 3.57.6 4.68 1.8 1.12 1.2 1.67 2.87 1.67 5.02v16.22h-5.42v-15.38c0-1.32-.23-2.26-.7-2.8-.46-.53-1.15-.8-2.05-.8-.93 0-1.77.3-2.52.87a9.9 9.9 0 0 0-2.18 2.52v15.6h-5.43V914.3h4.7l.43 2.92c1.83-2.37 4.1-3.55 6.82-3.55ZM5394.34 935.65c-.8.57-1.67 1-2.65 1.27-.97.29-1.97.43-2.98.43-2.2-.03-3.88-.66-5.03-1.89-1.14-1.23-1.71-3.04-1.71-5.44V918.2h-3.52v-3.9h3.52v-4.96l5.42-.63v5.6h5.21l-.55 3.89h-4.66v11.7c0 1.1.2 1.88.57 2.36.38.48.98.72 1.8.72.82 0 1.71-.26 2.67-.8l1.91 3.47ZM5402.82 914.3v22.41h-5.42v-22.4h5.42Zm-2.75-11.35c1.01 0 1.84.31 2.47.95.64.64.96 1.42.96 2.35 0 .93-.32 1.71-.96 2.33a3.4 3.4 0 0 1-2.47.93c-1 0-1.8-.3-2.44-.93a3.13 3.13 0 0 1-.95-2.33c0-.93.31-1.71.95-2.35a3.3 3.3 0 0 1 2.44-.95ZM5422.18 935.65c-.8.57-1.67 1-2.65 1.27-.97.29-1.97.43-2.98.43-2.2-.03-3.88-.66-5.03-1.89-1.14-1.23-1.71-3.04-1.71-5.44V918.2h-3.52v-3.9h3.52v-4.96l5.42-.63v5.6h5.21l-.55 3.89h-4.66v11.7c0 1.1.2 1.88.57 2.36.38.48.98.72 1.8.72.82 0 1.71-.26 2.67-.8l1.91 3.47ZM5435.86 936.8a13.76 13.76 0 0 1-4.11 6.46c-1.84 1.54-4.35 2.43-7.54 2.69l-.55-3.94c1.47-.23 2.65-.55 3.54-.95.89-.41 1.6-.96 2.14-1.64.53-.67 1.03-1.58 1.48-2.7h-1.87l-7.11-22.42h5.76l4.87 18.81 5.08-18.8h5.6l-7.29 22.49ZM5466.19 913.67c3.3 0 5.88 1.05 7.73 3.15 1.85 2.1 2.78 5 2.78 8.66 0 2.35-.43 4.42-1.27 6.21a9.65 9.65 0 0 1-3.65 4.17 10.41 10.41 0 0 1-5.63 1.49c-3.3 0-5.9-1.05-7.76-3.16-1.86-2.1-2.8-5-2.8-8.7 0-2.35.43-4.41 1.28-6.19a9.63 9.63 0 0 1 3.66-4.15c1.6-.99 3.49-1.48 5.66-1.48Zm0 4.1c-3.25 0-4.87 2.58-4.87 7.72 0 2.65.4 4.6 1.2 5.86a4.01 4.01 0 0 0 3.63 1.89 4 4 0 0 0 3.62-1.9c.8-1.28 1.2-3.23 1.2-5.85 0-2.63-.4-4.57-1.2-5.83-.8-1.26-2-1.88-3.58-1.88ZM5499.71 936.71h-4.7l-.3-3.13a8.29 8.29 0 0 1-2.9 2.84 8.02 8.02 0 0 1-3.96.93c-2 0-3.55-.62-4.64-1.84-1.09-1.23-1.63-2.93-1.63-5.11v-16.1h5.42v15.42c0 1.27.22 2.18.66 2.71.43.54 1.13.8 2.1.8 1.72 0 3.23-1.05 4.53-3.17V914.3h5.42v22.41ZM5519.07 935.65c-.8.57-1.67 1-2.65 1.27-.97.29-1.97.43-2.99.43-2.2-.03-3.87-.66-5.02-1.89-1.14-1.23-1.71-3.04-1.71-5.44V918.2h-3.52v-3.9h3.52v-4.96l5.42-.63v5.6h5.21l-.55 3.89h-4.66v11.7c0 1.1.2 1.88.57 2.36.38.48.99.72 1.8.72.82 0 1.71-.26 2.67-.8l1.91 3.47ZM5533.73 913.67c2.83 0 4.92 1.03 6.27 3.09 1.36 2.06 2.03 4.96 2.03 8.68 0 2.32-.34 4.37-1.03 6.17-.7 1.8-1.71 3.2-3.05 4.21a7.67 7.67 0 0 1-4.77 1.53 7 7 0 0 1-5.63-2.46v10.46l-5.43.6V914.3h4.75l.3 2.75a8.78 8.78 0 0 1 3-2.54 7.85 7.85 0 0 1 3.56-.84Zm-2.08 19.53c3.14 0 4.7-2.57 4.7-7.72 0-2.73-.35-4.71-1.05-5.93a3.45 3.45 0 0 0-3.18-1.82c-.9 0-1.75.28-2.54.83-.8.55-1.47 1.3-2.04 2.22v10.09a4.76 4.76 0 0 0 4.12 2.33ZM5565.29 936.71h-4.7l-.3-3.13a8.29 8.29 0 0 1-2.9 2.84 8.02 8.02 0 0 1-3.96.93c-2 0-3.55-.62-4.64-1.84-1.09-1.23-1.63-2.93-1.63-5.11v-16.1h5.42v15.42c0 1.27.22 2.18.66 2.71.43.54 1.13.8 2.1.8 1.72 0 3.23-1.05 4.53-3.17V914.3h5.42v22.41ZM5584.65 935.65c-.79.57-1.67 1-2.65 1.27-.97.29-1.97.43-2.98.43-2.2-.03-3.88-.66-5.02-1.89-1.15-1.23-1.72-3.04-1.72-5.44V918.2h-3.52v-3.9h3.52v-4.96l5.42-.63v5.6h5.21l-.55 3.89h-4.66v11.7c0 1.1.2 1.88.57 2.36.39.48.99.72 1.8.72.82 0 1.71-.26 2.67-.8l1.91 3.47Z" style="fill:#073b4c;fill-rule:nonzero"/>
  <path d="M5319.94 1096.72c3.3 0 5.88 1.05 7.73 3.16 1.85 2.1 2.78 4.99 2.78 8.66 0 2.35-.43 4.41-1.27 6.2a9.66 9.66 0 0 1-3.65 4.18 10.42 10.42 0 0 1-5.63 1.48c-3.3 0-5.9-1.05-7.76-3.15-1.86-2.1-2.8-5.01-2.8-8.71 0-2.34.43-4.4 1.28-6.18a9.63 9.63 0 0 1 3.66-4.16c1.6-.98 3.49-1.48 5.66-1.48Zm0 4.11c-3.25 0-4.87 2.57-4.87 7.71 0 2.65.4 4.61 1.2 5.87a4.01 4.01 0 0 0 3.63 1.88 4 4 0 0 0 3.62-1.9c.8-1.27 1.2-3.22 1.2-5.85 0-2.63-.4-4.57-1.2-5.83-.8-1.25-2-1.88-3.58-1.88ZM5348.36 1118.7c-.79.56-1.67.99-2.65 1.27-.97.28-1.97.42-2.98.42-2.2-.02-3.88-.65-5.02-1.88-1.15-1.23-1.72-3.04-1.72-5.44v-11.82h-3.52v-3.9h3.52v-4.96l5.42-.63v5.59h5.21l-.55 3.9h-4.66v11.69c0 1.1.2 1.9.57 2.37.39.48.99.72 1.8.72.82 0 1.71-.27 2.67-.8l1.91 3.47ZM5363.36 1096.72c1.98 0 3.53.6 4.66 1.82 1.13 1.22 1.7 2.88 1.7 5v16.23h-5.43v-15.38c0-1.33-.23-2.26-.7-2.8-.46-.53-1.15-.8-2.05-.8-.9 0-1.74.29-2.5.87a9.9 9.9 0 0 0-2.2 2.47v15.64h-5.43v-31.35l5.43-.55v12.16c1.8-2.2 3.98-3.31 6.52-3.31ZM5394.42 1108.03c0 .28-.04 1.02-.13 2.2h-14.06c.17 2.18.73 3.73 1.7 4.66.95.93 2.22 1.4 3.8 1.4 1 0 1.93-.16 2.8-.49.88-.32 1.8-.82 2.8-1.5l2.24 3.1c-2.48 2-5.25 3-8.3 3-3.42 0-6.05-1.04-7.9-3.13-1.85-2.1-2.78-4.95-2.78-8.56 0-2.29.4-4.34 1.19-6.17a9.78 9.78 0 0 1 3.43-4.27 9.18 9.18 0 0 1 5.34-1.55c3.13 0 5.56 1 7.29 2.99 1.72 1.99 2.58 4.76 2.58 8.32Zm-5.38-1.57c0-3.92-1.45-5.89-4.36-5.89a3.7 3.7 0 0 0-3.12 1.47c-.75.97-1.2 2.53-1.33 4.68h8.81v-.26ZM5410.35 1096.76c.82 0 1.57.1 2.25.3l-.94 5.25a8.16 8.16 0 0 0-1.99-.26c-1.32 0-2.37.48-3.13 1.42-.77.95-1.37 2.4-1.82 4.35v11.94h-5.43v-22.4h4.7l.51 4.4a8.07 8.07 0 0 1 2.33-3.7 5.28 5.28 0 0 1 3.52-1.3ZM5436.15 1096.72c3.3 0 5.88 1.05 7.73 3.16 1.85 2.1 2.78 4.99 2.78 8.66 0 2.35-.43 4.41-1.27 6.2a9.65 9.65 0 0 1-3.65 4.18 10.41 10.41 0 0 1-5.63 1.48c-3.3 0-5.9-1.05-7.76-3.15-1.86-2.1-2.8-5.01-2.8-8.71 0-2.34.43-4.4 1.28-6.18a9.63 9.63 0 0 1 3.66-4.16c1.6-.98 3.48-1.48 5.66-1.48Zm0 4.11c-3.25 0-4.87 2.57-4.87 7.71 0 2.65.4 4.61 1.2 5.87a4.01 4.01 0 0 0 3.63 1.88 4 4 0 0 0 3.62-1.9c.8-1.27 1.2-3.22 1.2-5.85 0-2.63-.4-4.57-1.2-5.83-.8-1.25-2-1.88-3.58-1.88ZM5469.66 1119.76h-4.7l-.3-3.13a8.29 8.29 0 0 1-2.9 2.83 8.02 8.02 0 0 1-3.96.94c-2 0-3.55-.62-4.64-1.85-1.09-1.23-1.63-2.93-1.63-5.1v-16.1h5.42v15.42c0 1.27.22 2.17.66 2.71.43.54 1.13.8 2.1.8 1.72 0 3.23-1.05 4.53-3.17v-15.76h5.42v22.41ZM5489.02 1118.7c-.8.56-1.67.99-2.65 1.27-.97.28-1.97.42-2.98.42-2.2-.02-3.88-.65-5.03-1.88-1.14-1.23-1.71-3.04-1.71-5.44v-11.82h-3.52v-3.9h3.52v-4.96l5.42-.63v5.59h5.21l-.55 3.9h-4.66v11.69c0 1.1.2 1.9.57 2.37.38.48.99.72 1.8.72.82 0 1.71-.27 2.67-.8l1.91 3.47ZM5503.68 1096.72c2.83 0 4.92 1.03 6.27 3.1 1.36 2.06 2.03 4.95 2.03 8.68 0 2.31-.34 4.37-1.03 6.16-.7 1.8-1.71 3.2-3.05 4.22a7.67 7.67 0 0 1-4.77 1.52 6.99 6.99 0 0 1-5.63-2.46v10.47l-5.43.6v-31.65h4.75l.3 2.75a8.78 8.78 0 0 1 3-2.54 7.85 7.85 0 0 1 3.56-.85Zm-2.08 19.53c3.14 0 4.7-2.57 4.7-7.71 0-2.74-.35-4.72-1.05-5.93a3.45 3.45 0 0 0-3.18-1.82c-.9 0-1.75.27-2.54.82a7.2 7.2 0 0 0-2.03 2.23v10.08a4.76 4.76 0 0 0 4.1 2.33ZM5535.24 1119.76h-4.7l-.3-3.13a8.29 8.29 0 0 1-2.9 2.83 8.02 8.02 0 0 1-3.96.94c-2 0-3.55-.62-4.64-1.85-1.09-1.23-1.63-2.93-1.63-5.1v-16.1h5.42v15.42c0 1.27.22 2.17.66 2.71.43.54 1.13.8 2.1.8 1.72 0 3.23-1.05 4.53-3.17v-15.76h5.42v22.41ZM5554.6 1118.7c-.79.56-1.67.99-2.65 1.27-.97.28-1.97.42-2.98.42-2.2-.02-3.88-.65-5.02-1.88-1.15-1.23-1.72-3.04-1.72-5.44v-11.82h-3.52v-3.9h3.52v-4.96l5.42-.63v5.59h5.21l-.55 3.9h-4.66v11.69c0 1.1.2 1.9.57 2.37.39.48.99.72 1.8.72.82 0 1.71-.27 2.67-.8l1.91 3.47ZM5564.73 1096.72c3.02 0 5.68.89 7.96 2.67l-2.11 3.18a10.52 10.52 0 0 0-5.64-1.82c-1.07 0-1.9.2-2.5.6-.6.42-.89.96-.89 1.64 0 .5.13.93.38 1.27.26.34.72.66 1.38.96.66.3 1.65.62 2.94.99 2.43.65 4.23 1.51 5.4 2.58 1.18 1.08 1.76 2.58 1.76 4.5 0 2.23-.9 3.97-2.7 5.23a11.51 11.51 0 0 1-6.74 1.88c-1.84 0-3.51-.28-5.02-.84a12.18 12.18 0 0 1-3.92-2.33l2.7-3.05a10 10 0 0 0 6.11 2.2c1.21 0 2.18-.24 2.9-.72a2.27 2.27 0 0 0 1.08-2c0-.64-.13-1.16-.4-1.54a3.32 3.32 0 0 0-1.44-1.02c-.7-.3-1.77-.65-3.24-1.08-2.29-.62-3.97-1.49-5.04-2.6a5.78 5.78 0 0 1-1.61-4.17c0-1.25.36-2.36 1.08-3.35a7.17 7.17 0 0 1 3.05-2.33c1.31-.57 2.81-.85 4.51-.85ZM4808.33 914.3v22.41h-5.42v-22.4h5.42Zm-2.75-11.35c1.01 0 1.84.31 2.48.95.63.64.95 1.42.95 2.35 0 .93-.32 1.71-.95 2.33a3.4 3.4 0 0 1-2.48.93c-1 0-1.8-.3-2.44-.93a3.12 3.12 0 0 1-.95-2.33c0-.93.32-1.71.95-2.35a3.3 3.3 0 0 1 2.44-.95ZM4826.8 913.67c2 0 3.56.6 4.68 1.8 1.12 1.2 1.67 2.87 1.67 5.02v16.22h-5.42v-15.38c0-1.32-.23-2.26-.7-2.8-.46-.53-1.15-.8-2.05-.8-.93 0-1.77.3-2.52.87a9.91 9.91 0 0 0-2.18 2.52v15.6h-5.43V914.3h4.7l.43 2.92c1.84-2.37 4.1-3.55 6.82-3.55ZM4851.07 913.67c2.82 0 4.91 1.03 6.27 3.09 1.36 2.06 2.03 4.96 2.03 8.68 0 2.32-.34 4.37-1.03 6.17-.7 1.8-1.71 3.2-3.05 4.21a7.67 7.67 0 0 1-4.77 1.53 7 7 0 0 1-5.64-2.46v10.46l-5.42.6V914.3h4.75l.3 2.75a8.78 8.78 0 0 1 3-2.54 7.86 7.86 0 0 1 3.56-.84Zm-2.08 19.53c3.14 0 4.7-2.57 4.7-7.72 0-2.73-.35-4.71-1.05-5.93a3.45 3.45 0 0 0-3.18-1.82c-.9 0-1.75.28-2.54.83-.8.55-1.47 1.3-2.04 2.22v10.09a4.76 4.76 0 0 0 4.11 2.33ZM4882.64 936.71h-4.7l-.3-3.13a8.3 8.3 0 0 1-2.9 2.84 8.02 8.02 0 0 1-3.96.93c-2 0-3.55-.62-4.64-1.84-1.09-1.23-1.63-2.93-1.63-5.11v-16.1h5.42v15.42c0 1.27.22 2.18.66 2.71.43.54 1.13.8 2.1.8 1.72 0 3.23-1.05 4.53-3.17V914.3h5.42v22.41ZM4902 935.65c-.8.57-1.67 1-2.65 1.27-.97.29-1.97.43-2.99.43-2.2-.03-3.87-.66-5.01-1.89-1.15-1.23-1.72-3.04-1.72-5.44V918.2h-3.52v-3.9h3.52v-4.96l5.42-.63v5.6h5.21l-.55 3.89h-4.66v11.7c0 1.1.2 1.88.57 2.36.38.48.98.72 1.8.72.82 0 1.71-.26 2.67-.8l1.91 3.47ZM4912.12 913.67c3.02 0 5.68.89 7.96 2.67l-2.11 3.17a10.53 10.53 0 0 0-5.64-1.82c-1.07 0-1.9.2-2.5.61-.6.41-.89.96-.89 1.64 0 .5.13.93.38 1.27.26.34.72.65 1.38.95.67.3 1.65.63 2.95 1 2.42.65 4.23 1.5 5.4 2.58 1.17 1.07 1.76 2.57 1.76 4.49 0 2.23-.9 3.98-2.72 5.23a11.52 11.52 0 0 1-6.73 1.89c-1.84 0-3.51-.29-5.02-.85a12.17 12.17 0 0 1-3.92-2.33l2.71-3.05a10 10 0 0 0 6.1 2.2c1.22 0 2.18-.24 2.9-.72a2.27 2.27 0 0 0 1.08-1.99c0-.65-.13-1.16-.4-1.55a3.3 3.3 0 0 0-1.44-1.01c-.7-.3-1.77-.66-3.24-1.08-2.29-.62-3.97-1.5-5.04-2.6a5.78 5.78 0 0 1-1.61-4.18c0-1.24.36-2.36 1.08-3.35a7.16 7.16 0 0 1 3.05-2.33c1.31-.56 2.82-.84 4.51-.84Z" style="fill:#b4c4c9;fill-rule:nonzero"/>
  <path d="M3145.81 1750.96h-443.87c-17.95 0-32.52 14.8-32.52 33.03v66.08c0 18.23 14.57 33.03 32.52 33.03h443.87M2147.28 1699.11h443.87c17.95 0 32.52-14.8 32.52-33.03V1600c0-18.23-14.57-33.03-32.52-33.03h-443.87" style="fill:none;stroke:#b4c4c9;stroke-width:8.33px;stroke-dasharray:8.33,16.67,0,0"/>
  <path d="M3144.06 1566.97H2701.1c-17.9 0-32.45 14.8-32.45 33.03v66.08c0 18.23 14.54 33.03 32.45 33.03h442.96" style="fill:none;stroke:#3ab211;stroke-width:12.5px;stroke-linecap:butt;stroke-miterlimit:1"/>
  <path d="M3145.81 1526.82c0-6.97-5.66-12.62-12.62-12.62h-974.06a12.63 12.63 0 0 0-12.62 12.62v395.52c0 6.97 5.65 12.62 12.62 12.62h974.06c6.96 0 12.62-5.65 12.62-12.62v-395.52Z" style="fill:none;stroke:#3ab211;stroke-width:12.5px;stroke-linejoin:round;stroke-miterlimit:1.5"/>
  <path d="M2767.97 1622.9v22.41h-5.42v-22.41h5.42Zm-2.75-11.35c1.01 0 1.84.31 2.47.95.64.64.96 1.42.96 2.35 0 .93-.32 1.7-.96 2.33a3.4 3.4 0 0 1-2.47.93c-1 0-1.8-.3-2.44-.93a3.13 3.13 0 0 1-.95-2.33c0-.93.31-1.71.95-2.35a3.3 3.3 0 0 1 2.44-.95ZM2793.35 1613.91v31.4h-4.79l-.38-2.84a7.86 7.86 0 0 1-2.69 2.54 7.34 7.34 0 0 1-3.7.93 7.22 7.22 0 0 1-6.32-3.18c-1.47-2.12-2.2-5-2.2-8.64 0-2.29.37-4.33 1.1-6.12a9.66 9.66 0 0 1 3.16-4.22 7.78 7.78 0 0 1 4.76-1.52c2.15 0 4.03.8 5.64 2.41v-11.35l5.42.59Zm-10.04 27.92c.96 0 1.8-.23 2.54-.7a7.19 7.19 0 0 0 2.08-2.18v-10.25a7.74 7.74 0 0 0-1.97-1.78c-.67-.4-1.44-.6-2.31-.6-1.44 0-2.58.65-3.41 1.93-.83 1.29-1.25 3.23-1.25 5.83 0 2.76.37 4.75 1.1 5.95.73 1.2 1.8 1.8 3.22 1.8ZM2818.26 1633.57c0 .28-.04 1.02-.13 2.2h-14.06c.17 2.18.73 3.73 1.7 4.66.95.93 2.22 1.4 3.8 1.4 1 0 1.93-.16 2.8-.49.88-.32 1.8-.82 2.8-1.5l2.24 3.1c-2.48 2-5.25 3-8.3 3-3.42 0-6.05-1.04-7.9-3.13-1.85-2.1-2.78-4.95-2.78-8.56 0-2.29.4-4.34 1.19-6.17a9.78 9.78 0 0 1 3.43-4.27 9.18 9.18 0 0 1 5.34-1.55c3.13 0 5.56 1 7.29 2.99 1.72 1.99 2.58 4.76 2.58 8.32Zm-5.38-1.57c0-3.92-1.45-5.89-4.36-5.89a3.7 3.7 0 0 0-3.12 1.47c-.75.97-1.2 2.53-1.33 4.68h8.8v-.26ZM2835.08 1622.26c2 0 3.57.6 4.68 1.8 1.12 1.2 1.67 2.87 1.67 5.02v16.23h-5.42v-15.38c0-1.33-.23-2.26-.7-2.8-.46-.53-1.15-.8-2.05-.8-.93 0-1.77.29-2.52.87a9.9 9.9 0 0 0-2.18 2.52v15.59h-5.43v-22.41h4.7l.43 2.92c1.84-2.37 4.1-3.56 6.82-3.56ZM2860.58 1644.25c-.8.56-1.67.99-2.65 1.27-.97.28-1.97.42-2.99.42-2.2-.02-3.87-.65-5.02-1.88-1.14-1.23-1.71-3.04-1.71-5.44v-11.82h-3.52v-3.9h3.52v-4.96l5.42-.63v5.59h5.21l-.55 3.9h-4.66v11.69c0 1.1.2 1.9.57 2.37.38.48.98.72 1.8.72.82 0 1.71-.27 2.67-.8l1.91 3.47ZM2869.06 1622.9v22.41h-5.42v-22.41h5.42Zm-2.75-11.35c1.01 0 1.84.31 2.47.95.64.64.96 1.42.96 2.35 0 .93-.32 1.7-.96 2.33a3.4 3.4 0 0 1-2.47.93c-1 0-1.8-.3-2.44-.93a3.13 3.13 0 0 1-.95-2.33c0-.93.31-1.71.95-2.35a3.3 3.3 0 0 1 2.44-.95ZM2888.42 1644.25c-.8.56-1.67.99-2.65 1.27-.97.28-1.97.42-2.99.42-2.2-.02-3.87-.65-5.02-1.88-1.14-1.23-1.71-3.04-1.71-5.44v-11.82h-3.52v-3.9h3.52v-4.96l5.42-.63v5.59h5.21l-.55 3.9h-4.66v11.69c0 1.1.2 1.9.57 2.37.38.48.98.72 1.8.72.82 0 1.71-.27 2.67-.8l1.91 3.47ZM2902.1 1645.39a13.76 13.76 0 0 1-4.11 6.46c-1.84 1.54-4.35 2.44-7.54 2.7l-.55-3.95c1.47-.22 2.65-.54 3.54-.95.89-.41 1.6-.96 2.13-1.63.54-.68 1.04-1.58 1.49-2.71h-1.87l-7.11-22.42h5.76l4.87 18.81 5.08-18.8h5.6l-7.29 22.49ZM2932.43 1622.26c3.3 0 5.88 1.05 7.73 3.16 1.85 2.1 2.78 4.99 2.78 8.66 0 2.34-.43 4.41-1.27 6.2a9.66 9.66 0 0 1-3.65 4.18 10.42 10.42 0 0 1-5.63 1.48c-3.3 0-5.9-1.05-7.75-3.15-1.87-2.1-2.8-5.01-2.8-8.71 0-2.34.42-4.4 1.27-6.18a9.63 9.63 0 0 1 3.66-4.16c1.6-.98 3.49-1.48 5.66-1.48Zm0 4.11c-3.25 0-4.87 2.57-4.87 7.71 0 2.65.4 4.61 1.2 5.87a4.01 4.01 0 0 0 3.63 1.88 4 4 0 0 0 3.62-1.9c.8-1.27 1.2-3.22 1.2-5.85 0-2.63-.4-4.57-1.2-5.83-.8-1.25-2-1.88-3.58-1.88ZM2965.95 1645.31h-4.7l-.3-3.13a8.29 8.29 0 0 1-2.9 2.83 8.02 8.02 0 0 1-3.96.94c-2 0-3.55-.62-4.64-1.85-1.09-1.23-1.63-2.93-1.63-5.1v-16.1h5.42v15.42c0 1.27.22 2.17.66 2.71.44.54 1.13.8 2.1.8 1.72 0 3.23-1.05 4.53-3.17v-15.76h5.42v22.41ZM2985.31 1644.25c-.8.56-1.67.99-2.65 1.27-.97.28-1.97.42-2.99.42-2.2-.02-3.87-.65-5.02-1.88-1.14-1.23-1.71-3.04-1.71-5.44v-11.82h-3.52v-3.9h3.52v-4.96l5.42-.63v5.59h5.21l-.55 3.9h-4.66v11.69c0 1.1.2 1.9.57 2.37.38.48.98.72 1.8.72.82 0 1.71-.27 2.67-.8l1.91 3.47ZM2999.96 1622.26c2.83 0 4.92 1.03 6.27 3.1 1.36 2.06 2.03 4.95 2.03 8.68 0 2.31-.34 4.37-1.03 6.16-.7 1.8-1.71 3.2-3.05 4.22a7.67 7.67 0 0 1-4.77 1.52 7 7 0 0 1-5.63-2.46v10.47l-5.43.6v-31.65h4.75l.3 2.75a8.78 8.78 0 0 1 3-2.54 7.85 7.85 0 0 1 3.56-.85Zm-2.08 19.53c3.14 0 4.7-2.57 4.7-7.71 0-2.74-.35-4.72-1.05-5.93a3.45 3.45 0 0 0-3.18-1.82c-.9 0-1.75.27-2.54.82a7.21 7.21 0 0 0-2.03 2.23v10.08a4.76 4.76 0 0 0 4.1 2.33ZM3031.53 1645.31h-4.7l-.3-3.13a8.29 8.29 0 0 1-2.9 2.83 8.02 8.02 0 0 1-3.96.94c-2 0-3.55-.62-4.64-1.85-1.09-1.23-1.63-2.93-1.63-5.1v-16.1h5.42v15.42c0 1.27.22 2.17.66 2.71.43.54 1.13.8 2.1.8 1.72 0 3.23-1.05 4.53-3.17v-15.76h5.42v22.41ZM3050.89 1644.25c-.8.56-1.67.99-2.65 1.27-.97.28-1.97.42-2.98.42-2.2-.02-3.88-.65-5.03-1.88-1.14-1.23-1.71-3.04-1.71-5.44v-11.82H3035v-3.9h3.52v-4.96l5.42-.63v5.59h5.21l-.55 3.9h-4.66v11.69c0 1.1.2 1.9.57 2.37.39.48.99.72 1.8.72.82 0 1.71-.27 2.67-.8l1.91 3.47Z" style="fill:#073b4c;fill-rule:nonzero"/>
  <path d="M2786.18 1805.31c3.3 0 5.88 1.05 7.73 3.16 1.85 2.1 2.78 4.99 2.78 8.66 0 2.34-.43 4.41-1.27 6.2a9.65 9.65 0 0 1-3.65 4.18 10.41 10.41 0 0 1-5.63 1.48c-3.3 0-5.9-1.05-7.75-3.15-1.87-2.1-2.8-5.01-2.8-8.71 0-2.34.42-4.4 1.27-6.18a9.63 9.63 0 0 1 3.66-4.16c1.6-.99 3.49-1.48 5.66-1.48Zm0 4.11c-3.25 0-4.87 2.57-4.87 7.71 0 2.65.4 4.61 1.2 5.87a4.01 4.01 0 0 0 3.63 1.88 4 4 0 0 0 3.62-1.9c.8-1.27 1.2-3.22 1.2-5.85 0-2.63-.4-4.57-1.2-5.83-.8-1.25-2-1.88-3.58-1.88ZM2814.6 1827.3c-.79.56-1.67.99-2.65 1.27-.97.28-1.97.42-2.98.42-2.2-.02-3.88-.65-5.02-1.88-1.15-1.23-1.72-3.04-1.72-5.44v-11.83h-3.52v-3.9h3.52V1801l5.42-.64v5.6h5.21l-.55 3.9h-4.66v11.69c0 1.1.2 1.89.57 2.37.39.48.99.72 1.8.72.82 0 1.71-.27 2.67-.8l1.91 3.47ZM2829.6 1805.31c1.98 0 3.53.6 4.66 1.82 1.13 1.22 1.7 2.88 1.7 5v16.23h-5.43v-15.38c0-1.33-.23-2.26-.7-2.8-.46-.53-1.15-.8-2.05-.8-.9 0-1.74.29-2.5.87-.76.57-1.5 1.4-2.2 2.47v15.64h-5.43V1797l5.42-.55v12.16c1.81-2.2 3.99-3.31 6.53-3.31ZM2860.66 1816.62c0 .28-.04 1.02-.13 2.2h-14.06c.17 2.18.73 3.73 1.7 4.66.95.93 2.22 1.4 3.8 1.4 1 0 1.93-.16 2.8-.49.88-.32 1.8-.82 2.8-1.5l2.24 3.1c-2.48 2-5.25 3-8.3 3-3.42 0-6.05-1.04-7.9-3.13-1.85-2.1-2.78-4.95-2.78-8.56 0-2.29.4-4.34 1.19-6.17a9.77 9.77 0 0 1 3.43-4.28 9.18 9.18 0 0 1 5.34-1.54c3.13 0 5.56 1 7.29 2.99 1.72 1.99 2.58 4.76 2.58 8.32Zm-5.38-1.57c0-3.92-1.46-5.89-4.36-5.89a3.7 3.7 0 0 0-3.12 1.46c-.75.98-1.2 2.54-1.33 4.69h8.81v-.26ZM2876.59 1805.36c.82 0 1.57.1 2.25.3l-.94 5.25a8.22 8.22 0 0 0-1.99-.26 3.8 3.8 0 0 0-3.13 1.42c-.77.95-1.37 2.4-1.83 4.35v11.94h-5.42v-22.4h4.7l.51 4.4a8.07 8.07 0 0 1 2.33-3.7 5.28 5.28 0 0 1 3.52-1.3ZM2902.39 1805.31c3.3 0 5.88 1.05 7.73 3.16 1.85 2.1 2.78 4.99 2.78 8.66 0 2.34-.43 4.41-1.27 6.2a9.66 9.66 0 0 1-3.65 4.18 10.42 10.42 0 0 1-5.63 1.48c-3.3 0-5.9-1.05-7.75-3.15-1.87-2.1-2.8-5.01-2.8-8.71 0-2.34.42-4.4 1.27-6.18a9.63 9.63 0 0 1 3.66-4.16c1.6-.99 3.49-1.48 5.66-1.48Zm0 4.11c-3.25 0-4.87 2.57-4.87 7.71 0 2.65.4 4.61 1.2 5.87a4.02 4.02 0 0 0 3.63 1.88 4 4 0 0 0 3.62-1.9c.8-1.27 1.2-3.22 1.2-5.85 0-2.63-.4-4.57-1.2-5.83-.8-1.25-2-1.88-3.58-1.88ZM2935.9 1828.36h-4.7l-.3-3.13a8.29 8.29 0 0 1-2.9 2.83 8 8 0 0 1-3.96.93c-2 0-3.55-.6-4.64-1.84-1.09-1.23-1.63-2.93-1.63-5.1v-16.1h5.42v15.42c0 1.27.22 2.17.66 2.71.44.54 1.13.8 2.1.8 1.72 0 3.23-1.05 4.53-3.17v-15.76h5.42v22.41ZM2955.26 1827.3c-.8.56-1.67.99-2.65 1.27-.97.28-1.97.42-2.99.42-2.2-.02-3.87-.65-5.01-1.88-1.15-1.23-1.72-3.04-1.72-5.44v-11.83h-3.52v-3.9h3.52V1801l5.42-.64v5.6h5.21l-.55 3.9h-4.66v11.69c0 1.1.2 1.89.57 2.37.38.48.98.72 1.8.72.82 0 1.71-.27 2.67-.8l1.91 3.47ZM2969.91 1805.31c2.83 0 4.92 1.03 6.27 3.1 1.36 2.05 2.03 4.95 2.03 8.68 0 2.31-.34 4.37-1.03 6.16-.7 1.8-1.71 3.2-3.05 4.22a7.67 7.67 0 0 1-4.77 1.52 7 7 0 0 1-5.64-2.46V1837l-5.42.6v-31.65h4.75l.3 2.75a8.77 8.77 0 0 1 3-2.54 7.85 7.85 0 0 1 3.56-.85Zm-2.08 19.53c3.14 0 4.7-2.57 4.7-7.71 0-2.74-.35-4.72-1.05-5.93a3.45 3.45 0 0 0-3.18-1.82c-.9 0-1.75.27-2.54.82a7.23 7.23 0 0 0-2.04 2.23v10.08a4.76 4.76 0 0 0 4.11 2.33ZM3001.48 1828.36h-4.7l-.3-3.13a8.28 8.28 0 0 1-2.9 2.83 8 8 0 0 1-3.96.93c-2 0-3.55-.6-4.64-1.84-1.09-1.23-1.63-2.93-1.63-5.1v-16.1h5.42v15.42c0 1.27.22 2.17.66 2.71.43.54 1.13.8 2.1.8 1.72 0 3.23-1.05 4.53-3.17v-15.76h5.42v22.41ZM3020.84 1827.3c-.8.56-1.67.99-2.65 1.27-.97.28-1.97.42-2.98.42-2.2-.02-3.88-.65-5.02-1.88-1.15-1.23-1.72-3.04-1.72-5.44v-11.83h-3.52v-3.9h3.52V1801l5.42-.64v5.6h5.21l-.55 3.9h-4.66v11.69c0 1.1.2 1.89.57 2.37.39.48.99.72 1.8.72.82 0 1.71-.27 2.67-.8l1.91 3.47ZM3030.96 1805.31c3.02 0 5.68.89 7.96 2.67l-2.11 3.18a10.53 10.53 0 0 0-5.64-1.82c-1.07 0-1.9.2-2.5.6-.6.42-.89.96-.89 1.64 0 .5.13.93.38 1.27.26.34.72.66 1.38.95.66.3 1.65.63 2.94 1 2.43.65 4.23 1.51 5.4 2.58 1.18 1.08 1.76 2.57 1.76 4.5 0 2.23-.9 3.97-2.7 5.23a11.52 11.52 0 0 1-6.74 1.88c-1.84 0-3.51-.28-5.02-.84a12.2 12.2 0 0 1-3.92-2.33l2.7-3.05a10 10 0 0 0 6.11 2.2c1.21 0 2.18-.24 2.9-.72a2.27 2.27 0 0 0 1.08-2c0-.64-.13-1.16-.4-1.54a3.33 3.33 0 0 0-1.44-1.02c-.7-.3-1.77-.65-3.24-1.08-2.29-.62-3.97-1.49-5.04-2.6a5.78 5.78 0 0 1-1.61-4.18c0-1.24.36-2.35 1.08-3.34a7.16 7.16 0 0 1 3.05-2.33c1.31-.57 2.82-.85 4.51-.85ZM2274.57 1622.9v22.41h-5.42v-22.41h5.42Zm-2.75-11.35c1.01 0 1.84.31 2.48.95.63.64.95 1.42.95 2.35 0 .93-.32 1.7-.95 2.33a3.4 3.4 0 0 1-2.48.93c-1 0-1.8-.3-2.44-.93a3.13 3.13 0 0 1-.95-2.33c0-.93.32-1.71.95-2.35a3.3 3.3 0 0 1 2.44-.95ZM2293.04 1622.26c2 0 3.57.6 4.68 1.8 1.12 1.2 1.67 2.87 1.67 5.02v16.23h-5.42v-15.38c0-1.33-.23-2.26-.7-2.8-.46-.53-1.15-.8-2.05-.8-.93 0-1.77.29-2.52.87a9.9 9.9 0 0 0-2.18 2.52v15.59h-5.43v-22.41h4.7l.43 2.92c1.83-2.37 4.1-3.56 6.82-3.56ZM2317.31 1622.26c2.82 0 4.91 1.03 6.27 3.1 1.35 2.06 2.03 4.95 2.03 8.68 0 2.31-.34 4.37-1.04 6.16-.69 1.8-1.7 3.2-3.05 4.22a7.66 7.66 0 0 1-4.76 1.52 7 7 0 0 1-5.64-2.46v10.47l-5.42.6v-31.65h4.75l.3 2.75a8.78 8.78 0 0 1 3-2.54 7.86 7.86 0 0 1 3.56-.85Zm-2.08 19.53c3.14 0 4.7-2.57 4.7-7.71 0-2.74-.35-4.72-1.05-5.93a3.45 3.45 0 0 0-3.18-1.82c-.9 0-1.75.27-2.54.82a7.2 7.2 0 0 0-2.04 2.23v10.08a4.76 4.76 0 0 0 4.11 2.33ZM2348.87 1645.31h-4.7l-.3-3.13a8.3 8.3 0 0 1-2.9 2.83 8.02 8.02 0 0 1-3.96.94c-2 0-3.55-.62-4.64-1.85-1.09-1.23-1.63-2.93-1.63-5.1v-16.1h5.42v15.42c0 1.27.22 2.17.66 2.71.43.54 1.13.8 2.1.8 1.72 0 3.23-1.05 4.53-3.17v-15.76h5.42v22.41ZM2368.24 1644.25c-.8.56-1.67.99-2.65 1.27-.97.28-1.97.42-2.99.42-2.2-.02-3.87-.65-5.02-1.88-1.14-1.23-1.71-3.04-1.71-5.44v-11.82h-3.52v-3.9h3.52v-4.96l5.42-.63v5.59h5.21l-.55 3.9h-4.66v11.69c0 1.1.2 1.9.57 2.37.38.48.98.72 1.8.72.82 0 1.71-.27 2.67-.8l1.91 3.47ZM2378.36 1622.26c3.02 0 5.68.89 7.96 2.67l-2.11 3.18a10.52 10.52 0 0 0-5.64-1.82c-1.07 0-1.9.2-2.5.6-.6.42-.89.96-.89 1.64 0 .5.13.93.38 1.27.26.34.72.66 1.38.96.66.3 1.65.62 2.94.99 2.43.65 4.23 1.51 5.4 2.58 1.18 1.08 1.76 2.58 1.76 4.5 0 2.23-.9 3.97-2.7 5.23a11.51 11.51 0 0 1-6.74 1.88c-1.84 0-3.51-.28-5.02-.84a12.18 12.18 0 0 1-3.92-2.33l2.71-3.05a10 10 0 0 0 6.1 2.2c1.22 0 2.18-.24 2.9-.72a2.27 2.27 0 0 0 1.08-2c0-.64-.13-1.16-.4-1.54a3.32 3.32 0 0 0-1.44-1.02c-.7-.3-1.77-.65-3.24-1.08-2.29-.62-3.97-1.49-5.04-2.6a5.78 5.78 0 0 1-1.61-4.17c0-1.25.36-2.36 1.08-3.35a7.16 7.16 0 0 1 3.05-2.33c1.31-.57 2.82-.85 4.51-.85Z" style="fill:#b4c4c9;fill-rule:nonzero"/>
  <path d="M5676.79 1750.96h-443.87c-17.95 0-32.52 14.8-32.52 33.03v66.08c0 18.23 14.57 33.03 32.52 33.03h443.87M4678.27 1699.11h443.87c17.95 0 32.52-14.8 32.52-33.03V1600c0-18.23-14.57-33.03-32.52-33.03h-443.87" style="fill:none;stroke:#b4c4c9;stroke-width:8.33px;stroke-dasharray:8.33,16.67,0,0"/>
  <path d="M5675.04 1566.97h-442.96c-17.9 0-32.45 14.8-32.45 33.03v66.08c0 18.23 14.54 33.03 32.45 33.03h442.96" style="fill:none;stroke:#b4c4c9;stroke-width:12.5px;stroke-linecap:butt;stroke-miterlimit:1"/>
  <path d="M5676.79 1526.82c0-6.97-5.66-12.62-12.62-12.62H4690.1a12.63 12.63 0 0 0-12.62 12.62v395.52c0 6.97 5.65 12.62 12.62 12.62h974.06c6.96 0 12.62-5.65 12.62-12.62v-395.52Z" style="fill:none;stroke:#b4c4c9;stroke-width:12.5px;stroke-linejoin:round;stroke-miterlimit:1.5"/>
  <path d="M5298.95 1622.9v22.41h-5.42v-22.41h5.42Zm-2.75-11.35c1.01 0 1.84.31 2.47.95.64.64.96 1.42.96 2.35 0 .93-.32 1.7-.96 2.33a3.4 3.4 0 0 1-2.47.93c-1 0-1.8-.3-2.44-.93a3.12 3.12 0 0 1-.95-2.33c0-.93.31-1.71.95-2.35a3.3 3.3 0 0 1 2.44-.95ZM5324.33 1613.91v31.4h-4.79l-.38-2.84a7.86 7.86 0 0 1-2.69 2.54 7.34 7.34 0 0 1-3.7.93 7.22 7.22 0 0 1-6.32-3.18c-1.47-2.12-2.2-5-2.2-8.64 0-2.29.37-4.33 1.1-6.12a9.65 9.65 0 0 1 3.16-4.22 7.78 7.78 0 0 1 4.76-1.52c2.15 0 4.03.8 5.64 2.41v-11.35l5.42.59Zm-10.04 27.92c.96 0 1.8-.23 2.54-.7a7.21 7.21 0 0 0 2.08-2.18v-10.25a7.78 7.78 0 0 0-1.97-1.78c-.67-.4-1.44-.6-2.31-.6-1.44 0-2.58.65-3.41 1.93-.84 1.29-1.25 3.23-1.25 5.83 0 2.76.37 4.75 1.1 5.95.73 1.2 1.8 1.8 3.22 1.8ZM5349.24 1633.57c0 .28-.04 1.02-.13 2.2h-14.06c.17 2.18.73 3.73 1.7 4.66.95.93 2.22 1.4 3.8 1.4 1 0 1.93-.16 2.8-.49.88-.32 1.8-.82 2.8-1.5l2.24 3.1c-2.48 2-5.25 3-8.3 3-3.42 0-6.05-1.04-7.9-3.13-1.85-2.1-2.78-4.95-2.78-8.56 0-2.29.4-4.34 1.19-6.17a9.78 9.78 0 0 1 3.43-4.27 9.18 9.18 0 0 1 5.34-1.55c3.13 0 5.56 1 7.29 2.99 1.72 1.99 2.58 4.76 2.58 8.32Zm-5.38-1.57c0-3.92-1.46-5.89-4.36-5.89a3.7 3.7 0 0 0-3.12 1.47c-.75.97-1.2 2.53-1.33 4.68h8.81v-.26ZM5366.06 1622.26c2 0 3.57.6 4.68 1.8 1.12 1.2 1.68 2.87 1.68 5.02v16.23h-5.43v-15.38c0-1.33-.23-2.26-.7-2.8-.46-.53-1.15-.8-2.05-.8-.93 0-1.77.29-2.52.87a9.9 9.9 0 0 0-2.18 2.52v15.59h-5.43v-22.41h4.7l.43 2.92c1.84-2.37 4.1-3.56 6.82-3.56ZM5391.56 1644.25c-.8.56-1.67.99-2.65 1.27-.97.28-1.97.42-2.98.42-2.2-.02-3.88-.65-5.03-1.88-1.14-1.23-1.71-3.04-1.71-5.44v-11.82h-3.52v-3.9h3.52v-4.96l5.42-.63v5.59h5.21l-.55 3.9h-4.66v11.69c0 1.1.2 1.9.57 2.37.38.48.98.72 1.8.72.82 0 1.71-.27 2.67-.8l1.91 3.47ZM5400.04 1622.9v22.41h-5.42v-22.41h5.42Zm-2.75-11.35c1.01 0 1.84.31 2.48.95.63.64.95 1.42.95 2.35 0 .93-.32 1.7-.95 2.33a3.4 3.4 0 0 1-2.48.93c-1 0-1.8-.3-2.44-.93a3.13 3.13 0 0 1-.95-2.33c0-.93.32-1.71.95-2.35a3.3 3.3 0 0 1 2.44-.95ZM5419.4 1644.25c-.8.56-1.67.99-2.65 1.27-.97.28-1.97.42-2.99.42-2.2-.02-3.87-.65-5.02-1.88-1.14-1.23-1.71-3.04-1.71-5.44v-11.82h-3.52v-3.9h3.52v-4.96l5.42-.63v5.59h5.21l-.55 3.9h-4.66v11.69c0 1.1.2 1.9.57 2.37.38.48.98.72 1.8.72.82 0 1.71-.27 2.67-.8l1.91 3.47ZM5433.08 1645.39a13.76 13.76 0 0 1-4.11 6.46c-1.83 1.54-4.35 2.44-7.54 2.7l-.55-3.95c1.47-.22 2.65-.54 3.54-.95.89-.41 1.6-.96 2.14-1.63.53-.68 1.03-1.58 1.48-2.71h-1.87l-7.11-22.42h5.76l4.87 18.81 5.09-18.8h5.59l-7.29 22.49ZM5463.41 1622.26c3.3 0 5.88 1.05 7.73 3.16 1.85 2.1 2.78 4.99 2.78 8.66 0 2.34-.43 4.41-1.27 6.2a9.66 9.66 0 0 1-3.65 4.18 10.42 10.42 0 0 1-5.63 1.48c-3.3 0-5.9-1.05-7.76-3.15-1.86-2.1-2.8-5.01-2.8-8.71 0-2.34.43-4.4 1.28-6.18a9.63 9.63 0 0 1 3.66-4.16c1.6-.98 3.49-1.48 5.66-1.48Zm0 4.11c-3.25 0-4.87 2.57-4.87 7.71 0 2.65.4 4.61 1.2 5.87a4.01 4.01 0 0 0 3.63 1.88 4 4 0 0 0 3.62-1.9c.8-1.27 1.2-3.22 1.2-5.85 0-2.63-.4-4.57-1.2-5.83-.8-1.25-2-1.88-3.58-1.88ZM5496.93 1645.31h-4.7l-.3-3.13a8.29 8.29 0 0 1-2.9 2.83 8.02 8.02 0 0 1-3.96.94c-2 0-3.55-.62-4.64-1.85-1.09-1.23-1.63-2.93-1.63-5.1v-16.1h5.42v15.42c0 1.27.22 2.17.66 2.71.43.54 1.13.8 2.1.8 1.72 0 3.23-1.05 4.53-3.17v-15.76h5.42v22.41ZM5516.29 1644.25c-.8.56-1.67.99-2.65 1.27-.97.28-1.97.42-2.98.42-2.2-.02-3.88-.65-5.02-1.88-1.15-1.23-1.72-3.04-1.72-5.44v-11.82h-3.52v-3.9h3.52v-4.96l5.42-.63v5.59h5.21l-.55 3.9h-4.66v11.69c0 1.1.2 1.9.57 2.37.39.48.99.72 1.8.72.82 0 1.71-.27 2.67-.8l1.91 3.47ZM5530.95 1622.26c2.82 0 4.91 1.03 6.27 3.1 1.35 2.06 2.03 4.95 2.03 8.68 0 2.31-.34 4.37-1.03 6.16-.7 1.8-1.71 3.2-3.05 4.22a7.66 7.66 0 0 1-4.77 1.52 7 7 0 0 1-5.64-2.46v10.47l-5.42.6v-31.65h4.75l.3 2.75a8.78 8.78 0 0 1 3-2.54 7.86 7.86 0 0 1 3.56-.85Zm-2.08 19.53c3.14 0 4.7-2.57 4.7-7.71 0-2.74-.35-4.72-1.05-5.93a3.45 3.45 0 0 0-3.18-1.82c-.9 0-1.75.27-2.54.82a7.2 7.2 0 0 0-2.04 2.23v10.08a4.76 4.76 0 0 0 4.11 2.33ZM5562.51 1645.31h-4.7l-.3-3.13a8.3 8.3 0 0 1-2.9 2.83 8.02 8.02 0 0 1-3.96.94c-2 0-3.55-.62-4.64-1.85-1.09-1.23-1.63-2.93-1.63-5.1v-16.1h5.42v15.42c0 1.27.22 2.17.66 2.71.43.54 1.13.8 2.1.8 1.72 0 3.23-1.05 4.53-3.17v-15.76h5.42v22.41ZM5581.87 1644.25c-.8.56-1.67.99-2.65 1.27-.97.28-1.97.42-2.99.42-2.2-.02-3.87-.65-5.01-1.88-1.15-1.23-1.72-3.04-1.72-5.44v-11.82h-3.52v-3.9h3.52v-4.96l5.42-.63v5.59h5.21l-.55 3.9h-4.66v11.69c0 1.1.2 1.9.57 2.37.38.48.98.72 1.8.72.82 0 1.71-.27 2.67-.8l1.91 3.47ZM5317.16 1805.31c3.3 0 5.88 1.05 7.73 3.16 1.85 2.1 2.78 4.99 2.78 8.66 0 2.34-.43 4.41-1.28 6.2a9.66 9.66 0 0 1-3.64 4.18 10.42 10.42 0 0 1-5.63 1.48c-3.3 0-5.9-1.05-7.76-3.15-1.86-2.1-2.8-5.01-2.8-8.71 0-2.34.43-4.4 1.28-6.18a9.63 9.63 0 0 1 3.66-4.16c1.6-.99 3.48-1.48 5.66-1.48Zm0 4.11c-3.25 0-4.87 2.57-4.87 7.71 0 2.65.4 4.61 1.2 5.87a4.01 4.01 0 0 0 3.63 1.88 4 4 0 0 0 3.62-1.9c.8-1.27 1.2-3.22 1.2-5.85 0-2.63-.4-4.57-1.2-5.83-.8-1.25-2-1.88-3.58-1.88ZM5345.59 1827.3c-.8.56-1.67.99-2.65 1.27-.97.28-1.97.42-2.98.42-2.2-.02-3.88-.65-5.03-1.88-1.14-1.23-1.71-3.04-1.71-5.44v-11.83h-3.52v-3.9h3.52V1801l5.42-.64v5.6h5.21l-.55 3.9h-4.66v11.69c0 1.1.2 1.89.57 2.37.38.48.98.72 1.8.72.82 0 1.71-.27 2.67-.8l1.91 3.47ZM5360.58 1805.31c1.98 0 3.53.6 4.66 1.82 1.13 1.22 1.7 2.88 1.7 5v16.23h-5.43v-15.38c0-1.33-.23-2.26-.7-2.8-.46-.53-1.15-.8-2.05-.8-.9 0-1.74.29-2.5.87a9.9 9.9 0 0 0-2.2 2.47v15.64h-5.43V1797l5.43-.55v12.16c1.8-2.2 3.98-3.31 6.52-3.31ZM5391.64 1816.62c0 .28-.04 1.02-.13 2.2h-14.06c.17 2.18.73 3.73 1.7 4.66.95.93 2.22 1.4 3.8 1.4 1 0 1.93-.16 2.8-.49.88-.32 1.8-.82 2.8-1.5l2.24 3.1c-2.48 2-5.25 3-8.3 3-3.42 0-6.05-1.04-7.9-3.13-1.85-2.1-2.78-4.95-2.78-8.56 0-2.29.4-4.34 1.19-6.17a9.78 9.78 0 0 1 3.43-4.28 9.17 9.17 0 0 1 5.34-1.54c3.13 0 5.56 1 7.28 2.99 1.73 1.99 2.59 4.76 2.59 8.32Zm-5.38-1.57c0-3.92-1.46-5.89-4.36-5.89a3.7 3.7 0 0 0-3.12 1.46c-.75.98-1.2 2.54-1.33 4.69h8.8v-.26ZM5407.57 1805.36c.82 0 1.57.1 2.25.3l-.94 5.25a8.21 8.21 0 0 0-1.99-.26c-1.33 0-2.37.48-3.13 1.42-.77.95-1.37 2.4-1.83 4.35v11.94h-5.42v-22.4h4.7l.51 4.4a8.05 8.05 0 0 1 2.33-3.7 5.28 5.28 0 0 1 3.52-1.3ZM5433.37 1805.31c3.3 0 5.88 1.05 7.73 3.16 1.85 2.1 2.78 4.99 2.78 8.66 0 2.34-.43 4.41-1.27 6.2a9.66 9.66 0 0 1-3.65 4.18 10.42 10.42 0 0 1-5.63 1.48c-3.3 0-5.9-1.05-7.76-3.15-1.86-2.1-2.8-5.01-2.8-8.71 0-2.34.43-4.4 1.28-6.18a9.62 9.62 0 0 1 3.66-4.16c1.6-.99 3.49-1.48 5.66-1.48Zm0 4.11c-3.25 0-4.87 2.57-4.87 7.71 0 2.65.4 4.61 1.2 5.87a4.01 4.01 0 0 0 3.63 1.88 4 4 0 0 0 3.62-1.9c.8-1.27 1.2-3.22 1.2-5.85 0-2.63-.4-4.57-1.2-5.83-.8-1.25-2-1.88-3.58-1.88ZM5466.88 1828.36h-4.7l-.3-3.13a8.28 8.28 0 0 1-2.9 2.83 8 8 0 0 1-3.96.93c-2 0-3.55-.6-4.64-1.84-1.09-1.23-1.63-2.93-1.63-5.1v-16.1h5.42v15.42c0 1.27.22 2.17.66 2.71.43.54 1.13.8 2.1.8 1.72 0 3.23-1.05 4.53-3.17v-15.76h5.42v22.41ZM5486.24 1827.3c-.8.56-1.67.99-2.65 1.27-.97.28-1.97.42-2.98.42-2.2-.02-3.88-.65-5.02-1.88-1.15-1.23-1.72-3.04-1.72-5.44v-11.83h-3.52v-3.9h3.52V1801l5.42-.64v5.6h5.21l-.55 3.9h-4.66v11.69c0 1.1.2 1.89.57 2.37.39.48.99.72 1.8.72.82 0 1.71-.27 2.67-.8l1.91 3.47ZM5500.9 1805.31c2.82 0 4.91 1.03 6.27 3.1 1.35 2.05 2.03 4.95 2.03 8.68 0 2.31-.34 4.37-1.03 6.16-.7 1.8-1.71 3.2-3.05 4.22a7.66 7.66 0 0 1-4.77 1.52 7 7 0 0 1-5.64-2.46V1837l-5.42.6v-31.65h4.75l.3 2.75a8.78 8.78 0 0 1 3-2.54 7.86 7.86 0 0 1 3.56-.85Zm-2.08 19.53c3.14 0 4.7-2.57 4.7-7.71 0-2.74-.35-4.72-1.05-5.93a3.45 3.45 0 0 0-3.18-1.82c-.9 0-1.75.27-2.54.82-.8.55-1.47 1.3-2.04 2.23v10.08a4.76 4.76 0 0 0 4.11 2.33ZM5532.46 1828.36h-4.7l-.3-3.13a8.29 8.29 0 0 1-2.9 2.83 8.01 8.01 0 0 1-3.96.93c-2 0-3.55-.6-4.64-1.84-1.09-1.23-1.63-2.93-1.63-5.1v-16.1h5.42v15.42c0 1.27.22 2.17.66 2.71.43.54 1.13.8 2.1.8 1.72 0 3.23-1.05 4.53-3.17v-15.76h5.42v22.41ZM5551.82 1827.3c-.8.56-1.67.99-2.65 1.27-.97.28-1.97.42-2.99.42-2.2-.02-3.87-.65-5.02-1.88-1.14-1.23-1.71-3.04-1.71-5.44v-11.83h-3.52v-3.9h3.52V1801l5.42-.64v5.6h5.21l-.55 3.9h-4.66v11.69c0 1.1.2 1.89.57 2.37.38.48.98.72 1.8.72.82 0 1.71-.27 2.67-.8l1.91 3.47ZM5561.94 1805.31c3.02 0 5.68.89 7.96 2.67l-2.11 3.18a10.52 10.52 0 0 0-5.64-1.82c-1.07 0-1.9.2-2.5.6-.6.42-.89.96-.89 1.64 0 .5.13.93.38 1.27.26.34.72.66 1.38.95.66.3 1.65.63 2.94 1 2.43.65 4.23 1.51 5.4 2.58 1.18 1.08 1.77 2.57 1.77 4.5 0 2.23-.9 3.97-2.72 5.23a11.51 11.51 0 0 1-6.73 1.88c-1.84 0-3.51-.28-5.02-.84a12.2 12.2 0 0 1-3.92-2.33l2.71-3.05a10 10 0 0 0 6.1 2.2c1.22 0 2.18-.24 2.9-.72a2.27 2.27 0 0 0 1.08-2c0-.64-.13-1.16-.4-1.54a3.32 3.32 0 0 0-1.44-1.02c-.7-.3-1.77-.65-3.24-1.08-2.29-.62-3.97-1.49-5.04-2.6a5.78 5.78 0 0 1-1.61-4.18c0-1.24.36-2.35 1.08-3.34a7.16 7.16 0 0 1 3.05-2.33c1.31-.57 2.82-.85 4.51-.85ZM4805.55 1622.9v22.41h-5.42v-22.41h5.42Zm-2.75-11.35c1.01 0 1.84.31 2.48.95.63.64.95 1.42.95 2.35 0 .93-.32 1.7-.95 2.33a3.4 3.4 0 0 1-2.48.93c-1 0-1.8-.3-2.44-.93a3.12 3.12 0 0 1-.95-2.33c0-.93.32-1.71.95-2.35a3.3 3.3 0 0 1 2.44-.95ZM4824.02 1622.26c2 0 3.56.6 4.68 1.8 1.12 1.2 1.67 2.87 1.67 5.02v16.23h-5.42v-15.38c0-1.33-.23-2.26-.7-2.8-.46-.53-1.15-.8-2.05-.8-.93 0-1.77.29-2.52.87a9.93 9.93 0 0 0-2.18 2.52v15.59h-5.43v-22.41h4.7l.43 2.92c1.84-2.37 4.1-3.56 6.82-3.56ZM4848.29 1622.26c2.82 0 4.91 1.03 6.27 3.1 1.36 2.06 2.03 4.95 2.03 8.68 0 2.31-.34 4.37-1.03 6.16-.7 1.8-1.71 3.2-3.05 4.22a7.66 7.66 0 0 1-4.77 1.52 7 7 0 0 1-5.63-2.46v10.47l-5.43.6v-31.65h4.75l.3 2.75a8.8 8.8 0 0 1 3-2.54 7.86 7.86 0 0 1 3.56-.85Zm-2.08 19.53c3.14 0 4.7-2.57 4.7-7.71 0-2.74-.35-4.72-1.05-5.93a3.45 3.45 0 0 0-3.18-1.82c-.9 0-1.75.27-2.54.82a7.2 7.2 0 0 0-2.04 2.23v10.08a4.76 4.76 0 0 0 4.11 2.33ZM4879.86 1645.31h-4.7l-.3-3.13a8.29 8.29 0 0 1-2.9 2.83 8.02 8.02 0 0 1-3.96.94c-2 0-3.55-.62-4.64-1.85-1.09-1.23-1.63-2.93-1.63-5.1v-16.1h5.42v15.42c0 1.27.22 2.17.66 2.71.43.54 1.13.8 2.1.8 1.72 0 3.23-1.05 4.53-3.17v-15.76h5.42v22.41ZM4899.22 1644.25c-.8.56-1.67.99-2.65 1.27-.97.28-1.97.42-2.98.42-2.2-.02-3.88-.65-5.03-1.88-1.14-1.23-1.71-3.04-1.71-5.44v-11.82h-3.52v-3.9h3.52v-4.96l5.42-.63v5.59h5.21l-.55 3.9h-4.66v11.69c0 1.1.2 1.9.57 2.37.38.48.98.72 1.8.72.82 0 1.71-.27 2.67-.8l1.91 3.47ZM4909.34 1622.26c3.02 0 5.68.89 7.96 2.67l-2.11 3.18a10.53 10.53 0 0 0-5.64-1.82c-1.07 0-1.9.2-2.5.6-.6.42-.89.96-.89 1.64 0 .5.13.93.38 1.27.26.34.72.66 1.38.96.67.3 1.65.62 2.95.99 2.42.65 4.23 1.51 5.4 2.58 1.17 1.08 1.76 2.58 1.76 4.5 0 2.23-.9 3.97-2.72 5.23a11.52 11.52 0 0 1-6.73 1.88c-1.84 0-3.51-.28-5.02-.84a12.17 12.17 0 0 1-3.92-2.33l2.71-3.05a10 10 0 0 0 6.1 2.2c1.22 0 2.18-.24 2.9-.72a2.27 2.27 0 0 0 1.08-2c0-.64-.13-1.16-.4-1.54a3.32 3.32 0 0 0-1.44-1.02c-.7-.3-1.77-.65-3.24-1.08-2.29-.62-3.97-1.49-5.04-2.6a5.78 5.78 0 0 1-1.61-4.17c0-1.25.36-2.36 1.08-3.35a7.16 7.16 0 0 1 3.05-2.33c1.31-.57 2.82-.85 4.51-.85Z" style="fill:#b4c4c9;fill-rule:nonzero"/>
  <path d="m4655.27 1619.61 25 12.5-25 12.5v-25Z" style="fill:#b4c4c9"/>
  <path d="M4416.86 1809.42h43.25a88.45 88.45 0 0 0 88.45-88.45 88.85 88.85 0 0 1 88.85-88.86h22.86" style="fill:none;stroke:#b4c4c9;stroke-width:8.33px;stroke-linecap:butt"/>
  <path d="m3349.5 1594.97 62.5 31.25-62.5 31.25v-62.5Z" style="fill:#3ab211"/>
  <path d="M3145.81 1626.22H3362" style="fill:none;stroke:#3ab211;stroke-width:20.83px;stroke-linecap:butt"/>
  <path d="m4613.57 896.21 63.92 28.24-60.94 34.19-2.98-62.43Z" style="fill:#3ab211"/>
  <path d="M4412.44 1635.78h28.01c57.72 0 104.52-46.8 104.52-104.52v-501.9c0-50.28 35.36-92.3 82.58-102.53" style="fill:none;stroke:#3ab211;stroke-width:20.83px;stroke-linecap:butt"/>
  <path d="m2121.49 1103.68 25 12.5-25 12.5v-25Z" style="fill:#b4c4c9"/>
  <path d="M1880.3 1116.18h246.19" style="fill:none;stroke:#b4c4c9;stroke-width:8.33px;stroke-linecap:butt"/>
  <path d="m2084.41 1598.7 60.94 34.2-63.92 28.23 2.98-62.43Z" style="fill:#3ab211"/>
  <path d="M1880.3 927.23h28.01a104.51 104.51 0 0 1 104.52 104.51v496.23c0 50.28 35.36 92.3 82.58 102.54" style="fill:none;stroke:#3ab211;stroke-width:20.83px;stroke-linecap:butt"/>
  <path d="M1856.7 341.04h26.4v138.2h-26.4zM2003.7 331.04v148.2h-22.6l-1.8-13.4a37.03 37.03 0 0 1-12.7 12c-5.13 2.93-10.97 4.4-17.5 4.4-12.93 0-22.87-5-29.8-15s-10.4-23.6-10.4-40.8c0-10.8 1.73-20.43 5.2-28.9 3.47-8.47 8.43-15.1 14.9-19.9 6.47-4.8 13.97-7.2 22.5-7.2 10.13 0 19 3.8 26.6 11.4v-53.6l25.6 2.8Zm-47.4 131.8c4.53 0 8.53-1.1 12-3.3 3.47-2.2 6.73-5.63 9.8-10.3v-48.4c-3.07-3.73-6.17-6.53-9.3-8.4a20.89 20.89 0 0 0-10.9-2.8c-6.8 0-12.17 3.03-16.1 9.1-3.93 6.07-5.9 15.23-5.9 27.5 0 13.07 1.73 22.43 5.2 28.1 3.47 5.67 8.53 8.5 15.2 8.5ZM2121.3 423.84c0 1.33-.2 4.8-.6 10.4h-66.4c.8 10.27 3.47 17.6 8 22 4.53 4.4 10.53 6.6 18 6.6 4.67 0 9.07-.77 13.2-2.3a61.61 61.61 0 0 0 13.2-7.1l10.6 14.6c-11.73 9.47-24.8 14.2-39.2 14.2-16.13 0-28.57-4.93-37.3-14.8-8.73-9.87-13.1-23.33-13.1-40.4 0-10.8 1.87-20.5 5.6-29.1 3.73-8.6 9.13-15.33 16.2-20.2 7.07-4.87 15.47-7.3 25.2-7.3 14.8 0 26.27 4.7 34.4 14.1 8.13 9.4 12.2 22.5 12.2 39.3Zm-25.4-7.4c0-18.53-6.87-27.8-20.6-27.8-6.27 0-11.17 2.3-14.7 6.9-3.53 4.6-5.63 11.97-6.3 22.1h41.6v-1.2ZM2200.7 370.44c9.47 0 16.83 2.83 22.1 8.5 5.27 5.67 7.9 13.57 7.9 23.7v76.6h-25.6v-72.6c0-6.27-1.1-10.67-3.3-13.2-2.2-2.53-5.43-3.8-9.7-3.8-4.4 0-8.37 1.37-11.9 4.1-3.53 2.73-6.97 6.7-10.3 11.9v73.6h-25.6v-105.8h22.2l2 13.8c8.67-11.2 19.4-16.8 32.2-16.8ZM2321.1 474.24a40.9 40.9 0 0 1-12.5 6c-4.6 1.33-9.3 2-14.1 2-10.4-.13-18.3-3.1-23.7-8.9-5.4-5.8-8.1-14.37-8.1-25.7v-55.8h-16.6v-18.4h16.6v-23.4l25.6-3v26.4h24.6l-2.6 18.4h-22v55.2c0 5.2.9 8.93 2.7 11.2 1.8 2.27 4.63 3.4 8.5 3.4s8.07-1.27 12.6-3.8l9 16.4ZM2361.1 373.44v105.8h-25.6v-105.8h25.6Zm-13-53.6c4.8 0 8.7 1.5 11.7 4.5s4.5 6.7 4.5 11.1c0 4.4-1.5 8.07-4.5 11-3 2.93-6.9 4.4-11.7 4.4-4.67 0-8.5-1.47-11.5-4.4-3-2.93-4.5-6.6-4.5-11s1.5-8.1 4.5-11.1 6.83-4.5 11.5-4.5ZM2452.5 474.24a40.9 40.9 0 0 1-12.5 6c-4.6 1.33-9.3 2-14.1 2-10.4-.13-18.3-3.1-23.7-8.9-5.4-5.8-8.1-14.37-8.1-25.7v-55.8h-16.6v-18.4h16.6v-23.4l25.6-3v26.4h24.6l-2.6 18.4h-22v55.2c0 5.2.9 8.93 2.7 11.2 1.8 2.27 4.63 3.4 8.5 3.4s8.07-1.27 12.6-3.8l9 16.4ZM2492.5 373.44v105.8h-25.6v-105.8h25.6Zm-13-53.6c4.8 0 8.7 1.5 11.7 4.5s4.5 6.7 4.5 11.1c0 4.4-1.5 8.07-4.5 11-3 2.93-6.9 4.4-11.7 4.4-4.67 0-8.5-1.47-11.5-4.4-3-2.93-4.5-6.6-4.5-11s1.5-8.1 4.5-11.1 6.83-4.5 11.5-4.5ZM2610.1 423.84c0 1.33-.2 4.8-.6 10.4h-66.4c.8 10.27 3.47 17.6 8 22 4.53 4.4 10.53 6.6 18 6.6 4.67 0 9.07-.77 13.2-2.3a61.61 61.61 0 0 0 13.2-7.1l10.6 14.6c-11.73 9.47-24.8 14.2-39.2 14.2-16.13 0-28.57-4.93-37.3-14.8-8.73-9.87-13.1-23.33-13.1-40.4 0-10.8 1.87-20.5 5.6-29.1 3.73-8.6 9.13-15.33 16.2-20.2 7.07-4.87 15.47-7.3 25.2-7.3 14.8 0 26.27 4.7 34.4 14.1 8.13 9.4 12.2 22.5 12.2 39.3Zm-25.4-7.4c0-18.53-6.87-27.8-20.6-27.8-6.27 0-11.17 2.3-14.7 6.9-3.53 4.6-5.63 11.97-6.3 22.1h41.6v-1.2ZM2666.5 370.44c14.27 0 26.8 4.2 37.6 12.6l-10 15c-9.07-5.73-17.93-8.6-26.6-8.6-5.07 0-9 .97-11.8 2.9-2.8 1.93-4.2 4.5-4.2 7.7 0 2.4.6 4.4 1.8 6 1.2 1.6 3.37 3.1 6.5 4.5s7.77 2.97 13.9 4.7c11.47 3.07 19.97 7.13 25.5 12.2 5.53 5.07 8.3 12.13 8.3 21.2 0 10.53-4.27 18.77-12.8 24.7-8.53 5.93-19.13 8.9-31.8 8.9-8.67 0-16.57-1.33-23.7-4a57.52 57.52 0 0 1-18.5-11l12.8-14.4c9.2 6.93 18.8 10.4 28.8 10.4 5.73 0 10.3-1.13 13.7-3.4a10.7 10.7 0 0 0 5.1-9.4c0-3.07-.63-5.5-1.9-7.3-1.27-1.8-3.53-3.4-6.8-4.8s-8.37-3.1-15.3-5.1c-10.8-2.93-18.73-7.03-23.8-12.3-5.07-5.27-7.6-11.83-7.6-19.7 0-5.87 1.7-11.13 5.1-15.8 3.4-4.67 8.2-8.33 14.4-11 6.2-2.67 13.3-4 21.3-4ZM2821.5 370.44c15.6 0 27.77 4.97 36.5 14.9s13.1 23.57 13.1 40.9c0 11.07-2 20.83-6 29.3-4 8.47-9.73 15.03-17.2 19.7-7.47 4.67-16.33 7-26.6 7-15.6 0-27.8-4.97-36.6-14.9s-13.2-23.63-13.2-41.1c0-11.07 2-20.8 6-29.2 4-8.4 9.77-14.93 17.3-19.6 7.53-4.67 16.43-7 26.7-7Zm0 19.4c-15.33 0-23 12.13-23 36.4 0 12.53 1.9 21.77 5.7 27.7 3.8 5.93 9.5 8.9 17.1 8.9 7.6 0 13.3-3 17.1-9 3.8-6 5.7-15.2 5.7-27.6 0-12.4-1.9-21.57-5.7-27.5-3.8-5.93-9.43-8.9-16.9-8.9ZM2951.5 370.44c9.47 0 16.83 2.83 22.1 8.5 5.27 5.67 7.9 13.57 7.9 23.7v76.6h-25.6v-72.6c0-6.27-1.1-10.67-3.3-13.2-2.2-2.53-5.43-3.8-9.7-3.8-4.4 0-8.37 1.37-11.9 4.1-3.53 2.73-6.97 6.7-10.3 11.9v73.6h-25.6v-105.8h22.2l2 13.8c8.67-11.2 19.4-16.8 32.2-16.8ZM3129.9 406.04c9.47 1.73 17.1 5.13 22.9 10.2 5.8 5.07 8.7 12.8 8.7 23.2 0 14.4-5.07 24.63-15.2 30.7-10.13 6.07-24.33 9.1-42.6 9.1h-41.6v-138.2h36.2c38.13 0 57.2 11.73 57.2 35.2 0 8.13-2.47 14.77-7.4 19.9a34.05 34.05 0 0 1-18.2 9.9Zm-41.4-45.6v37.4h16.2c7.33 0 13.13-1.63 17.4-4.9 4.27-3.27 6.4-8.1 6.4-14.5 0-6.67-2.23-11.33-6.7-14-4.47-2.67-11.43-4-20.9-4h-12.4Zm15.4 99c9.73 0 17.17-1.47 22.3-4.4 5.13-2.93 7.7-8.47 7.7-16.6 0-7.87-2.43-13.53-7.3-17-4.87-3.47-11.5-5.2-19.9-5.2h-18.2v43.2h15.4ZM3209.5 373.44v105.8h-25.6v-105.8h25.6Zm-13-53.6c4.8 0 8.7 1.5 11.7 4.5s4.5 6.7 4.5 11.1c0 4.4-1.5 8.07-4.5 11-3 2.93-6.9 4.4-11.7 4.4-4.67 0-8.5-1.47-11.5-4.4-3-2.93-4.5-6.6-4.5-11s1.5-8.1 4.5-11.1 6.83-4.5 11.5-4.5ZM3300.9 474.24a40.9 40.9 0 0 1-12.5 6c-4.6 1.33-9.3 2-14.1 2-10.4-.13-18.3-3.1-23.7-8.9-5.4-5.8-8.1-14.37-8.1-25.7v-55.8h-16.6v-18.4h16.6v-23.4l25.6-3v26.4h24.6l-2.6 18.4h-22v55.2c0 5.2.9 8.93 2.7 11.2 1.8 2.27 4.63 3.4 8.5 3.4s8.07-1.27 12.6-3.8l9 16.4ZM3354.5 370.44c6.93 0 13.17 1 18.7 3 5.53 2 10.77 5.13 15.7 9.4l-11.4 15.4a41.13 41.13 0 0 0-10.4-5.8c-3.33-1.2-7-1.8-11-1.8-15.87 0-23.8 12.07-23.8 36.2 0 12.27 2.07 21.1 6.2 26.5 4.13 5.4 10 8.1 17.6 8.1 3.73 0 7.17-.6 10.3-1.8a66.92 66.92 0 0 0 11.1-5.8l11.4 16.2a52.71 52.71 0 0 1-34.2 12.2c-10.13 0-18.93-2.23-26.4-6.7-7.47-4.47-13.2-10.83-17.2-19.1-4-8.27-6-18-6-29.2s2-21.1 6-29.7c4-8.6 9.73-15.27 17.2-20 7.47-4.73 16.2-7.1 26.2-7.1ZM3446.7 370.44c15.6 0 27.77 4.97 36.5 14.9s13.1 23.57 13.1 40.9c0 11.07-2 20.83-6 29.3-4 8.47-9.73 15.03-17.2 19.7-7.47 4.67-16.33 7-26.6 7-15.6 0-27.8-4.97-36.6-14.9s-13.2-23.63-13.2-41.1c0-11.07 2-20.8 6-29.2 4-8.4 9.77-14.93 17.3-19.6 7.53-4.67 16.43-7 26.7-7Zm0 19.4c-15.33 0-23 12.13-23 36.4 0 12.53 1.9 21.77 5.7 27.7 3.8 5.93 9.5 8.9 17.1 8.9 7.6 0 13.3-3 17.1-9 3.8-6 5.7-15.2 5.7-27.6 0-12.4-1.9-21.57-5.7-27.5-3.8-5.93-9.43-8.9-16.9-8.9ZM3545.9 373.44v105.8h-25.6v-105.8h25.6Zm-13-53.6c4.8 0 8.7 1.5 11.7 4.5s4.5 6.7 4.5 11.1c0 4.4-1.5 8.07-4.5 11-3 2.93-6.9 4.4-11.7 4.4-4.67 0-8.5-1.47-11.5-4.4-3-2.93-4.5-6.6-4.5-11s1.5-8.1 4.5-11.1 6.83-4.5 11.5-4.5ZM3633.1 370.44c9.47 0 16.83 2.83 22.1 8.5 5.27 5.67 7.9 13.57 7.9 23.7v76.6h-25.6v-72.6c0-6.27-1.1-10.67-3.3-13.2-2.2-2.53-5.43-3.8-9.7-3.8-4.4 0-8.37 1.37-11.9 4.1-3.53 2.73-6.97 6.7-10.3 11.9v73.6h-25.6v-105.8h22.2l2 13.8c8.67-11.2 19.4-16.8 32.2-16.8ZM3796.5 338.04c8.4 0 15.73 1.2 22 3.6 6.27 2.4 12.4 6.07 18.4 11l-13.4 15.6c-8.13-6.53-16.67-9.8-25.6-9.8-10.27 0-18.5 4.13-24.7 12.4-6.2 8.27-9.3 21.27-9.3 39 0 17.33 3.07 30.2 9.2 38.6 6.13 8.4 14.4 12.6 24.8 12.6 5.47 0 10.33-.97 14.6-2.9s8.8-4.7 13.6-8.3l12.4 15.6c-4.67 4.8-10.57 8.8-17.7 12-7.13 3.2-15.1 4.8-23.9 4.8-12 0-22.6-2.8-31.8-8.4-9.2-5.6-16.33-13.83-21.4-24.7s-7.6-23.97-7.6-39.3c0-15.07 2.63-28 7.9-38.8 5.27-10.8 12.47-19 21.6-24.6 9.13-5.6 19.43-8.4 30.9-8.4ZM3932.7 451.24c0 4.13.63 7.17 1.9 9.1 1.27 1.93 3.3 3.43 6.1 4.5l-5.4 17c-6-.53-10.9-2-14.7-4.4-3.8-2.4-6.7-6.07-8.7-11-3.6 5.33-8.1 9.3-13.5 11.9a41.18 41.18 0 0 1-18.1 3.9c-10.53 0-18.87-3-25-9-6.13-6-9.2-13.87-9.2-23.6 0-11.47 4.17-20.23 12.5-26.3s20.23-9.1 35.7-9.1h13.2v-6c0-6.8-1.57-11.57-4.7-14.3-3.13-2.73-8.17-4.1-15.1-4.1-7.73 0-17.07 1.87-28 5.6l-6-17.4c13.2-5.07 26-7.6 38.4-7.6 27.07 0 40.6 12.13 40.6 36.4v44.4Zm-45.6 12.4c8.67 0 15.47-4.33 20.4-13v-21.4h-10.6c-16.53 0-24.8 6.13-24.8 18.4 0 5.07 1.27 9 3.8 11.8 2.53 2.8 6.27 4.2 11.2 4.2ZM3995.1 370.44c14.27 0 26.8 4.2 37.6 12.6l-10 15c-9.07-5.73-17.93-8.6-26.6-8.6-5.07 0-9 .97-11.8 2.9-2.8 1.93-4.2 4.5-4.2 7.7 0 2.4.6 4.4 1.8 6 1.2 1.6 3.37 3.1 6.5 4.5s7.77 2.97 13.9 4.7c11.47 3.07 19.97 7.13 25.5 12.2 5.53 5.07 8.3 12.13 8.3 21.2 0 10.53-4.27 18.77-12.8 24.7-8.53 5.93-19.13 8.9-31.8 8.9-8.67 0-16.57-1.33-23.7-4a57.52 57.52 0 0 1-18.5-11l12.8-14.4c9.2 6.93 18.8 10.4 28.8 10.4 5.73 0 10.3-1.13 13.7-3.4a10.7 10.7 0 0 0 5.1-9.4c0-3.07-.63-5.5-1.9-7.3-1.27-1.8-3.53-3.4-6.8-4.8s-8.37-3.1-15.3-5.1c-10.8-2.93-18.73-7.03-23.8-12.3-5.07-5.27-7.6-11.83-7.6-19.7 0-5.87 1.7-11.13 5.1-15.8 3.4-4.67 8.2-8.33 14.4-11 6.2-2.67 13.3-4 21.3-4ZM4113.3 370.44c9.33 0 16.67 2.87 22 8.6 5.33 5.73 8 13.6 8 23.6v76.6h-25.6v-72.6c0-6.27-1.1-10.67-3.3-13.2-2.2-2.53-5.43-3.8-9.7-3.8a19.1 19.1 0 0 0-11.8 4.1c-3.6 2.73-7.07 6.63-10.4 11.7v73.8h-25.6v-148l25.6-2.6v57.4c8.53-10.4 18.8-15.6 30.8-15.6Z" style="fill:#073b4c;fill-rule:nonzero"/>
</svg>
